<svg width="68" height="70" viewBox="0 0 68 70" fill="none" xmlns="http://www.w3.org/2000/svg">
<g filter="url(#filter0_d_315_2900)">
<path d="M59.8212 34.5994C61.7395 18.7357 50.8363 4.20984 35.5166 2.22623C20.1968 0.242614 6.17328 11.5244 4.25504 27.3985C3.89697 30.3528 3.9815 33.3431 4.50593 36.2731L18.9424 56.6206C21.9171 58.2638 25.1808 59.3332 28.5597 59.7717C43.8951 61.7346 57.9187 50.4476 59.8212 34.5994Z" fill="url(#paint0_linear_315_2900)"/>
</g>
<path d="M6.59148 27.6774C8.35291 13.1361 21.2265 2.78412 35.2448 4.6076C49.2631 6.43107 59.2881 19.7378 57.5163 34.2791C55.7444 48.8205 42.9073 59.1673 28.8681 57.3283C25.9411 56.9512 20.5052 55.5875 17.9441 53.1234L7.98181 38.4117C6.59148 36.5779 6.28833 30.2086 6.59148 27.6774Z" fill="#FF6711" stroke="white" stroke-width="0.75"/>
<g style="mix-blend-mode:multiply">
<path d="M4.52148 36.2524C5.35255 37.5284 8.48863 38.0139 9.77443 38.6132C23.5732 41.79 18.3778 54.8953 18.9579 56.6L4.52148 36.2524Z" fill="#E6E6E6"/>
</g>
<path d="M4.50586 36.3041C5.33692 37.58 7.11927 38.0139 8.40506 38.6131C19.0468 41.6609 17.782 47.1468 18.336 52.2556C18.3935 52.8238 18.3883 54.9728 18.9632 56.6774L4.50586 36.3041Z" fill="url(#paint1_linear_315_2900)"/>
<path d="M19.25 39.9783V26.2673H16.9844V24.3923C17.6224 24.3207 18.2311 24.0798 18.8105 23.6697C19.3965 23.253 19.8197 22.7517 20.0801 22.1658H21.9551V39.9783H19.25Z" fill="#F1F2F2"/>
<path d="M34.4902 35.9548C34.4902 37.1397 34.0736 38.1456 33.2402 38.9724C32.4069 39.7927 31.4076 40.2029 30.2422 40.2029C29.0573 40.2029 28.0514 39.7895 27.2246 38.9626C26.3978 38.1293 25.9844 37.1267 25.9844 35.9548V26.199C25.9844 25.0141 26.401 24.0082 27.2344 23.1814C28.0677 22.3546 29.0703 21.9412 30.2422 21.9412C31.4271 21.9412 32.4297 22.3578 33.25 23.1912C34.0768 24.0245 34.4902 25.0271 34.4902 26.199V35.9548ZM31.707 26.1404C31.707 25.7172 31.554 25.3559 31.248 25.0564C30.9486 24.7504 30.584 24.5974 30.1543 24.5974C29.7311 24.5974 29.3698 24.7504 29.0703 25.0564C28.7708 25.3559 28.6211 25.7172 28.6211 26.1404V35.9158C28.6211 36.3389 28.7708 36.7035 29.0703 37.0095C29.3698 37.309 29.7311 37.4587 30.1543 37.4587C30.584 37.4587 30.9486 37.309 31.248 37.0095C31.554 36.7035 31.707 36.3389 31.707 35.9158V26.1404ZM40.7891 29.2654C40.7891 29.8708 40.5677 30.3917 40.125 30.8279C39.6888 31.2576 39.168 31.4724 38.5625 31.4724C37.944 31.4724 37.4167 31.2576 36.9805 30.8279C36.5508 30.3917 36.3359 29.8708 36.3359 29.2654V24.1775C36.3359 23.559 36.5508 23.0317 36.9805 22.5955C37.4167 22.1593 37.944 21.9412 38.5625 21.9412C39.1745 21.9412 39.6986 22.1625 40.1348 22.6052C40.571 23.0479 40.7891 23.572 40.7891 24.1775V29.2654ZM37.7129 29.2361C37.7129 29.4639 37.791 29.656 37.9473 29.8123C38.1035 29.9685 38.2956 30.0466 38.5234 30.0466C38.7448 30.0466 38.9336 29.9685 39.0898 29.8123C39.2461 29.656 39.3242 29.4639 39.3242 29.2361V24.1482C39.3242 23.9203 39.2461 23.7283 39.0898 23.572C38.9336 23.4158 38.7448 23.3376 38.5234 23.3376C38.2956 23.3376 38.1035 23.4158 37.9473 23.572C37.791 23.7283 37.7129 23.9203 37.7129 24.1482V29.2361ZM46.4727 30.6814C47.0911 30.6814 47.6152 30.9028 48.0449 31.3455C48.4746 31.7817 48.6895 32.3057 48.6895 32.9177V37.9958C48.6895 38.6143 48.4714 39.1384 48.0352 39.5681C47.599 39.9913 47.0781 40.2029 46.4727 40.2029C45.8607 40.2029 45.3366 39.988 44.9004 39.5583C44.4642 39.1222 44.2461 38.6013 44.2461 37.9958V32.9177C44.2461 32.2992 44.4642 31.7719 44.9004 31.3357C45.3366 30.8995 45.8607 30.6814 46.4727 30.6814ZM47.2441 32.8884C47.2441 32.6606 47.166 32.4685 47.0098 32.3123C46.8535 32.156 46.6615 32.0779 46.4336 32.0779C46.2057 32.0779 46.0137 32.156 45.8574 32.3123C45.7012 32.4685 45.623 32.6606 45.623 32.8884V37.9666C45.623 38.1944 45.7012 38.3865 45.8574 38.5427C46.0137 38.699 46.2057 38.7771 46.4336 38.7771C46.6615 38.7771 46.8535 38.699 47.0098 38.5427C47.166 38.3865 47.2441 38.1944 47.2441 37.9666V32.8884ZM38.7578 39.9783H37.1855L46.2773 22.1658H47.8398L38.7578 39.9783Z" fill="#F1F2F2"/>
<defs>
<filter id="filter0_d_315_2900" x="0.237597" y="0.2" width="67.6024" height="69.5934" filterUnits="userSpaceOnUse" color-interpolation-filters="sRGB">
<feFlood flood-opacity="0" result="BackgroundImageFix"/>
<feColorMatrix in="SourceAlpha" type="matrix" values="0 0 0 0 0 0 0 0 0 0 0 0 0 0 0 0 0 0 127 0" result="hardAlpha"/>
<feOffset dx="2" dy="4"/>
<feGaussianBlur stdDeviation="2.9"/>
<feComposite in2="hardAlpha" operator="out"/>
<feColorMatrix type="matrix" values="0 0 0 0 0 0 0 0 0 0 0 0 0 0 0 0 0 0 0.19 0"/>
<feBlend mode="normal" in2="BackgroundImageFix" result="effect1_dropShadow_315_2900"/>
<feBlend mode="normal" in="SourceGraphic" in2="effect1_dropShadow_315_2900" result="shape"/>
</filter>
<linearGradient id="paint0_linear_315_2900" x1="4.05642" y1="30.9783" x2="60.0564" y2="30.9783" gradientUnits="userSpaceOnUse">
<stop offset="0.01" stop-color="#EBC17D"/>
<stop offset="0.19" stop-color="#EDD089"/>
<stop offset="0.41" stop-color="#F4E8D9"/>
<stop offset="0.73" stop-color="#C08329"/>
<stop offset="0.95" stop-color="#EABE81"/>
</linearGradient>
<linearGradient id="paint1_linear_315_2900" x1="24.2893" y1="37.2391" x2="7.39889" y2="49.9821" gradientUnits="userSpaceOnUse">
<stop offset="0.01" stop-color="#EBC17D"/>
<stop offset="0.19" stop-color="#EDD089"/>
<stop offset="0.41" stop-color="#F4E8D9"/>
<stop offset="0.73" stop-color="#C08329"/>
<stop offset="0.95" stop-color="#EABE81"/>
</linearGradient>
</defs>
</svg>
