<svg width="68" height="70" viewBox="0 0 68 70" fill="none" xmlns="http://www.w3.org/2000/svg">
<g filter="url(#filter0_d_315_2933)">
<path d="M59.8403 34.5994C61.7585 18.7357 50.8554 4.20984 35.5356 2.22623C20.2158 0.242614 6.19232 11.5244 4.27408 27.3985C3.91601 30.3528 4.00055 33.3431 4.52497 36.2731L18.9614 56.6206C21.9361 58.2638 25.1999 59.3332 28.5787 59.7717C43.9142 61.7346 57.9377 50.4476 59.8403 34.5994Z" fill="url(#paint0_linear_315_2933)"/>
</g>
<path d="M6.61052 27.6774C8.37196 13.1361 21.2456 2.78412 35.2639 4.6076C49.2822 6.43107 59.3072 19.7378 57.5353 34.2791C55.7634 48.8205 42.9264 59.1673 28.8872 57.3283C25.9602 56.9512 20.5243 55.5875 17.9631 53.1234L8.00086 38.4117C6.61053 36.5779 6.30737 30.2086 6.61052 27.6774Z" fill="#FF6711" stroke="white" stroke-width="0.75"/>
<g style="mix-blend-mode:multiply">
<path d="M4.54053 36.2524C5.37159 37.5284 8.50767 38.0139 9.79347 38.6132C23.5922 41.79 18.3968 54.8953 18.977 56.6L4.54053 36.2524Z" fill="#E6E6E6"/>
</g>
<path d="M4.5249 36.3041C5.35596 37.58 7.13831 38.0139 8.4241 38.6131C19.0659 41.6609 17.801 47.1468 18.355 52.2556C18.4125 52.8238 18.4073 54.9728 18.9823 56.6774L4.5249 36.3041Z" fill="url(#paint1_linear_315_2933)"/>
<path d="M17.0425 26.9802C17.0425 25.294 17.4982 24.005 18.4097 23.113C19.1909 22.3318 20.2228 21.9412 21.5054 21.9412C22.6772 21.9412 23.6766 22.3806 24.5034 23.2595C25.3368 24.1384 25.7534 25.1671 25.7534 26.3455C25.7534 27.6996 25.4832 28.9399 24.9429 30.0662C24.6499 30.6912 23.9631 31.7654 22.8823 33.2888C22.5894 33.7055 22.1532 34.3533 21.5737 35.2322L21.0854 35.9646C20.7729 36.4399 20.5386 36.8142 20.3823 37.0876C20.3042 37.2244 20.2651 37.3057 20.2651 37.3318L25.5386 37.3416V39.9783H17.0034V37.5173C17.0034 37.4587 17.202 37.1332 17.5991 36.5408C17.7749 36.2608 17.9767 35.9548 18.2046 35.6228L18.8979 34.6072C19.3081 34.0473 19.9494 33.1521 20.8218 31.9216C21.6421 30.7693 22.2573 29.7244 22.6675 28.7869C22.9995 28.0186 23.1655 27.2309 23.1655 26.4236C23.1655 25.8832 23.0125 25.4242 22.7065 25.0466C22.3745 24.6495 21.9481 24.4509 21.4272 24.4509C20.6785 24.4509 20.1479 24.8839 19.8354 25.7498C19.7313 26.0297 19.6792 26.3682 19.6792 26.7654V27.449H17.0425V26.9802Z" fill="#F1F2F2"/>
<path d="M35.5093 35.9548C35.5093 37.1397 35.0926 38.1456 34.2593 38.9724C33.4259 39.7927 32.4266 40.2029 31.2612 40.2029C30.0763 40.2029 29.0705 39.7895 28.2437 38.9626C27.4168 38.1293 27.0034 37.1267 27.0034 35.9548V26.199C27.0034 25.0141 27.4201 24.0082 28.2534 23.1814C29.0868 22.3546 30.0894 21.9412 31.2612 21.9412C32.4461 21.9412 33.4487 22.3578 34.269 23.1912C35.0959 24.0245 35.5093 25.0271 35.5093 26.199V35.9548ZM32.7261 26.1404C32.7261 25.7172 32.5731 25.3559 32.2671 25.0564C31.9676 24.7504 31.603 24.5974 31.1733 24.5974C30.7502 24.5974 30.3888 24.7504 30.0894 25.0564C29.7899 25.3559 29.6401 25.7172 29.6401 26.1404V35.9158C29.6401 36.3389 29.7899 36.7035 30.0894 37.0095C30.3888 37.309 30.7502 37.4587 31.1733 37.4587C31.603 37.4587 31.9676 37.309 32.2671 37.0095C32.5731 36.7035 32.7261 36.3389 32.7261 35.9158V26.1404ZM41.8081 29.2654C41.8081 29.8708 41.5868 30.3917 41.144 30.8279C40.7078 31.2576 40.187 31.4724 39.5815 31.4724C38.9631 31.4724 38.4357 31.2576 37.9995 30.8279C37.5698 30.3917 37.355 29.8708 37.355 29.2654V24.1775C37.355 23.559 37.5698 23.0317 37.9995 22.5955C38.4357 22.1593 38.9631 21.9412 39.5815 21.9412C40.1935 21.9412 40.7176 22.1625 41.1538 22.6052C41.59 23.0479 41.8081 23.572 41.8081 24.1775V29.2654ZM38.7319 29.2361C38.7319 29.4639 38.8101 29.656 38.9663 29.8123C39.1226 29.9685 39.3146 30.0466 39.5425 30.0466C39.7638 30.0466 39.9526 29.9685 40.1089 29.8123C40.2651 29.656 40.3433 29.4639 40.3433 29.2361V24.1482C40.3433 23.9203 40.2651 23.7283 40.1089 23.572C39.9526 23.4158 39.7638 23.3376 39.5425 23.3376C39.3146 23.3376 39.1226 23.4158 38.9663 23.572C38.8101 23.7283 38.7319 23.9203 38.7319 24.1482V29.2361ZM47.4917 30.6814C48.1102 30.6814 48.6343 30.9028 49.064 31.3455C49.4937 31.7817 49.7085 32.3057 49.7085 32.9177V37.9958C49.7085 38.6143 49.4904 39.1384 49.0542 39.5681C48.618 39.9913 48.0972 40.2029 47.4917 40.2029C46.8797 40.2029 46.3556 39.988 45.9194 39.5583C45.4832 39.1222 45.2651 38.6013 45.2651 37.9958V32.9177C45.2651 32.2992 45.4832 31.7719 45.9194 31.3357C46.3556 30.8995 46.8797 30.6814 47.4917 30.6814ZM48.2632 32.8884C48.2632 32.6606 48.1851 32.4685 48.0288 32.3123C47.8726 32.156 47.6805 32.0779 47.4526 32.0779C47.2248 32.0779 47.0327 32.156 46.8765 32.3123C46.7202 32.4685 46.6421 32.6606 46.6421 32.8884V37.9666C46.6421 38.1944 46.7202 38.3865 46.8765 38.5427C47.0327 38.699 47.2248 38.7771 47.4526 38.7771C47.6805 38.7771 47.8726 38.699 48.0288 38.5427C48.1851 38.3865 48.2632 38.1944 48.2632 37.9666V32.8884ZM39.7769 39.9783H38.2046L47.2964 22.1658H48.8589L39.7769 39.9783Z" fill="#F1F2F2"/>
<defs>
<filter id="filter0_d_315_2933" x="0.25664" y="0.2" width="67.6024" height="69.5934" filterUnits="userSpaceOnUse" color-interpolation-filters="sRGB">
<feFlood flood-opacity="0" result="BackgroundImageFix"/>
<feColorMatrix in="SourceAlpha" type="matrix" values="0 0 0 0 0 0 0 0 0 0 0 0 0 0 0 0 0 0 127 0" result="hardAlpha"/>
<feOffset dx="2" dy="4"/>
<feGaussianBlur stdDeviation="2.9"/>
<feComposite in2="hardAlpha" operator="out"/>
<feColorMatrix type="matrix" values="0 0 0 0 0 0 0 0 0 0 0 0 0 0 0 0 0 0 0.19 0"/>
<feBlend mode="normal" in2="BackgroundImageFix" result="effect1_dropShadow_315_2933"/>
<feBlend mode="normal" in="SourceGraphic" in2="effect1_dropShadow_315_2933" result="shape"/>
</filter>
<linearGradient id="paint0_linear_315_2933" x1="4.07546" y1="30.9783" x2="60.0755" y2="30.9783" gradientUnits="userSpaceOnUse">
<stop offset="0.01" stop-color="#EBC17D"/>
<stop offset="0.19" stop-color="#EDD089"/>
<stop offset="0.41" stop-color="#F4E8D9"/>
<stop offset="0.73" stop-color="#C08329"/>
<stop offset="0.95" stop-color="#EABE81"/>
</linearGradient>
<linearGradient id="paint1_linear_315_2933" x1="24.3084" y1="37.2391" x2="7.41794" y2="49.9821" gradientUnits="userSpaceOnUse">
<stop offset="0.01" stop-color="#EBC17D"/>
<stop offset="0.19" stop-color="#EDD089"/>
<stop offset="0.41" stop-color="#F4E8D9"/>
<stop offset="0.73" stop-color="#C08329"/>
<stop offset="0.95" stop-color="#EABE81"/>
</linearGradient>
</defs>
</svg>
