<svg width="66" height="70" viewBox="0 0 66 70" fill="none" xmlns="http://www.w3.org/2000/svg">
<rect x="1" y="0.5" width="64" height="69" rx="10.5" stroke="#FF9A4E"/>
<path d="M33.9416 50.757V49.9133C33.9416 42.8357 33.9416 35.7597 33.9416 28.6852C33.9301 28.2235 34.0773 27.7719 34.3588 27.4057C37.9285 22.6307 42.7035 19.9882 48.5912 19.2603C49.0873 19.2001 49.2031 19.3438 49.2031 19.8306C49.2031 27.3995 49.2031 34.9716 49.2031 42.5467C49.2031 42.9315 49.1753 43.1401 48.6886 43.1865C42.8194 43.6825 37.9517 46.1721 33.9416 50.757Z" fill="#FEFAE0"/>
<path d="M32.115 50.7616C30.8885 49.3046 29.4782 48.0128 27.9195 46.9184C24.8429 44.7674 21.249 43.4745 17.5072 43.1726C17.0436 43.1262 16.8674 43.0149 16.8674 42.5003C16.9014 34.953 16.9184 27.4072 16.9184 19.863C16.9184 19.3994 16.9787 19.1815 17.5396 19.251C23.3392 19.9882 28.0493 22.6121 31.619 27.2666C31.9573 27.688 32.1376 28.2144 32.129 28.7547C32.1104 35.755 32.1104 42.7538 32.129 49.751L32.115 50.7616Z" fill="#FEFAE0"/>
<path d="M15.0501 24.5314V43.4647C15.0501 44.5958 15.2726 44.8137 16.4038 44.8555C20.7526 44.9754 24.9293 46.5803 28.2394 49.4033C28.5502 49.6575 28.8288 49.9487 29.0692 50.2703C23.9363 48.4389 18.3677 48.2125 13.103 49.6212C13.0017 49.3553 12.9745 49.0669 13.0242 48.7867C13.0242 41.1884 13.0242 33.5901 13.001 25.9918C13.001 25.2686 13.2189 24.9672 13.8772 24.8467C14.2527 24.7818 14.619 24.652 15.0501 24.5314Z" fill="#FF9A4E"/>
<path d="M36.9642 50.3166C39.4597 47.7856 42.6434 46.043 46.1202 45.3051C47.318 45.0635 48.5337 44.9209 49.7548 44.8786C50.7237 44.8276 50.9695 44.568 50.9741 43.5759V24.6148C53 24.9533 53 24.9533 53 26.8865V49.649C47.7122 48.2267 42.1155 48.4597 36.9642 50.3166Z" fill="#FF9A4E"/>
</svg>
