<svg width="66" height="70" viewBox="0 0 66 70" fill="none" xmlns="http://www.w3.org/2000/svg">
<rect x="1" y="0.5" width="64" height="69" rx="10.5" stroke="#FF9A4E"/>
<path d="M18.5665 40.5108H48.2542V48.8605H18.5665V40.5108Z" fill="#FF9A4E"/>
<path d="M23.2052 27.9863H43.6155V35.8721H23.2052V27.9863Z" fill="#FF9A4E"/>
<path d="M51.664 52.3727C51.4051 52.3426 51.1436 52.3426 50.8847 52.3727C50.1379 52.5072 50.0127 52.1593 50.0219 51.4821C50.0591 48.9076 50.0219 46.3285 50.0219 43.754C50.0388 43.2338 49.9826 42.7139 49.855 42.2093C49.6237 41.3768 49.1222 40.6447 48.4294 40.1283C47.7367 39.6119 46.8919 39.3404 46.028 39.3565C44.7802 39.3565 44.7802 39.3565 44.7802 38.0808C44.7802 35.5574 44.7802 33.0339 44.7802 30.5058C44.7802 27.9777 43.1381 26.2939 40.5311 26.28C38.736 26.28 36.9408 26.28 35.1456 26.28C34.8812 26.28 34.4498 26.498 34.3663 26.048C34.2895 25.8441 34.2949 25.6184 34.3815 25.4184C34.468 25.2185 34.6289 25.06 34.8302 24.9765C35.3059 24.746 35.7287 24.4193 36.0717 24.0172C36.4148 23.615 36.6707 23.146 36.8233 22.6399C36.9759 22.1337 37.0218 21.6014 36.9582 21.0766C36.8946 20.5518 36.7228 20.046 36.4537 19.5909C35.7579 18.3153 35.0204 17.0628 34.2782 15.815C33.6148 14.711 32.483 14.7296 31.8196 15.8475C31.1563 16.9654 30.4559 18.1669 29.7879 19.3497C28.5215 21.581 29.1153 23.7704 31.3836 25.0229C31.8475 25.2873 31.7686 25.6445 31.7501 26.0063C31.7222 26.4701 31.3187 26.28 31.0821 26.2846C29.1848 26.2846 27.283 26.2846 25.3811 26.2846C24.8401 26.2675 24.3014 26.3622 23.7987 26.5629C23.296 26.7635 22.8402 27.0657 22.4596 27.4506C22.0791 27.8355 21.782 28.2948 21.5871 28.7998C21.3922 29.3047 21.3036 29.8445 21.3269 30.3852C21.3269 33.0664 21.2991 35.7476 21.3269 38.4287C21.3269 39.1477 21.2109 39.4539 20.3991 39.3565C18.0798 39.106 15.9645 40.929 16.0341 43.6937C16.0944 46.1429 16.0341 48.5875 16.0341 51.0368C16.0341 52.3449 16.0341 52.3449 14.7585 52.3542C14.4441 52.3278 14.1278 52.3689 13.8307 52.4748C13.584 52.563 13.3713 52.7264 13.2223 52.9419C13.0734 53.1575 12.9958 53.4143 13.0004 53.6762C12.9939 53.9384 13.0689 54.1961 13.2152 54.4138C13.3614 54.6315 13.5716 54.7984 13.8168 54.8915C14.1146 54.9941 14.4323 55.0259 14.7445 54.9843H51.5249C52.4155 54.9843 52.9768 54.4833 53 53.7226C53.0012 53.3666 52.8613 53.0247 52.6109 52.7716C52.3605 52.5186 52.02 52.3752 51.664 52.3727ZM31.9588 20.8805C32.2742 20.2589 32.6407 19.6652 33.0628 18.9183C33.4896 19.6652 33.87 20.2775 34.19 20.9176C34.3464 21.1777 34.4003 21.4867 34.3411 21.7843C34.2819 22.0819 34.1139 22.3468 33.87 22.5272C33.6531 22.7212 33.3723 22.8285 33.0814 22.8285C32.7904 22.8285 32.5096 22.7212 32.2928 22.5272C32.0367 22.3478 31.8593 22.077 31.7971 21.7705C31.735 21.4641 31.7928 21.1455 31.9588 20.8805ZM23.9895 30.0698C24.0173 29.3137 24.5693 28.9194 25.4646 28.9148C27.1531 28.9148 28.8462 28.9148 30.5394 28.9148H40.4569C41.7604 28.9148 42.1733 29.3276 42.1733 30.645C42.1733 31.6315 42.1733 32.6195 42.1733 33.6091C42.1733 33.6509 42.1269 33.688 42.0758 33.7715L41.2641 32.9783C39.3807 31.1228 37.0892 31.1228 35.1966 32.9783C34.8441 33.3262 34.5194 33.7019 34.1622 34.0405C33.3133 34.8384 32.7103 34.8384 31.8707 34.0405C31.4393 33.6277 31.045 33.1731 30.6043 32.7695C28.8973 31.2063 26.7866 31.1877 25.0379 32.7185C24.7085 33.0107 24.4116 33.3447 23.9663 33.7947C23.9756 32.4448 23.9385 31.2573 23.9895 30.0698ZM47.4243 44.6678C47.4087 44.7293 47.3787 44.7862 47.3368 44.8338C47.2948 44.8814 47.2421 44.9184 47.1831 44.9415C46.1904 45.359 45.5131 46.1615 44.7895 46.9083C43.7643 47.9659 43.1427 47.9613 42.099 46.9083C41.714 46.5187 41.3476 46.1105 40.944 45.7486C40.218 45.0408 39.2443 44.6447 38.2304 44.6447C37.2164 44.6447 36.2427 45.0408 35.5167 45.7486C35.0528 46.1661 34.64 46.6393 34.19 47.0753C33.3411 47.9056 32.7056 47.9103 31.8335 47.0753C31.3697 46.6114 30.9383 46.1476 30.4419 45.6837C29.705 44.9861 28.7247 44.6039 27.71 44.6186C26.6953 44.6333 25.7264 45.0438 25.01 45.7626C24.5137 46.2264 24.0823 46.732 23.572 47.1913C22.904 47.8082 22.3242 47.8314 21.633 47.2609C20.6496 46.4491 19.8657 45.4332 18.8498 44.6261C18.3859 44.2689 18.6457 43.4571 18.7849 42.8634C18.8292 42.6305 18.9491 42.4188 19.1261 42.2611C19.3031 42.1034 19.5272 42.0086 19.7636 41.9913C20.0485 41.9588 20.3351 41.9448 20.6218 41.9495H45.4946C47.1227 41.9727 47.9067 43.0582 47.4243 44.6678Z" fill="#FEFAE0"/>
</svg>
