<svg width="62" height="54" viewBox="0 0 62 54" fill="none" xmlns="http://www.w3.org/2000/svg">
<rect x="0.35" y="0.35" width="61.3" height="53.3" rx="10.65" stroke="#FEFAE0" stroke-width="0.7"/>
<path d="M47.4761 17.9991C47.4678 15.6907 45.7587 13.7195 43.5232 13.2732C42.4457 13.0578 41.3612 13.1963 40.2809 13.1613C39.9651 13.1515 39.7477 13.1739 39.6909 12.7262C39.6299 12.2436 39.2421 11.9931 38.7366 12.0001C38.2311 12.0071 37.8543 12.2674 37.8058 12.7556C37.7629 13.1865 37.5468 13.1585 37.2629 13.1571C35.6701 13.1571 34.0783 13.1571 32.4873 13.1571C32.1993 13.1571 31.9887 13.1795 31.9444 12.7528C31.8946 12.2646 31.5164 12.0071 31.0123 12.0001C30.5081 11.9931 30.1176 12.2464 30.0594 12.729C30.004 13.1823 29.7824 13.1599 29.468 13.1585C27.9001 13.1585 26.3309 13.1487 24.7589 13.1585C24.4223 13.1585 24.234 13.1347 24.1827 12.708C24.1315 12.2813 23.8005 12.0365 23.3517 12.0085C22.903 11.9806 22.4542 12.0981 22.4043 12.5192C22.3088 13.3068 21.7991 13.1557 21.324 13.1585C20.7936 13.1585 20.2631 13.1585 19.7326 13.1585C16.6274 13.1585 14.5083 15.2752 14.5055 18.3936C14.4982 24.5222 14.4982 30.6508 14.5055 36.7794C14.4872 37.1979 14.5174 37.6172 14.5956 38.0287C15.1648 40.4574 17.0471 41.9781 19.5955 41.9907C23.3794 42.0103 27.1619 41.9907 30.9527 41.9907C34.7823 41.9907 38.6119 42.0117 42.4415 41.9907C45.2891 41.9711 47.465 39.9048 47.4775 37.1585C47.508 30.7716 47.5075 24.3851 47.4761 17.9991ZM31.0054 35.3328C29.6033 35.3369 28.2315 34.9208 27.0637 34.1369C25.8959 33.3531 24.9846 32.2369 24.4453 30.9296C23.9059 29.6223 23.7628 28.1827 24.0339 26.7932C24.305 25.4037 24.9782 24.1267 25.9683 23.1238C26.9584 22.121 28.2208 21.4375 29.5957 21.1598C30.9706 20.8822 32.3961 21.0229 33.6918 21.5641C34.9875 22.1053 36.0951 23.0227 36.8743 24.2001C37.6535 25.3775 38.0693 26.762 38.069 28.1783C38.0661 30.0715 37.3216 31.8866 35.9981 33.2271C34.6746 34.5677 32.8796 35.3247 31.0054 35.3328Z" fill="#292A2C"/>
<path d="M31.0054 23.0495C30.0029 23.0531 29.024 23.3565 28.1921 23.9214C27.3601 24.4864 26.7125 25.2875 26.3308 26.2238C25.9492 27.1601 25.8506 28.1897 26.0475 29.1825C26.2445 30.1753 26.7281 31.087 27.4374 31.8025C28.1468 32.518 29.05 33.0053 30.0332 33.2029C31.0163 33.4004 32.0354 33.2995 32.9619 32.9127C33.8883 32.5259 34.6806 31.8706 35.2387 31.0295C35.7969 30.1884 36.0959 29.1992 36.0981 28.1867C36.0955 26.8238 35.5579 25.5176 34.6032 24.5545C33.6485 23.5915 32.3546 23.0502 31.0054 23.0495ZM33.6106 27.9656C32.6812 28.7239 31.7574 29.4933 30.8156 30.2376C30.2394 30.6923 29.7242 30.6335 29.2561 30.0753C28.8849 29.6332 28.5331 29.173 28.1938 28.7057C27.8184 28.1867 27.8669 27.6355 28.2907 27.2773C28.7145 26.9192 29.3696 26.9248 29.6827 27.4438C30.148 28.216 30.5137 28.0034 31.0109 27.5235C31.4722 27.1033 31.9559 26.7086 32.4596 26.3414C32.6116 26.214 32.7998 26.139 32.997 26.1274C33.1941 26.1158 33.3897 26.1683 33.5552 26.277C33.8765 26.4715 34.0455 26.7541 34.0441 27.2102C34.0524 27.4956 33.8779 27.7558 33.6161 27.9684L33.6106 27.9656Z" fill="#FEFAE0"/>
</svg>
