<svg width="27" height="46" viewBox="0 0 27 46" fill="none" xmlns="http://www.w3.org/2000/svg">
<path d="M0.999197 21.6301V29.0991C1.1066 29.0932 1.21303 29.0755 1.31653 29.0462C4.70899 27.5839 8.39315 26.9243 12.0822 27.1187C14.4087 27.1442 16.6613 27.9398 18.4876 29.3812C19.5983 30.2509 20.5385 31.2969 21.5551 32.2665C22.7353 33.4595 24.2723 34.2353 25.9331 34.4761C26.4444 34.5407 26.697 34.4761 26.6912 33.8355C26.6637 27.9591 26.6637 22.1041 26.6912 16.2708C26.7 16.0501 26.6598 15.8302 26.5735 15.627C26.4871 15.4238 26.3567 15.2422 26.1917 15.0955C24.5512 13.5352 22.4751 12.5104 20.2388 12.1572C17.0567 11.6308 13.8088 11.6427 10.6307 12.1925C7.49658 12.5919 4.46827 13.5894 1.71025 15.1307C1.47404 15.2287 1.27625 15.4011 1.14686 15.6217C1.01748 15.8423 0.963563 16.099 0.993315 16.353C1.03445 18.116 0.999197 19.873 0.999197 21.6301Z" fill="#FF9A4E"/>
<path d="M26.6853 38.1548C26.6294 37.6588 26.6294 37.1581 26.6853 36.6622C26.7147 36.2214 26.5854 36.0745 26.0976 36.0745C24.3028 35.9896 22.5906 35.2952 21.2437 34.1059C20.2329 33.2244 19.2868 32.2666 18.3054 31.344C17.1627 30.1539 15.6885 29.3349 14.0744 28.9934C9.78777 28.2543 5.37739 28.8706 1.45756 30.7563C1.01682 30.962 0.981567 31.2558 0.981567 31.6613C0.981567 33.6475 0.981567 35.6397 0.981567 37.6259C0.981567 39.8531 1.18137 40.1352 3.27927 40.9285C3.54959 41.0343 3.83165 41.1107 4.11372 41.1929C7.28115 42.1449 10.5485 42.286 13.5866 42.3682C15.5647 42.366 17.5408 42.2443 19.5042 42.0039C21.4211 41.8173 23.3001 41.35 25.081 40.617C26.174 40.1587 26.9086 39.4829 26.6853 38.1548Z" fill="#FF9A4E"/>
<path d="M1.0051 13.7144C1.49873 13.4617 1.85132 13.2737 2.21566 13.1268C6.54662 11.0641 11.1538 10.3354 15.902 10.2943C19.7393 10.2943 23.3945 10.882 26.6383 13.403C26.6383 11.7928 26.6971 10.3354 26.6383 8.87807C26.6344 8.30473 26.5057 7.73914 26.2611 7.22057C26.0165 6.702 25.662 6.24291 25.2221 5.87519C25.0282 5.72241 24.893 5.5461 24.5463 5.66363C21.2357 6.63905 17.7954 7.10279 14.3447 7.03874C10.8188 7.07988 7.2518 6.89771 3.84932 5.86345C2.79743 5.53437 2.35081 5.91633 1.83955 6.59213C1.57414 6.94104 1.38405 7.34124 1.2813 7.76742C0.799428 9.6479 1.06975 11.6165 1.0051 13.7144Z" fill="#FF9A4E"/>
<path d="M3.68477 4.10053C6.9756 5.1818 10.384 5.36984 13.8158 5.39923C16.3301 5.43868 18.8426 5.24193 21.3201 4.81158C22.5889 4.61072 23.827 4.24934 25.0046 3.73617C25.3396 3.57751 25.8038 3.44236 25.8273 3.03101C25.8509 2.61965 25.369 2.47861 25.0399 2.32582C24.6184 2.131 24.1846 1.96413 23.7412 1.82632C19.7981 0.65102 15.7374 0.498231 11.665 0.65102C8.94665 0.688279 6.24755 1.11374 3.64951 1.91448C2.97372 2.13778 1.88657 2.30232 1.88657 2.98987C1.88657 3.67741 2.97959 3.87135 3.68477 4.10053ZM18.611 2.18479C18.8696 2.18479 19.1282 2.18479 19.3926 2.18479C19.5021 2.17727 19.612 2.19291 19.7151 2.23068C19.8181 2.26846 19.9121 2.32752 19.9908 2.40403C20.0695 2.48054 20.1313 2.57277 20.172 2.67472C20.2127 2.77667 20.2314 2.88606 20.2271 2.99575C20.2363 3.10536 20.2205 3.21563 20.181 3.3183C20.1416 3.42097 20.0793 3.51336 19.9991 3.58856C19.9188 3.66376 19.8225 3.7198 19.7175 3.75249C19.6124 3.78518 19.5014 3.79367 19.3926 3.77731H18.517C17.9822 3.74205 17.0831 3.99474 17.0831 3.00161C17.0831 2.00849 17.947 2.18479 18.611 2.18479Z" fill="#FEFAE0"/>
<path d="M3.19701 42.6032C4.25729 43.7643 5.66571 44.55 7.21066 44.8422C10.7793 45.6627 14.4684 45.8201 18.0939 45.3064C19.8417 45.1638 21.5389 44.6488 23.0713 43.7962C23.585 43.581 24.0028 43.1862 24.2466 42.6855C17.3383 44.4576 10.0912 44.4293 3.19701 42.6032Z" fill="#FF9A4E"/>
</svg>
