<svg width="56" height="55" viewBox="0 0 56 55" fill="none" xmlns="http://www.w3.org/2000/svg">
<path d="M11.9638 26.8431C13.2019 26.1347 14.4958 25.5289 15.8327 25.0316C16.5997 24.7701 17.2538 24.2536 17.6859 23.5681C18.1181 22.8827 18.3021 22.0698 18.2072 21.265C18.0946 19.8014 17.9411 18.3378 17.7978 16.8844C17.521 14.9244 17.9765 12.9311 19.0772 11.2858C19.5094 10.6141 20.124 10.0793 20.849 9.74397C21.574 9.40865 22.3795 9.2867 23.1712 9.39236C23.9804 9.4714 24.7409 9.8151 25.3349 10.3702C25.9289 10.9254 26.3232 11.6609 26.4567 12.4629C27.2653 15.5334 28.1352 18.6039 28.9336 21.6744C29.1383 22.4523 29.302 22.698 30.2334 22.4421C35.7399 20.9068 41.2771 19.4637 46.804 17.9898C49.4958 17.2734 51.7066 18.3378 52.3412 20.6714C52.9758 23.005 51.6759 25.267 49.025 25.9937C47.1418 26.5054 45.2381 27.0172 43.2422 27.488C43.8006 27.973 44.2377 28.582 44.5185 29.2663C44.7993 29.9505 44.916 30.691 44.8594 31.4285C44.7588 32.1615 44.469 32.8556 44.0186 33.4425C43.5681 34.0294 42.9724 34.4887 42.2903 34.7753C45.0845 37.0373 44.3374 41.4793 40.0591 42.5131C41.144 43.7003 41.9731 44.9592 41.533 46.6787C41.3814 47.426 41.0242 48.116 40.5016 48.6712C39.979 49.2263 39.3117 49.6245 38.575 49.8209C35.0106 50.9087 31.3658 51.7129 27.6747 52.2261C24.2971 52.5639 21.1652 51.5711 18.0128 50.6397C17.501 50.4862 17.6238 50.1996 17.7978 49.8209C18.3365 48.5393 18.3875 47.1049 17.9411 45.7883C16.5491 40.6093 15.1981 35.4201 13.8471 30.2207C13.5994 28.9214 12.9389 27.7368 11.9638 26.8431Z" fill="#FF9A4E"/>
<path d="M8.45322 27.2218C9.29044 27.1325 10.133 27.3327 10.8406 27.7889C11.5483 28.2452 12.0783 28.93 12.3425 29.7295C13.9324 35.502 15.4643 41.2814 16.9381 47.0677C17.1384 47.9017 17.0056 48.781 16.5679 49.5187C16.1303 50.2564 15.4222 50.7944 14.5943 51.0184C13.5708 51.3562 12.5472 51.6223 11.5237 51.8781C11.0957 52.0069 10.6464 52.0496 10.2017 52.0039C9.75704 51.9582 9.32582 51.825 8.93289 51.6119C8.53996 51.3988 8.19308 51.11 7.91226 50.7622C7.63144 50.4144 7.42222 50.0145 7.29666 49.5855C5.69317 43.8334 4.13742 38.0642 2.62945 32.278C2.50733 31.8559 2.47111 31.4137 2.52293 30.9774C2.57474 30.541 2.71356 30.1196 2.93114 29.7379C3.14872 29.3561 3.44065 29.0219 3.78966 28.755C4.13868 28.4881 4.53768 28.2939 4.96307 28.1839C6.22198 27.795 7.51159 27.488 8.45322 27.2218Z" fill="#FF9A4E"/>
<path d="M28.4014 3.63014C28.9848 3.63014 29.1281 4.03953 29.2816 4.40799C30.3665 7.01452 31.448 9.62449 32.5261 12.2378C32.7206 12.7087 32.8741 13.2613 32.2805 13.4967C31.6868 13.7321 31.3491 13.3432 31.1444 12.8622C30.039 10.2113 28.9336 7.57065 27.8691 4.90953C27.6644 4.33636 27.6644 3.74273 28.4014 3.63014Z" fill="#BDC89C"/>
<path d="M40.97 13.5581C40.1307 13.4046 40.2536 12.8109 40.5094 12.1866C41.3487 10.1396 42.1948 8.09258 43.0477 6.04556C43.3036 5.43146 43.5697 4.81737 43.8154 4.20326C44.061 3.58916 44.3476 3.47656 44.8389 3.68126C44.939 3.71327 45.0305 3.76788 45.1062 3.84087C45.1819 3.91386 45.2398 4.00328 45.2754 4.10222C45.311 4.20115 45.3234 4.30693 45.3116 4.41141C45.2998 4.5159 45.2641 4.61627 45.2073 4.70477C44.0713 7.48871 42.9147 10.2624 41.7684 13.0361C41.7006 13.1914 41.5889 13.3235 41.4471 13.4163C41.3053 13.509 41.1395 13.5583 40.97 13.5581Z" fill="#BDC89C"/>
<path d="M37.224 12.5244C37.224 12.9952 37.224 13.4661 36.5894 13.5479C35.9548 13.6298 35.8013 13.1283 35.8013 12.5244V4.12141C35.8013 3.57895 35.9344 3.0979 36.5792 3.0979C37.224 3.0979 37.224 3.59942 37.224 4.12141V12.5244Z" fill="#BDC89C"/>
</svg>
