<svg width="32" height="32" viewBox="0 0 32 32" fill="none" xmlns="http://www.w3.org/2000/svg">
<path d="M15.9998 2.66663C8.65317 2.66663 2.6665 8.65329 2.6665 16C2.6665 23.3466 8.65317 29.3333 15.9998 29.3333C23.3465 29.3333 29.3332 23.3466 29.3332 16C29.3332 8.65329 23.3465 2.66663 15.9998 2.66663ZM20.4798 19.0666C20.8665 19.4533 20.8665 20.0933 20.4798 20.48C20.2798 20.68 20.0265 20.7733 19.7732 20.7733C19.5198 20.7733 19.2665 20.68 19.0665 20.48L15.9998 17.4133L12.9332 20.48C12.7332 20.68 12.4798 20.7733 12.2265 20.7733C11.9732 20.7733 11.7198 20.68 11.5198 20.48C11.1332 20.0933 11.1332 19.4533 11.5198 19.0666L14.5865 16L11.5198 12.9333C11.1332 12.5466 11.1332 11.9066 11.5198 11.52C11.9065 11.1333 12.5465 11.1333 12.9332 11.52L15.9998 14.5866L19.0665 11.52C19.4532 11.1333 20.0932 11.1333 20.4798 11.52C20.8665 11.9066 20.8665 12.5466 20.4798 12.9333L17.4132 16L20.4798 19.0666Z" fill="#FEFAE0"/>
</svg>
