<svg width="66" height="70" viewBox="0 0 66 70" fill="none" xmlns="http://www.w3.org/2000/svg">
<rect x="1" y="0.5" width="64" height="69" rx="10.5" stroke="#FF9A4E"/>
<path d="M18.9607 34.1007H46.2982V45.6844H18.9607V34.1007Z" fill="#FF9A4E"/>
<path d="M50.3988 37.4831C49.3887 35.0737 48.1192 32.8219 46.1731 30.9963C43.7266 28.7305 40.8446 28.5035 38.0784 30.3429C37.3373 30.8766 36.4878 31.2404 35.5902 31.4086C37.2305 28.851 36.5494 26.664 34.8211 24.6206C34.506 24.2453 34.1538 23.8978 33.8017 23.5503C33.2808 23.0381 32.8149 22.4728 32.4117 21.8637C32.0669 21.3901 31.8866 20.8167 31.8983 20.231C31.91 19.6454 32.1131 19.0797 32.4765 18.6202C32.8529 18.0918 33.273 17.5958 33.7322 17.1375C33.8591 17.0354 33.9641 16.9087 34.0408 16.765C34.1176 16.6213 34.1645 16.4636 34.1788 16.3013C34.1931 16.139 34.1744 15.9756 34.1239 15.8207C34.0735 15.6658 33.9922 15.5227 33.8851 15.4C33.4218 14.8764 32.7036 14.881 32.0919 15.4509C31.2053 16.2567 30.4844 17.2278 29.9698 18.3098C29.6678 18.9306 29.5109 19.6119 29.5109 20.3022C29.5109 20.9925 29.6678 21.6738 29.9698 22.2946C30.5223 23.4445 31.2881 24.4791 32.2263 25.3434C32.8812 25.939 33.431 26.6408 33.8527 27.4192C34.056 27.7714 34.1631 28.1709 34.1631 28.5776C34.1631 28.9843 34.056 29.3838 33.8527 29.736C33.58 30.2092 33.2701 30.6601 32.926 31.0843C32.8243 31.2157 32.6936 31.3217 32.5441 31.394C32.3945 31.4664 32.2303 31.5031 32.0641 31.5013C30.5004 31.5903 28.9548 31.1297 27.6948 30.1993C26.6792 29.4822 25.4624 29.1057 24.2193 29.124C22.9762 29.1424 21.771 29.5545 20.777 30.3012C19.5098 31.2174 18.4411 32.3806 17.6355 33.7207C14.9882 38.021 13.4222 42.8987 13.0715 47.9363C12.8846 49.5191 13.0653 51.1237 13.5997 52.6253C14.3921 54.6687 16.0138 55.4054 18.0988 54.7243C18.9065 54.4407 19.6671 54.0377 20.3554 53.5289C21.5583 52.6201 22.6806 51.6093 23.71 50.5078C24.5001 49.6964 25.4456 49.0525 26.4901 48.6147C27.5346 48.1768 28.6566 47.954 29.7891 47.9594C31.9483 47.9594 34.1075 47.9594 36.276 47.9594C38.1597 47.9594 39.9901 48.5853 41.4794 49.7387C42.4061 50.4337 43.1057 51.3419 43.9583 52.1064C45.163 53.186 46.4048 54.2007 47.9662 54.7289C50.0328 55.424 51.6081 54.6919 52.4144 52.6763C52.8012 51.6822 52.9992 50.6247 52.9982 49.558C53.0492 45.3369 52.0159 41.3428 50.3988 37.4831ZM25.8414 40.8239C25.0398 40.7729 24.7571 40.9953 24.8174 41.834C24.8776 42.6726 24.3911 43.1823 23.6683 43.173C22.9455 43.1638 22.4868 42.6865 22.5424 41.783C22.5933 41.0092 22.3848 40.7405 21.574 40.8007C20.7631 40.8609 20.2071 40.4022 20.1839 39.6887C20.1607 38.9751 20.6473 38.4747 21.5091 38.5257C22.3709 38.5766 22.5979 38.3542 22.5377 37.5156C22.4775 36.6769 22.9594 36.1672 23.6822 36.1765C23.8462 36.1682 24.01 36.1972 24.1612 36.2611C24.3125 36.3251 24.4473 36.4225 24.5556 36.5459C24.6639 36.6694 24.7428 36.8157 24.7866 36.974C24.8303 37.1323 24.8377 37.2984 24.8081 37.46C24.7479 38.3079 24.9796 38.5998 25.8553 38.5303C26.0163 38.4972 26.1827 38.5011 26.342 38.5417C26.5012 38.5824 26.6492 38.6587 26.7746 38.7649C26.9 38.8712 26.9996 39.0045 27.0659 39.1549C27.1322 39.3053 27.1635 39.4688 27.1573 39.6331C27.1758 40.3837 26.6939 40.8748 25.8414 40.8239ZM35.2983 40.8239C34.5477 40.8239 33.7971 40.8239 33.0464 40.8239C32.2958 40.8239 31.5452 40.8239 30.7946 40.8239C30.6331 40.8407 30.4699 40.8225 30.3161 40.7705C30.1623 40.7186 30.0214 40.6341 29.9032 40.5229C29.7849 40.4117 29.692 40.2763 29.6307 40.1259C29.5695 39.9756 29.5413 39.8138 29.5482 39.6516C29.5472 39.4949 29.5795 39.3397 29.6427 39.1963C29.706 39.0528 29.7989 38.9244 29.9153 38.8194C30.0316 38.7144 30.1689 38.6352 30.3181 38.587C30.4672 38.5387 30.6248 38.5226 30.7807 38.5396C32.2819 38.5149 33.7832 38.5149 35.2844 38.5396C35.4466 38.5208 35.611 38.538 35.7658 38.5899C35.9206 38.6419 36.0621 38.7273 36.1802 38.84C36.2983 38.9528 36.3901 39.0902 36.4491 39.2425C36.5081 39.3948 36.5328 39.5582 36.5215 39.7211C36.4984 40.393 36.0628 40.81 35.2891 40.8378L35.2983 40.8239ZM40.1032 40.8239C39.8778 40.8307 39.6553 40.771 39.4635 40.6522C39.2718 40.5334 39.1192 40.3608 39.0249 40.156C38.9305 39.9511 38.8985 39.7229 38.9329 39.5C38.9673 39.2771 39.0666 39.0692 39.2183 38.9023C39.3701 38.7354 39.5675 38.6169 39.7862 38.5614C40.0048 38.506 40.235 38.5161 40.4479 38.5906C40.6608 38.6651 40.8471 38.8005 40.9836 38.9801C41.12 39.1597 41.2006 39.3755 41.2153 39.6006C41.2308 39.757 41.2134 39.9148 41.1641 40.064C41.1147 40.2131 41.0346 40.3502 40.9289 40.4664C40.8232 40.5826 40.6942 40.6753 40.5504 40.7385C40.4066 40.8017 40.2511 40.8339 40.094 40.8331L40.1032 40.8239ZM42.42 43.1638C42.1942 43.1681 41.9721 43.1057 41.7816 42.9846C41.591 42.8634 41.4404 42.6888 41.3485 42.4825C41.2566 42.2762 41.2275 42.0474 41.2649 41.8247C41.3023 41.602 41.4044 41.3952 41.5586 41.2303C41.7128 41.0653 41.9122 40.9494 42.1319 40.8971C42.3516 40.8447 42.5818 40.8583 42.7938 40.936C43.0058 41.0138 43.1902 41.1523 43.324 41.3342C43.4578 41.5162 43.535 41.7335 43.5459 41.9591C43.5581 42.1142 43.538 42.2701 43.4868 42.417C43.4357 42.564 43.3547 42.6987 43.2489 42.8128C43.1432 42.9268 43.0149 43.0177 42.8722 43.0797C42.7295 43.1418 42.5756 43.1735 42.42 43.173V43.1638ZM42.3829 38.484C42.157 38.4812 41.937 38.4119 41.7503 38.2848C41.5636 38.1577 41.4185 37.9784 41.3331 37.7693C41.2477 37.5601 41.2259 37.3305 41.2703 37.109C41.3147 36.8875 41.4234 36.6841 41.5828 36.524C41.7422 36.364 41.9452 36.2545 42.1665 36.2092C42.3878 36.1639 42.6176 36.1848 42.827 36.2694C43.0365 36.3539 43.2164 36.4983 43.3442 36.6845C43.4721 36.8707 43.5423 37.0905 43.5459 37.3163C43.5538 37.4718 43.5291 37.6271 43.4736 37.7725C43.4181 37.9179 43.333 38.0502 43.2236 38.1609C43.1142 38.2716 42.983 38.3583 42.8382 38.4155C42.6935 38.4728 42.5384 38.4992 42.3829 38.4932V38.484ZM45.8858 39.7489C45.8712 39.9731 45.7909 40.188 45.6549 40.3668C45.519 40.5457 45.3334 40.6805 45.1213 40.7546C44.9092 40.8288 44.68 40.8388 44.4623 40.7836C44.2445 40.7283 44.0479 40.6102 43.8968 40.4439C43.7457 40.2777 43.6469 40.0706 43.6127 39.8486C43.5785 39.6266 43.6103 39.3994 43.7043 39.1954C43.7983 38.9913 43.9503 38.8195 44.1413 38.7012C44.3323 38.5829 44.5539 38.5235 44.7784 38.5303C44.9326 38.5317 45.0849 38.5649 45.2257 38.6278C45.3665 38.6907 45.4928 38.7819 45.5968 38.8959C45.7007 39.0098 45.78 39.144 45.8297 39.2899C45.8795 39.4359 45.8986 39.5906 45.8858 39.7443V39.7489Z" fill="#FEFAE0"/>
</svg>
