<svg width="55" height="55" viewBox="0 0 55 55" fill="none" xmlns="http://www.w3.org/2000/svg">
<path d="M31.3572 46.2004C18.9312 49.6639 5.69265 41.5714 3.03345 29.0223C2.36691 25.9925 2.32453 22.8588 2.90891 19.8121C3.49328 16.7654 4.69215 13.8696 6.4324 11.3015C8.17266 8.73337 10.4178 6.54665 13.0309 4.87471C15.6441 3.20276 18.5704 2.08064 21.6314 1.57679C33.7127 -0.524299 45.8925 8.14272 47.8951 20.3061C48.0592 21.291 48.1331 22.2923 48.2726 23.2854C48.3629 23.9502 48.1905 24.2538 47.4519 24.2128C46.309 24.1554 45.164 24.1554 44.0212 24.2128C43.34 24.2128 43.1184 24.0486 43.0773 23.3346C42.9536 19.3853 41.4392 15.6066 38.8013 12.665C33.8768 7.2317 27.7623 5.22908 20.745 7.19065C13.7277 9.15222 9.37776 13.8961 8.07278 21.0694C7.58381 23.636 7.67501 26.2794 8.33966 28.8062C9.00431 31.333 10.2256 33.6792 11.9141 35.673C13.6027 37.6669 15.7157 39.2579 18.0986 40.3296C20.4814 41.4013 23.0738 41.9265 25.6859 41.8669C26.1359 41.8406 26.586 41.9179 27.0015 42.093C27.417 42.268 27.7868 42.536 28.0824 42.8764C29.0345 43.9516 30.1589 45.0103 31.3572 46.2004Z" fill="#FF9A4E"/>
<path d="M35.1818 33.6268C35.1818 31.657 35.1818 29.6955 35.1818 27.7257C35.1818 26.8229 35.5757 26.4125 36.4621 26.4207H46.9594C47.9853 26.4207 48.3054 26.9788 48.2972 27.9309C48.2972 31.7473 48.2972 35.572 48.2972 39.4212C48.2972 40.324 48.5516 40.6359 49.4544 40.5292C50.0933 40.4717 50.7361 40.4717 51.375 40.5292C51.7443 40.5292 52.1957 40.3733 52.4337 40.8247C52.6717 41.2761 52.2121 41.6454 51.9495 41.9081C50.4557 43.5906 48.9374 45.2567 47.4272 46.9228C45.7857 48.7202 44.1442 50.5094 42.5028 52.3233C42.0349 52.8485 41.682 53.0044 41.1485 52.3807C38.0544 48.8679 34.9273 45.388 31.8249 41.8916C31.5459 41.588 31.1109 41.2925 31.3653 40.8001C31.6197 40.3076 32.0547 40.5456 32.4241 40.5292C33.0306 40.4842 33.6396 40.4842 34.2461 40.5292C35.0258 40.6113 35.231 40.283 35.2146 39.5525C35.2146 37.5828 35.2146 35.6212 35.2146 33.6596L35.1818 33.6268Z" fill="#BDC89C"/>
<path d="M23.9623 36.0397C24.1757 35.1697 23.8966 34.6198 22.6984 34.3982C21.1861 34.0874 19.7922 33.3563 18.6767 32.289C18.2253 31.8868 18.094 31.4682 18.529 31.0168L18.7178 30.7624C20.031 29.006 20.0228 29.0306 21.9022 30.1386C22.5598 30.6026 23.3051 30.9277 24.0924 31.0942C24.8798 31.2607 25.6929 31.2651 26.482 31.1071C26.9811 31.049 27.4494 30.8355 27.8205 30.4967C28.1916 30.158 28.4469 29.7111 28.5502 29.2194C28.6413 28.7191 28.5487 28.2028 28.2893 27.7654C28.0299 27.3281 27.6212 26.9992 27.1386 26.8392C26.1209 26.3304 25.0621 25.92 24.0198 25.4604C23.2729 25.1239 22.5178 24.812 21.8038 24.4098C19.8012 23.2936 18.4551 21.6932 18.5618 19.2802C18.5816 18.0832 18.9939 16.9257 19.7352 15.9857C20.4766 15.0456 21.5061 14.375 22.6655 14.0767C23.8474 13.6828 24.1593 13.1411 23.9869 12.0577C23.9705 11.7707 23.9705 11.483 23.9869 11.1959C23.9869 10.6625 24.2085 10.3752 24.7584 10.4244H25.0867C27.0565 10.3834 27.0811 10.3834 27.0401 12.3696C27.0401 13.1903 27.0975 13.6992 28.1645 13.8305C29.4413 14.0391 30.6317 14.6087 31.5952 15.472C31.9891 15.7921 32.1287 16.1204 31.7922 16.5554C31.7511 16.6128 31.7265 16.6785 31.6855 16.7441C31.2669 17.3925 31.1356 18.3856 30.4379 18.6647C29.7403 18.9437 29.1822 18.0573 28.5174 17.7619C27.8491 17.3861 27.1096 17.1541 26.3465 17.0806C25.5833 17.0071 24.8132 17.0938 24.0854 17.3351C23.6868 17.4394 23.3274 17.6583 23.0517 17.9646C22.7761 18.2709 22.5962 18.6512 22.5342 19.0586C22.4733 19.4669 22.5389 19.884 22.7224 20.2539C22.9058 20.6237 23.1982 20.9284 23.5602 21.1269C24.6582 21.7914 25.8215 22.3414 27.0319 22.7684C27.7787 23.1049 28.542 23.4085 29.2725 23.7697C30.2931 24.1829 31.1585 24.9054 31.7473 25.8357C32.3362 26.7661 32.6188 27.8575 32.5555 28.9568C32.5816 30.0579 32.2668 31.1401 31.6541 32.0554C31.0415 32.9707 30.1609 33.6744 29.133 34.0699C27.4915 34.7019 26.7528 35.4242 27.1057 37.1477C27.2206 37.6976 26.8759 37.9274 26.3507 37.9192H25.7105C23.9377 37.9028 23.9377 37.9028 23.9623 36.0397Z" fill="#FF9A4E"/>
</svg>
