<svg width="62" height="54" viewBox="0 0 62 54" fill="none" xmlns="http://www.w3.org/2000/svg">
<rect x="0.35" y="0.35" width="61.3" height="53.3" rx="10.65" stroke="#FEFAE0" stroke-width="0.7"/>
<path d="M24.1247 43.9955C22.2142 43.9955 20.363 43.9955 18.5075 43.9955C18.3721 44.0093 18.2355 43.9912 18.1073 43.9426C17.9792 43.8941 17.8627 43.8162 17.7661 43.7145C17.6695 43.6127 17.5951 43.4897 17.5483 43.3541C17.5015 43.2185 17.4833 43.0736 17.4951 42.9297C17.1562 36.9963 16.8187 31.0645 16.4827 25.1341C16.3979 23.6095 16.3175 22.0895 16.22 20.5694C16.1946 20.2366 16.2412 20.1197 16.5928 20.1197C22.4048 20.1197 28.2139 20.1197 34.0203 20.1197C34.2194 20.1197 34.4439 20.0522 34.4058 20.43C34.3507 21.0461 34.321 21.6622 34.3168 22.2828C34.3168 22.6831 34.1685 22.7775 33.7958 22.782C32.4649 22.7243 31.1319 22.7589 29.8053 22.8855C26.0987 23.4521 23.1207 27.1849 23.252 31.1514C23.2662 31.6734 23.4085 32.1823 23.6649 32.628C23.9212 33.0736 24.2826 33.4405 24.7135 33.6924C24.9676 33.8588 25.0651 33.9262 24.9041 34.268C24.6328 34.8175 24.4911 35.4286 24.4911 36.0489C24.4911 36.6693 24.6328 37.2804 24.9041 37.8298C25.0015 38.0322 25.1329 38.1761 24.8279 38.3425C23.3028 39.17 22.8877 40.8475 23.557 42.7453C23.6968 43.1501 23.9086 43.5278 24.1247 43.9955Z" fill="#292A2C"/>
<path d="M36.0748 32.0554H26.3317C25.4209 32.0554 25.099 31.7001 25.1244 30.7287C25.1964 27.6211 27.8186 24.8058 30.7585 24.7743C34.2999 24.7324 37.8399 24.7324 41.3784 24.7743C44.2929 24.8103 46.8854 27.6031 46.9871 30.6927C47.0167 31.7046 46.7033 32.0419 45.7544 32.0419L36.0748 32.0554Z" fill="#FEFAE0"/>
<path d="M45.7332 40.0155C46.7626 40.0155 47.1692 40.5596 46.9362 41.6165C46.8041 42.2924 46.4554 42.8988 45.9495 43.3326C45.4436 43.7663 44.8118 44.0006 44.1616 43.9955C38.7506 43.9955 33.3425 43.9955 27.9372 43.9955C27.2766 43.9968 26.6364 43.7524 26.1279 43.3046C25.6195 42.8568 25.2749 42.234 25.154 41.5445C24.9677 40.5551 25.3743 40.02 26.3274 40.02L45.7332 40.0155Z" fill="#FEFAE0"/>
<path d="M36.0579 34.0477H43.6829C44.9114 34.0477 45.7374 34.8347 45.7501 36.004C45.7628 37.1732 44.9283 38.0187 43.6575 38.0187H28.4074C27.1832 38.0187 26.3529 37.2272 26.3402 36.0579C26.3275 34.8887 27.1577 34.0387 28.4116 34.0387L36.0579 34.0477Z" fill="#FEFAE0"/>
<path d="M27.0434 16.1351H34.4227C35.1979 16.1351 35.6258 16.5039 35.6173 17.147C35.6088 17.7901 35.1937 18.1229 34.4524 18.1229H16.1523C15.4279 18.1229 15.0043 17.7496 15 17.1335C14.9958 16.5174 15.4236 16.1351 16.1395 16.1351C18.8676 16.1351 21.5957 16.1351 24.3238 16.1351C24.4753 16.146 24.6265 16.1092 24.7584 16.0291C24.8903 15.9491 24.997 15.8295 25.0651 15.6854C26.0267 14.0889 27.0307 12.5373 27.9711 10.9093C28.1154 10.6082 28.3427 10.3608 28.6227 10.2002C28.9027 10.0395 29.2221 9.97312 29.5384 10.0099C30.5763 10.0728 31.6184 10.0099 32.6605 10.0099C33.3256 10.0099 33.7449 10.4056 33.7407 11.0038C33.7365 11.6019 33.3171 11.9887 32.6562 11.9977C31.7624 11.9977 30.8686 11.9977 29.9705 11.9977C29.7757 11.9977 29.585 11.9572 29.4368 12.209C28.67 13.5132 27.8821 14.7724 27.0434 16.1351Z" fill="#292A2C"/>
</svg>
