<svg width="46" height="45" viewBox="0 0 46 45" fill="none" xmlns="http://www.w3.org/2000/svg">
<path d="M15.4116 37.7949C15.9219 36.8499 14.5106 36.0498 14.9076 34.9977C14.958 34.8528 14.9076 34.6638 15.0084 34.5441C15.3189 34.1622 15.4884 33.6849 15.4884 33.1927C15.4884 32.7005 15.3189 32.2232 15.0084 31.8413C14.9616 31.7778 14.9295 31.7048 14.9143 31.6275C14.899 31.5502 14.901 31.4705 14.9201 31.394C15.4872 30.1844 14.9202 28.9811 14.958 27.7903C15.1281 23.6007 17.1252 20.4066 20.9872 18.6929C22.3858 18.0629 22.9591 17.3951 22.8772 15.9272C22.8394 15.4168 22.8331 15.2215 22.2472 15.2215C15.7455 15.2215 9.24792 15.2215 2.75458 15.2215C2.27577 15.2215 2.12457 15.316 2.16867 15.8516C2.34507 17.603 2.45218 19.3545 2.59079 21.1059C3.1536 28.3972 3.7143 35.6844 4.27291 42.9674C4.39892 44.555 4.85253 44.9645 6.47796 44.9645C9.55243 44.9645 12.6269 44.9645 15.7014 44.9645C16.1241 45.037 16.5584 44.998 16.9614 44.8511C15.8225 43.7466 15.1144 42.2724 14.9642 40.693C14.8125 39.704 14.9686 38.6922 15.4116 37.7949Z" fill="#FF9A4E"/>
<path d="M16.5141 27.5194C16.4763 28.7794 16.596 28.8802 17.8245 28.8802H30.9162C35.3263 28.8802 39.7364 28.8802 44.1906 28.8802C44.997 28.8802 45.4506 28.666 45.4191 27.7714C45.3372 23.3298 41.5067 19.3355 37.1155 19.2662C32.9995 19.2032 28.8876 19.2032 24.7799 19.2662C20.5021 19.3418 16.6338 23.2605 16.5141 27.5194ZM32.1762 23.229C32.7433 23.229 33.304 23.2983 33.3229 24.0165C33.3418 24.7347 32.7496 24.8733 32.2392 24.8733C31.6092 24.8733 31.0233 24.8103 30.9792 24.0795C30.9351 23.3487 31.5777 23.229 32.1762 23.229ZM27.3881 20.8349C27.974 20.8349 28.5411 20.9546 28.5222 21.6476C28.5033 22.3407 27.8921 22.4856 27.3125 22.4415C26.7329 22.3974 26.147 22.3281 26.1596 21.6413C26.1722 20.9546 26.7959 20.8538 27.3881 20.8538V20.8349ZM24.9185 24.0669C25.517 24.0669 26.1344 24.1047 26.1029 24.8985C26.0714 25.6924 25.5107 25.6861 24.9122 25.642C24.2822 25.7113 23.7277 25.5537 23.7466 24.8166C23.7655 24.0795 24.3452 24.0732 24.9185 24.0858V24.0669Z" fill="#FEFAE0"/>
<path d="M44.0205 38.5068H17.8623C16.6905 38.5068 16.5204 38.6895 16.5204 39.8803C16.5204 42.8917 18.4545 44.9204 21.4849 44.9582C27.8228 45.0002 34.1629 45.0002 40.505 44.9582C43.4724 44.9582 45.3876 42.9106 45.4506 39.9181C45.4506 38.7336 45.2364 38.5068 44.0205 38.5068Z" fill="#FEFAE0"/>
<path d="M16.5582 35.7914C16.8669 36.6798 17.5851 36.9633 18.4923 36.957C22.6315 36.957 26.777 36.957 30.9162 36.957H43.2456C43.5276 36.973 43.8104 36.9603 44.0898 36.9192C44.4808 36.8501 44.8323 36.6387 45.0766 36.3257C45.3209 36.0128 45.4407 35.6205 45.4128 35.2244C45.3938 34.8297 45.226 34.4569 44.9431 34.181C44.6602 33.9052 44.2832 33.7467 43.8882 33.7376C42.0675 33.599 40.3097 33.6305 39.0056 35.2055C38.9407 35.2744 38.8665 35.3338 38.7851 35.3819C37.5251 36.3584 36.706 36.4278 35.5594 35.3315C34.9595 34.7478 34.2413 34.2994 33.4534 34.0168C32.6654 33.7343 31.826 33.624 30.9918 33.6935C26.7581 33.8195 22.5244 33.6935 18.2844 33.7376C16.9992 33.7376 16.1865 34.7015 16.5582 35.7914Z" fill="#FEFAE0"/>
<path d="M23.3371 13.6275C24.1057 13.6275 24.5216 13.3881 24.5531 12.5754C24.5972 11.5044 24.3073 11.1831 23.1922 11.1831H1.77175C0.681822 11.1831 0.436114 11.4098 0.429814 12.3927C0.423514 13.3755 0.650336 13.6149 1.72766 13.6149H12.4379C16.0668 13.6149 19.702 13.6023 23.3371 13.6275Z" fill="#FF9A4E"/>
<path d="M18.0387 32.087C22.5244 32.087 27.0101 32.15 31.4958 32.087C32.3047 32.028 33.117 32.1339 33.8837 32.3981C34.6505 32.6624 35.3556 33.0795 35.9563 33.6243C37.1407 34.7079 37.2164 34.689 38.426 33.6243C38.9761 33.0655 39.6456 32.6386 40.3843 32.3757C41.123 32.1127 41.9117 32.0205 42.6912 32.1059C43.2834 32.1753 43.8819 32.1059 44.4804 32.1059C45.0789 32.1059 45.3624 31.9106 45.3813 31.3751C45.4002 30.8396 45.0348 30.5372 44.4867 30.5246H18.0261C17.745 30.5057 17.463 30.5057 17.1819 30.5246C17.087 30.5285 16.9938 30.5516 16.908 30.5924C16.8221 30.6333 16.7454 30.691 16.6825 30.7622C16.6195 30.8334 16.5716 30.9166 16.5416 31.0067C16.5116 31.0969 16.5001 31.1922 16.5078 31.2869C16.499 31.4773 16.5643 31.6638 16.6899 31.8071C16.8156 31.9504 16.992 32.0394 17.1819 32.0555C17.4665 32.0853 17.7527 32.0958 18.0387 32.087Z" fill="#FEFAE0"/>
<path d="M20.2375 7.97008H4.71393C3.2334 7.97008 3.1704 8.02048 2.62858 9.58291H22.3165C21.7999 8.03308 21.718 7.97008 20.2375 7.97008Z" fill="#FF9A4E"/>
<path d="M8.02781 1.61325C8.87833 1.82115 9.70365 2.11095 10.5479 2.31886C11.3921 2.52676 11.7512 2.87328 11.6504 3.749C11.5748 4.37902 11.6504 5.072 11.6504 5.72722C11.6189 6.25013 11.789 6.40763 12.3308 6.43914C13.0742 6.47694 13.4459 6.31317 13.3325 5.48785C13.301 5.01796 13.301 4.54647 13.3325 4.07658C13.3325 3.44657 13.3325 2.87958 13.3325 2.28737C13.3609 2.05049 13.3016 1.8114 13.1658 1.61525C13.03 1.41909 12.8271 1.27943 12.5954 1.22264C11.222 0.819432 9.83595 0.441426 8.45622 0.0445177C7.8262 -0.144486 7.76949 0.302808 7.61829 0.737518C7.46708 1.17223 7.4797 1.48094 8.02781 1.61325Z" fill="#FF9A4E"/>
</svg>
