<svg width="27" height="23" viewBox="0 0 27 23" fill="none" xmlns="http://www.w3.org/2000/svg">
<path d="M2.06585 19.8308H24.1615C24.4148 19.8308 24.6531 19.8957 24.5928 19.4706C24.2414 17.1307 23.1587 14.9547 21.4932 13.2414C19.8277 11.5281 17.6612 10.3616 15.2913 9.90198C14.86 9.82227 14.7815 9.7337 14.8419 9.31151C14.8778 9.07413 14.864 8.83208 14.8015 8.60005C14.7389 8.36803 14.6288 8.15087 14.4779 7.96175C14.327 7.77262 14.1385 7.61548 13.9236 7.49986C13.7088 7.38424 13.4722 7.31255 13.2283 7.28914C12.9853 7.25839 12.7384 7.27627 12.5027 7.34168C12.267 7.40709 12.0473 7.51868 11.8569 7.66968C11.6666 7.82069 11.5095 8.00796 11.3953 8.22014C11.2811 8.43233 11.2121 8.66501 11.1924 8.90408C11.1713 9.19932 11.3342 9.63922 11.1924 9.78979C10.9843 9.98169 10.5651 9.95808 10.2333 10.026L10.1881 10.0437C5.41065 11.3959 2.51223 14.4457 1.53502 19.2255C1.39628 19.8278 1.40835 19.8308 2.06585 19.8308ZM15.6894 12.0867C15.7165 11.9155 15.8854 11.9391 16.1629 11.9834C16.3951 12.072 16.7661 12.193 17.1129 12.3495C18.9681 13.1585 20.4803 14.5709 21.3927 16.347C21.4712 16.4887 21.6672 16.6806 21.4138 16.8076C21.1605 16.9345 21.1122 16.6629 21.0429 16.5123C20.5264 15.5327 19.8167 14.663 18.9547 13.9535C18.0928 13.2441 17.0957 12.7089 16.0211 12.379C15.8643 12.3229 15.6532 12.3111 15.6894 12.0867Z" fill="#FF9A4E"/>
<path d="M25.4192 20.2352H0.334628C0.0631835 20.2352 -0.01825 20.3474 0.0330229 20.6131C0.168611 21.3021 0.553366 21.9201 1.11674 22.354C1.68012 22.7878 2.38436 23.0083 3.10035 22.975H22.9008C24.4088 22.975 25.4312 22.2517 25.8987 20.8552C26.1129 20.2559 26.0887 20.2352 25.4192 20.2352Z" fill="#5F6F52"/>
<path d="M17.5262 5.5561C17.4046 5.87449 17.3636 6.21696 17.4066 6.55424C17.4497 6.89151 17.5756 7.21356 17.7735 7.49285C17.8459 7.60209 17.9273 7.7379 18.0932 7.65524C18.2591 7.57257 18.2289 7.44266 18.1414 7.31866C17.6317 6.60419 17.7916 5.88087 18.1233 5.16049C18.3153 4.79476 18.4185 4.39065 18.4249 3.97955C18.4506 3.75297 18.4087 3.52397 18.3044 3.32018C18.2 3.11639 18.0376 2.94652 17.8368 2.83107C17.7343 2.76612 17.5955 2.73956 17.5171 2.8547C17.5006 2.87845 17.4893 2.90535 17.4842 2.93364C17.479 2.96194 17.48 2.99098 17.4872 3.01887C17.4943 3.04675 17.5073 3.07285 17.5255 3.09544C17.5437 3.11803 17.5665 3.1366 17.5925 3.14993C18.1746 3.54555 18.057 4.08583 17.8941 4.62611C17.7885 4.95087 17.6317 5.24611 17.5262 5.5561Z" fill="#5F6F52"/>
<path d="M12.619 3.79354C12.5072 4.10611 12.4714 4.43988 12.5143 4.76837C12.5572 5.09687 12.6778 5.41105 12.8663 5.686C12.9417 5.79819 13.0292 5.96648 13.2222 5.83362C13.4153 5.70077 13.3067 5.60629 13.2222 5.4941C12.7638 4.82982 12.8663 4.15373 13.171 3.47174C13.3881 3.06645 13.5088 2.61831 13.5238 2.16089C13.5454 1.94191 13.5039 1.7214 13.4043 1.52422C13.3046 1.32704 13.1507 1.16103 12.9598 1.0449C12.8633 0.982897 12.7336 0.932707 12.6371 1.0449C12.6188 1.067 12.6055 1.09272 12.5982 1.1203C12.591 1.14788 12.5899 1.17668 12.595 1.20471C12.6002 1.23275 12.6115 1.25936 12.6281 1.28273C12.6447 1.3061 12.6663 1.32568 12.6914 1.34013C13.2946 1.77413 13.1559 2.33508 12.9568 2.89898C12.8513 3.21193 12.7155 3.49535 12.619 3.79354Z" fill="#5F6F52"/>
<path d="M7.52492 6.31189C7.50581 6.73291 7.62991 7.14825 7.8778 7.49283C7.9532 7.60502 8.04067 7.78806 8.23369 7.64635C8.42672 7.50464 8.32719 7.42198 8.23369 7.30388C7.77525 6.64256 7.87478 5.96351 8.17639 5.27856C8.41188 4.83857 8.53502 4.3493 8.5353 3.85258C8.52857 3.65369 8.4716 3.45953 8.3695 3.28746C8.2674 3.11539 8.12333 2.97076 7.95018 2.86649C7.90653 2.82622 7.84881 2.80378 7.78882 2.80378C7.72884 2.80378 7.67112 2.82622 7.62747 2.86649C7.60689 2.8813 7.59016 2.90065 7.57863 2.92296C7.56711 2.94527 7.5611 2.96992 7.5611 2.99492C7.5611 3.01992 7.56711 3.04457 7.57863 3.06688C7.59016 3.08919 7.60689 3.10853 7.62747 3.12334C8.40259 3.67544 8.08591 4.3338 7.82954 4.98923C7.6314 5.40334 7.52747 5.85462 7.52492 6.31189Z" fill="#5F6F52"/>
</svg>
