<svg width="66" height="70" viewBox="0 0 66 70" fill="none" xmlns="http://www.w3.org/2000/svg">
<rect x="1" y="0.5" width="64" height="69" rx="10.5" stroke="#FF9A4E"/>
<path d="M16.1497 47.3414H50.143C50.5327 47.3414 50.8993 47.4435 50.8065 46.7753C50.266 43.0978 48.6002 39.6779 46.0379 36.9852C43.4757 34.2925 40.1426 32.4591 36.4965 31.7368C35.8329 31.6115 35.7123 31.4723 35.8051 30.8088C35.8603 30.4357 35.8392 30.0553 35.7429 29.6906C35.6467 29.3259 35.4773 28.9846 35.2452 28.6874C35.013 28.3902 34.7229 28.1432 34.3924 27.9615C34.062 27.7798 33.698 27.6671 33.3226 27.6303C32.9488 27.582 32.569 27.6101 32.2064 27.7129C31.8437 27.8157 31.5057 27.991 31.2129 28.2284C30.92 28.4657 30.6784 28.76 30.5027 29.0935C30.3269 29.427 30.2208 29.7927 30.1906 30.1684C30.1581 30.6324 30.4087 31.3238 30.1906 31.5604C29.8704 31.8621 29.2254 31.8249 28.715 31.9317L28.6454 31.9595C21.2955 34.0847 16.8364 38.8779 15.333 46.3902C15.1196 47.3367 15.1381 47.3414 16.1497 47.3414ZM37.109 35.1704C37.1507 34.9013 37.4106 34.9384 37.8374 35.008C38.1947 35.1472 38.7655 35.3375 39.2991 35.5834C42.1532 36.8549 44.4795 39.0746 45.8834 41.8661C46.004 42.0888 46.3056 42.3904 45.9158 42.5899C45.5261 42.7895 45.4518 42.3626 45.3451 42.1259C44.5506 40.5863 43.4587 39.2194 42.1326 38.1044C40.8065 36.9894 39.2725 36.1483 37.6194 35.6298C37.3781 35.5417 37.0533 35.5231 37.109 35.1704Z" fill="#FEFAE0"/>
<path d="M52.0779 47.977H13.4863C13.0687 47.977 12.9434 48.1533 13.0223 48.571C13.2309 49.6538 13.8228 50.6252 14.6895 51.307C15.5563 51.9888 16.6397 52.3353 17.7412 52.283H48.2034C50.5234 52.283 52.0964 51.1462 52.8156 48.9514C53.1451 48.0095 53.108 47.977 52.0779 47.977Z" fill="#FF9A4E"/>
<path d="M39.9348 24.9066C39.7477 25.407 39.6846 25.9452 39.7509 26.4753C39.8172 27.0054 40.0108 27.5115 40.3153 27.9505C40.4266 28.1221 40.5519 28.3356 40.8071 28.2057C41.0623 28.0757 41.0159 27.8716 40.8813 27.6767C40.0972 26.5538 40.3431 25.417 40.8535 24.2848C41.1488 23.71 41.3075 23.0749 41.3175 22.4288C41.357 22.0727 41.2926 21.7127 41.132 21.3925C40.9715 21.0722 40.7216 20.8052 40.4127 20.6238C40.2549 20.5217 40.0415 20.4799 39.9208 20.6609C39.8954 20.6982 39.8781 20.7405 39.8702 20.785C39.8622 20.8294 39.8638 20.8751 39.8748 20.9189C39.8857 20.9627 39.9058 21.0038 39.9338 21.0393C39.9617 21.0748 39.9968 21.1039 40.0368 21.1249C40.9324 21.7467 40.7514 22.5958 40.5009 23.4449C40.3385 23.9553 40.0972 24.4194 39.9348 24.9066Z" fill="#FF9A4E"/>
<path d="M32.3853 22.1364C32.2134 22.6277 32.1582 23.1522 32.2242 23.6685C32.2903 24.1848 32.4757 24.6786 32.7658 25.1107C32.8818 25.287 33.0164 25.5515 33.3134 25.3427C33.6103 25.1339 33.4433 24.9854 33.3134 24.8091C32.6081 23.7651 32.7658 22.7025 33.2345 21.6307C33.5686 20.9937 33.7542 20.2894 33.7774 19.5705C33.8105 19.2263 33.7468 18.8797 33.5934 18.5698C33.4401 18.2599 33.2033 17.999 32.9097 17.8165C32.7612 17.7191 32.5617 17.6402 32.4132 17.8165C32.3849 17.8512 32.3645 17.8917 32.3534 17.935C32.3422 17.9784 32.3405 18.0236 32.3485 18.0677C32.3564 18.1117 32.3737 18.1536 32.3993 18.1903C32.4249 18.227 32.4581 18.2578 32.4967 18.2805C33.4247 18.9626 33.2113 19.8442 32.905 20.7305C32.7426 21.2223 32.5338 21.6678 32.3853 22.1364Z" fill="#FF9A4E"/>
<path d="M24.5483 26.0944C24.5188 26.7561 24.7098 27.4089 25.0911 27.9504C25.2071 28.1267 25.3417 28.4144 25.6387 28.1917C25.9356 27.969 25.7825 27.8391 25.6387 27.6535C24.9334 26.6141 25.0865 25.5469 25.5505 24.4704C25.9128 23.7788 26.1023 23.0099 26.1027 22.2292C26.0923 21.9166 26.0047 21.6115 25.8476 21.341C25.6905 21.0706 25.4689 20.8433 25.2025 20.6794C25.1353 20.6161 25.0465 20.5809 24.9543 20.5809C24.862 20.5809 24.7732 20.6161 24.706 20.6794C24.6744 20.7027 24.6486 20.7331 24.6309 20.7682C24.6132 20.8032 24.6039 20.842 24.6039 20.8813C24.6039 20.9206 24.6132 20.9593 24.6309 20.9944C24.6486 21.0294 24.6744 21.0598 24.706 21.0831C25.8985 21.9508 25.4113 22.9855 25.0169 24.0156C24.7121 24.6665 24.5522 25.3757 24.5483 26.0944Z" fill="#FF9A4E"/>
</svg>
