<svg width="63" height="54" viewBox="0 0 63 54" fill="none" xmlns="http://www.w3.org/2000/svg">
<rect x="0.85" y="0.35" width="61.3" height="53.3" rx="10.65" stroke="#FEFAE0" stroke-width="0.7"/>
<path d="M17.0064 32.3684C21.8226 32.3392 26.6389 32.3684 31.4551 32.3684H46.1929C46.5114 32.3684 46.8593 32.4901 46.7858 31.8816C46.3474 28.676 44.9032 25.6893 42.6585 23.3462C40.4138 21.003 37.4827 19.4226 34.2822 18.8296C33.7922 18.7468 33.6501 18.7128 33.7677 18.1529C33.8203 17.8459 33.8089 17.5315 33.7342 17.2291C33.6594 16.9267 33.523 16.6427 33.3333 16.3949C33.1435 16.147 32.9046 15.9405 32.6313 15.7882C32.3579 15.6359 32.056 15.541 31.7442 15.5094C31.1274 15.4545 30.5133 15.6411 30.0329 16.0294C29.5524 16.4177 29.2435 16.977 29.1719 17.5882C29.1278 17.9874 29.51 18.4694 29.1719 18.7128C28.8339 18.9562 28.3488 18.8978 27.9275 18.9805C27.8785 18.9805 27.8344 19.0146 27.7903 19.0243C21.3915 20.8548 17.5404 24.9929 16.2616 31.5067C16.1245 32.2808 16.3106 32.3733 17.0064 32.3684ZM19.9461 29.5886C21.6511 25.3694 24.7411 22.7859 29.216 21.8382C29.6129 21.7506 30.0245 21.7117 30.4262 21.6532C30.9799 21.6143 31.4355 21.7603 31.4796 22.3689C31.5237 22.9774 31.1171 23.1186 30.5928 23.177C28.7619 23.3213 26.9993 23.9314 25.4745 24.9486C23.9496 25.9658 22.7139 27.3558 21.8863 28.9849C21.6932 29.3412 21.5293 29.7124 21.3964 30.0949C21.2102 30.6304 20.877 30.9322 20.3136 30.718C19.7501 30.5038 19.7403 30.0754 19.9412 29.5886H19.9461Z" fill="#292A2C"/>
<path d="M49.9019 34.3108C49.6471 33.824 49.2012 33.8921 48.7652 33.8921H14.0813C13.0426 33.8921 12.7242 34.4179 13.2484 35.304C13.7744 36.2791 14.5607 37.0914 15.521 37.6514C16.4814 38.2113 17.5785 38.4974 18.6918 38.4781C27.217 38.5073 35.7438 38.5073 44.2723 38.4781C45.3494 38.4953 46.4118 38.2281 47.3509 37.7038C48.29 37.1795 49.0723 36.4169 49.6177 35.4938C49.8627 35.1433 50.1566 34.783 49.9019 34.3108Z" fill="#FEFAE0"/>
</svg>
