<svg width="66" height="70" viewBox="0 0 66 70" fill="none" xmlns="http://www.w3.org/2000/svg">
<rect x="1" y="0.5" width="64" height="69" rx="10.5" stroke="#FF9A4E"/>
<path d="M17.4672 32.9265V19.0164H41.9164L42.4784 22.7068L41.0733 33.7781L17.4672 32.9265Z" fill="#FF9A4E"/>
<path d="M43.5747 26.3826C45.4984 26.1479 47.2687 25.2045 48.5465 23.7331C49.8243 22.2617 50.5198 20.3657 50.4996 18.4085C50.4794 16.4513 49.745 14.5704 48.4371 13.1262C47.1292 11.682 45.3398 10.776 43.4117 10.5819C39.7808 10.0141 35.9814 12.4555 34.8741 16.1573C34.7055 16.725 34.4976 16.9067 33.9186 16.901C30.7037 16.8708 27.4869 16.8708 24.2682 16.901C24.1568 16.9206 24.0426 16.9177 23.9322 16.8926C23.8218 16.8675 23.7174 16.8207 23.625 16.7547C23.5326 16.6888 23.454 16.6051 23.3936 16.5084C23.3333 16.4118 23.2924 16.304 23.2734 16.1913C22.835 14.7379 22.3573 13.2958 21.8683 11.8593C21.5029 10.7806 20.6599 10.298 19.7774 10.6103C18.895 10.9225 18.5241 11.7855 18.8725 12.8813C19.1873 13.8749 19.4852 14.8798 19.8617 15.8507C20.1596 16.6285 20.1428 17.0259 19.1479 16.901C18.5198 16.8416 17.8876 16.8416 17.2594 16.901C15.9611 16.9805 15.3597 17.8095 15.6351 19.1039C15.6969 19.3821 15.7475 19.6717 15.8206 19.9385C16.829 23.6615 16.8697 27.5843 15.9386 31.3278C14.7021 36.4376 16.1129 40.9797 19.755 44.7212C21.786 46.8522 24.4731 48.2234 27.3764 48.6104C27.9384 48.6842 28.2419 48.8375 28.2194 49.5358C28.1632 51.54 28.1745 53.5499 28.2194 55.5541C28.2194 56.1673 28.0396 56.2978 27.4775 56.2808C26.2804 56.2354 25.0776 56.2808 23.8804 56.2808C22.5933 56.2808 21.8851 56.8883 21.902 57.933C21.9189 58.9777 22.5989 59.5 23.8523 59.5H35.7509C36.9762 59.5 37.6619 58.9322 37.6563 57.8876C37.6507 56.8429 36.9256 56.2922 35.7172 56.2808C34.5088 56.2695 33.2554 56.2808 32.0301 56.2808C31.4681 56.2808 31.3501 56.1048 31.3557 55.5825C31.3838 53.5726 31.395 51.5627 31.3557 49.5585C31.3557 48.9226 31.5355 48.6955 32.165 48.5934C34.0705 48.2706 35.8904 47.5576 37.513 46.4982C39.1356 45.4388 40.5266 44.0554 41.6005 42.433C42.6744 40.8106 43.4085 38.9835 43.7576 37.064C44.1068 35.1444 44.0637 33.1731 43.6309 31.271C43.2992 29.9125 43.0681 28.5309 42.9396 27.1377C42.9002 26.6267 43.0295 26.4564 43.5747 26.3826ZM24.212 30.4932C22.4753 30.8111 20.8397 31.5606 18.9568 32.0943C20.1207 28.2141 20.1733 24.0804 19.1086 20.1713C19.1929 20.1295 19.2815 20.0971 19.3728 20.0748C21.205 20.001 21.205 20.001 21.7896 21.7781C22.6776 24.4522 23.5544 27.1264 24.4425 29.7948C24.5661 30.1469 24.7291 30.4194 24.212 30.4932ZM40.3035 20.6993C39.6009 23.6151 39.528 26.6494 40.09 29.5961C40.1405 29.8914 40.1462 30.1241 39.7583 30.2547C38.1565 30.7941 36.5771 31.4357 34.9641 31.958C33.519 32.3536 31.9815 32.2126 30.6306 31.5606C30.2806 31.3465 29.9021 31.184 29.5065 31.078C28.1857 30.9304 27.7923 30.0219 27.4494 28.9035C26.5614 26.0022 25.5778 23.1294 24.5942 20.1259C29.737 20.1259 34.7786 20.1259 39.8258 20.1259C40.3429 20.0862 40.3991 20.2735 40.3035 20.6993Z" fill="#FEFAE0"/>
</svg>
