<svg width="66" height="70" viewBox="0 0 66 70" fill="none" xmlns="http://www.w3.org/2000/svg">
<rect x="1" y="0.5" width="64" height="69" rx="10.5" stroke="#FF9A4E"/>
<path d="M38.6827 34.0345C38.4001 33.5436 38.2195 33.5714 37.8582 33.9604C36.3159 35.5398 34.7458 37.1007 33.171 38.6476C32.8698 38.9259 32.686 39.3085 32.6569 39.7175C32.5156 40.6803 32.0211 41.5561 31.2697 42.1744C30.5182 42.7927 29.5636 43.1092 28.5916 43.0624C27.6196 43.0156 26.6998 42.6088 26.0113 41.9212C25.3227 41.2335 24.9147 40.3143 24.8665 39.3424C24.814 38.3462 25.1525 37.3689 25.8101 36.6188C26.4676 35.8687 27.3921 35.4051 28.3866 35.3267C28.6947 35.316 28.9868 35.1866 29.2017 34.9655C30.8274 33.3213 32.4439 31.677 34.1113 30.0606C34.4679 29.7086 34.3799 29.5604 34.0094 29.3288C33.1085 28.7644 32.1235 28.3469 31.0914 28.0922C29.3175 27.6522 27.8169 28.0042 26.6034 29.4353C26.0311 30.0379 25.5391 30.712 25.1398 31.4408C23.9773 33.8817 21.9672 34.9423 19.3781 35.3592C14.5102 36.1373 11.421 40.3937 13.8433 45.2014C16.0202 49.5134 19.2854 52.8296 23.8939 54.6035C25.1689 55.0778 26.5647 55.1184 27.8651 54.719C29.1655 54.3196 30.2979 53.5025 31.0868 52.3943C31.9893 51.0593 32.5841 49.5407 32.8283 47.9479C33.2451 45.6969 34.2178 43.8582 36.4688 42.8809C37.3494 42.4311 38.148 41.8361 38.8309 41.1209C39.2303 40.7739 39.5476 40.3425 39.7598 39.8579C39.9721 39.3733 40.074 38.8476 40.0583 38.3188C39.9948 36.7927 39.5195 35.3123 38.6827 34.0345ZM24.9129 48.5454C24.5331 48.9206 24.2089 48.6704 23.9124 48.374C22.4674 46.9197 21.0192 45.4669 19.568 44.0157C19.3596 43.8072 19.165 43.5942 19.2901 43.27C19.3401 43.161 19.4177 43.067 19.5152 42.9971C19.6126 42.9273 19.7266 42.884 19.8459 42.8717C20.0724 42.9024 20.2808 43.0123 20.4341 43.182L24.7785 47.545C25.0935 47.8506 25.2834 48.1888 24.9129 48.5454Z" fill="#FEFAE0"/>
<path d="M45.3846 21.5291C45.0002 21.0428 44.7408 21.066 44.3101 21.5291C39.8699 26.0064 35.4112 30.4697 30.934 34.9192C30.6875 35.1281 30.4258 35.3185 30.1512 35.4888C31.1677 35.9167 31.9918 36.7029 32.467 37.6981C36.8115 33.3398 41.1004 29.0416 45.3892 24.7296C45.8987 24.2201 46.7787 23.7106 46.7787 23.1595C46.8297 22.5296 45.8431 22.1081 45.3846 21.5291Z" fill="#FF9A4E"/>
<path d="M52.5775 19.7784C53.2445 18.514 53.138 17.8841 52.1422 16.8883C51.6466 16.3927 51.1556 15.8925 50.6554 15.4015C50.2247 14.98 48.8028 14.8457 48.372 15.2579C48.0756 15.5312 47.9089 15.4895 47.7004 15.2301C47.6687 15.18 47.6263 15.1375 47.5763 15.1056C47.5263 15.0738 47.4698 15.0533 47.411 15.0458C47.3521 15.0383 47.2923 15.0439 47.2359 15.0621C47.1795 15.0804 47.1277 15.1108 47.0844 15.1514C47.0366 15.1862 46.9977 15.2318 46.9708 15.2846C46.944 15.3373 46.93 15.3956 46.93 15.4548C46.93 15.5139 46.944 15.5723 46.9708 15.625C46.9977 15.6777 47.0366 15.7233 47.0844 15.7581C47.4364 16.0499 47.4086 16.2722 47.0844 16.5548C46.7602 16.8373 46.5703 17.1847 46.1581 16.6706C46.1238 16.6305 46.0811 16.5983 46.0332 16.5762C45.9852 16.5541 45.933 16.5427 45.8802 16.5427C45.8274 16.5427 45.7752 16.5541 45.7273 16.5762C45.6793 16.5983 45.6367 16.6305 45.6023 16.6706C45.5568 16.7079 45.52 16.7549 45.4948 16.8082C45.4696 16.8615 45.4566 16.9197 45.4566 16.9786C45.4566 17.0375 45.4696 17.0957 45.4948 17.1489C45.52 17.2022 45.5568 17.2492 45.6023 17.2866C45.7088 17.3977 45.8107 17.5182 45.9126 17.6293C45.7922 17.9165 45.4495 18.0323 45.4495 18.4121C45.4495 19.2921 45.3754 20.1443 46.26 20.7557C46.7625 21.1659 47.2275 21.62 47.6495 22.1127C48.159 22.6222 49.5021 22.7658 50.044 22.3119C50.3127 22.0896 50.4516 22.0849 50.66 22.3397C50.8685 22.5944 51.0954 22.6685 51.327 22.4091C51.372 22.3611 51.4056 22.3036 51.4252 22.2407C51.4448 22.1779 51.4499 22.1114 51.4401 22.0463C51.4303 21.9812 51.4058 21.9192 51.3686 21.8649C51.3313 21.8107 51.2823 21.7655 51.2251 21.7329C50.8129 21.3902 51.1695 21.2096 51.3733 21.0058C51.5771 20.802 51.7809 20.399 52.1514 20.8483C52.1865 20.9042 52.2342 20.951 52.2907 20.9851C52.3472 21.0191 52.4109 21.0395 52.4767 21.0444C52.5425 21.0494 52.6085 21.0388 52.6694 21.0136C52.7304 20.9884 52.7846 20.9492 52.8276 20.8992C53.087 20.6399 52.8832 20.4361 52.7165 20.2323C52.61 20.098 52.4432 20.0331 52.5775 19.7784Z" fill="#FF9A4E"/>
<path d="M26.1263 39.0274C26.0956 39.5621 26.2246 40.0938 26.4969 40.5549C26.7691 41.0161 27.1723 41.3859 27.6553 41.6173C28.1382 41.8488 28.6791 41.9313 29.2091 41.8546C29.7391 41.7779 30.2343 41.5452 30.6318 41.1863C31.0292 40.8274 31.311 40.3585 31.4413 39.839C31.5715 39.3196 31.5444 38.7731 31.3633 38.2691C31.1822 37.7652 30.8553 37.3264 30.4243 37.0087C29.9932 36.6909 29.4774 36.5085 28.9424 36.4847C28.2354 36.4626 27.5473 36.715 27.0223 37.189C26.4974 37.663 26.1763 38.3219 26.1263 39.0274Z" fill="#FF9A4E"/>
</svg>
