<svg width="27" height="26" viewBox="0 0 27 26" fill="none" xmlns="http://www.w3.org/2000/svg">
<path d="M16.7128 12.3722C16.5291 12.0529 16.4117 12.071 16.1769 12.324C15.1744 13.351 14.1538 14.366 13.1302 15.3719C12.9344 15.5529 12.8149 15.8017 12.7961 16.0677C12.7042 16.6938 12.3828 17.2633 11.8943 17.6653C11.4059 18.0674 10.7854 18.2732 10.1536 18.2428C9.52181 18.2123 8.92394 17.9478 8.47638 17.5007C8.02881 17.0535 7.76358 16.4557 7.7323 15.8237C7.69811 15.176 7.91818 14.5404 8.34558 14.0527C8.77299 13.5649 9.37393 13.2634 10.0203 13.2125C10.2206 13.2055 10.4105 13.1213 10.5502 12.9775C11.6069 11.9083 12.6576 10.8391 13.7414 9.788C13.9732 9.5591 13.916 9.46272 13.6751 9.31213C13.0896 8.9451 12.4493 8.67365 11.7785 8.50797C10.6254 8.22184 9.65002 8.45074 8.86126 9.3814C8.48925 9.77324 8.16948 10.2116 7.90992 10.6855C7.15427 12.2728 5.84769 12.9625 4.16479 13.2335C1.0007 13.7395 -1.00734 16.5074 0.567182 19.6337C1.98214 22.4377 4.10458 24.5942 7.10008 25.7477C7.92883 26.0561 8.83611 26.0825 9.68136 25.8228C10.5266 25.5631 11.2627 25.0317 11.7755 24.3111C12.3621 23.443 12.7487 22.4554 12.9074 21.4197C13.1784 19.956 13.8106 18.7603 15.2737 18.1248C15.8462 17.8323 16.3652 17.4454 16.8091 16.9803C17.0687 16.7546 17.275 16.4741 17.4129 16.159C17.5509 15.8438 17.6172 15.502 17.6069 15.1581C17.5657 14.1657 17.2567 13.2031 16.7128 12.3722ZM7.7624 21.8082C7.51554 22.0522 7.3048 21.8896 7.11212 21.6968C6.17283 20.7511 5.23153 19.8064 4.28823 18.8627C4.15275 18.7271 4.02631 18.5886 4.10759 18.3777C4.14013 18.3069 4.19056 18.2458 4.25391 18.2003C4.31725 18.1549 4.39134 18.1268 4.46886 18.1187C4.61613 18.1387 4.75157 18.2102 4.8512 18.3205L7.6751 21.1577C7.87982 21.3565 8.00325 21.5763 7.7624 21.8082Z" fill="#FF9A4E"/>
<path d="M21.069 4.24019C20.8192 3.92395 20.6506 3.93901 20.3706 4.24019C17.4845 7.15163 14.5863 10.054 11.6761 12.9474C11.5159 13.0833 11.3458 13.2071 11.1673 13.3179C11.8281 13.5961 12.3637 14.1073 12.6726 14.7545C15.4965 11.9204 18.2843 9.12539 21.0721 6.32137C21.4032 5.99007 21.9752 5.65877 21.9752 5.30036C22.0083 4.89075 21.3671 4.61667 21.069 4.24019Z" fill="#5F6F52"/>
<path d="M25.7444 3.10172C26.178 2.27949 26.1087 1.86988 25.4614 1.22233C25.1393 0.900065 24.8202 0.57479 24.4951 0.255535C24.2151 -0.0185419 23.2908 -0.105884 23.0109 0.162169C22.8182 0.339867 22.7098 0.312757 22.5743 0.144094C22.5537 0.11149 22.5262 0.0838423 22.4936 0.0631225C22.4611 0.0424027 22.4244 0.0291247 22.3862 0.0242337C22.3479 0.0193427 22.3091 0.0229624 22.2724 0.0348314C22.2357 0.0467004 22.2021 0.0665242 22.1739 0.0928934C22.1428 0.115527 22.1175 0.1452 22.1001 0.179486C22.0826 0.213771 22.0735 0.251695 22.0735 0.290168C22.0735 0.328641 22.0826 0.36657 22.1001 0.400856C22.1175 0.435141 22.1428 0.464809 22.1739 0.487443C22.4027 0.677189 22.3847 0.821757 22.1739 1.00548C21.9632 1.1892 21.8398 1.41509 21.5718 1.08078C21.5495 1.0547 21.5218 1.03376 21.4906 1.01941C21.4594 1.00505 21.4255 0.997621 21.3912 0.997621C21.3569 0.997621 21.3229 1.00505 21.2918 1.01941C21.2606 1.03376 21.2329 1.0547 21.2105 1.08078C21.1809 1.10507 21.1571 1.13564 21.1407 1.17027C21.1243 1.20491 21.1158 1.24275 21.1158 1.28106C21.1158 1.31938 21.1243 1.35722 21.1407 1.39185C21.1571 1.42649 21.1809 1.45705 21.2105 1.48135C21.2798 1.55363 21.346 1.63194 21.4123 1.70423C21.334 1.89096 21.1112 1.96626 21.1112 2.21323C21.1112 2.78548 21.063 3.33965 21.638 3.73722C21.9647 4.00398 22.2669 4.2993 22.5412 4.61968C22.8724 4.95098 23.7454 5.04435 24.0977 4.74919C24.2723 4.60463 24.3626 4.60161 24.4981 4.76726C24.6335 4.93291 24.7811 4.9811 24.9316 4.81244C24.9609 4.78123 24.9827 4.74378 24.9954 4.70292C25.0082 4.66205 25.0115 4.61883 25.0051 4.57651C24.9987 4.53418 24.9828 4.49385 24.9586 4.45855C24.9344 4.42325 24.9025 4.39391 24.8654 4.37271C24.5974 4.14984 24.8292 4.03237 24.9617 3.89985C25.0942 3.76733 25.2266 3.5053 25.4675 3.79745C25.4903 3.83378 25.5213 3.86424 25.558 3.88639C25.5947 3.90854 25.6361 3.92176 25.6789 3.92498C25.7216 3.92821 25.7646 3.92134 25.8042 3.90495C25.8438 3.88855 25.879 3.86308 25.907 3.83058C26.0756 3.66192 25.9431 3.5294 25.8348 3.39688C25.7655 3.30953 25.6571 3.26737 25.7444 3.10172Z" fill="#5F6F52"/>
<path d="M8.55116 15.6189C8.53121 15.9666 8.61504 16.3124 8.792 16.6122C8.96896 16.9121 9.23106 17.1526 9.54498 17.3031C9.85889 17.4536 10.2104 17.5073 10.5549 17.4574C10.8994 17.4075 11.2213 17.2562 11.4797 17.0228C11.738 16.7894 11.9212 16.4845 12.0059 16.1467C12.0905 15.8089 12.0729 15.4536 11.9552 15.1258C11.8375 14.7981 11.625 14.5128 11.3448 14.3062C11.0646 14.0995 10.7293 13.9809 10.3816 13.9654C9.92205 13.951 9.47479 14.1152 9.13356 14.4234C8.79233 14.7317 8.58361 15.1601 8.55116 15.6189Z" fill="#5F6F52"/>
</svg>
