<svg width="55" height="55" viewBox="0 0 55 55" fill="none" xmlns="http://www.w3.org/2000/svg">
<path d="M42.0334 45.1633C38.7779 45.7554 36.1897 43.9298 36.0432 40.6981C35.8398 36.093 35.8153 31.4715 36.0432 26.8582C36.1226 25.6658 36.6544 24.5505 37.5278 23.7446C38.4012 22.9387 39.5487 22.5046 40.7312 22.5327C41.9098 22.5178 43.0504 22.9536 43.9243 23.7528C44.7983 24.5519 45.3409 25.6553 45.4435 26.8418C45.6795 29.1936 45.5249 31.5619 45.533 33.922C45.533 37.4663 45.6226 41.0106 45.4191 44.5466C45.2571 46.495 44.3815 48.3124 42.9636 49.6431C41.5457 50.9738 39.6875 51.7223 37.7524 51.742C36.263 51.742 34.7736 51.742 33.2842 51.742C33.0655 51.7145 32.844 51.762 32.6551 51.8768C32.4662 51.9916 32.3209 52.1671 32.2425 52.3752C31.7727 53.3492 30.9824 54.128 30.0069 54.578C29.0314 55.0281 27.9314 55.1215 26.8953 54.8422C25.8561 54.5884 24.9322 53.9873 24.2733 53.1366C23.6145 52.2858 23.2593 51.2351 23.2654 50.1549C23.2731 49.0555 23.6501 47.9913 24.3348 47.1367C25.0194 46.2821 25.971 45.6878 27.0336 45.4512C28.0462 45.2222 29.1055 45.3404 30.0442 45.7871C30.9829 46.2338 31.7478 46.9836 32.218 47.9182C32.2966 48.1455 32.4505 48.3385 32.6537 48.4644C32.8569 48.5903 33.0969 48.6413 33.333 48.6089C34.7817 48.5596 36.2386 48.6089 37.6873 48.6089C38.6816 48.5812 39.6407 48.2314 40.4232 47.611C41.2058 46.9906 41.7702 46.1325 42.0334 45.1633Z" fill="#BDC89C"/>
<path d="M4.13934 24.1199C4.13265 20.878 4.77418 17.6681 6.0255 14.6828C7.27681 11.6976 9.11209 8.99849 11.4212 6.74754C13.7303 4.49659 16.4657 2.74015 19.4632 1.58364C22.4607 0.42712 25.6585 -0.105634 28.8648 0.0173172C42.8716 0.510717 52.1335 12.5661 51.8487 24.087C50.9588 23.5093 49.9874 23.0712 48.9675 22.7877C48.4792 22.689 48.6338 22.3025 48.6013 22.0229C48.0952 17.232 45.9914 12.7575 42.6356 9.33434C39.8701 6.55482 36.383 4.62223 32.5769 3.75968C28.7707 2.89712 24.8007 3.13978 21.1252 4.45964C17.4498 5.77951 14.2187 8.12275 11.805 11.2188C9.39129 14.3149 7.89345 18.0376 7.48435 21.9572C7.49447 22.1936 7.41648 22.4252 7.26581 22.6064C7.11513 22.7876 6.90272 22.9051 6.67048 22.9357C5.77 23.1925 4.91564 23.5922 4.13934 24.1199Z" fill="#FF9A4E"/>
<path d="M10.4469 33.4533C10.512 31.5866 10.2922 29.1854 10.5364 26.8006C10.6572 25.6346 11.2018 24.5553 12.0647 23.7715C12.9277 22.9877 14.0476 22.5551 15.208 22.5574C16.3884 22.5219 17.5373 22.9458 18.4173 23.7415C19.2973 24.5373 19.8412 25.6442 19.9366 26.8335C20.2133 31.0768 19.9936 35.3365 20.0424 39.5879C20.0453 40.0883 20.0154 40.5882 19.9529 41.0846C19.817 42.2509 19.2621 43.3263 18.3934 44.1067C17.5248 44.8871 16.4029 45.3181 15.2406 45.3181C14.0782 45.3181 12.9563 44.8871 12.0877 44.1067C11.2191 43.3263 10.6641 42.2509 10.5282 41.0846C10.5282 40.8379 10.4469 40.5912 10.4469 40.3445C10.4387 38.1982 10.4469 36.1177 10.4469 33.4533Z" fill="#BDC89C"/>
<path d="M7.3135 41.8C5.5474 41.1093 4.39169 39.9251 4.2045 38.1242C3.93183 35.3433 3.93183 32.542 4.2045 29.7611C4.31891 28.9165 4.67596 28.1243 5.23145 27.4826C5.78695 26.841 6.5165 26.378 7.32977 26.151L7.3135 41.8Z" fill="#FF9A4E"/>
<path d="M48.6746 41.7178V26.184C49.5024 26.39 50.248 26.8471 50.811 27.494C51.3741 28.1408 51.7277 28.9463 51.8243 29.8022C52.0586 32.5382 52.0586 35.2896 51.8243 38.0256C51.7351 38.8923 51.3855 39.7107 50.8224 40.3707C50.2594 41.0308 49.5099 41.5009 48.6746 41.7178Z" fill="#FF9A4E"/>
</svg>
