<svg width="65" height="70" viewBox="0 0 65 70" fill="none" xmlns="http://www.w3.org/2000/svg">
<rect x="0.5" y="0.5" width="64" height="69" rx="10.5" stroke="#FF9A4E"/>
<path d="M52.3072 46.922C52.0806 46.3486 51.6402 45.8857 51.0788 45.6307C50.5175 45.3758 49.8791 45.3487 49.2983 45.5553C48.7685 45.7089 48.705 45.5553 48.546 45.1685C47.4265 42.587 46.2999 40.0124 45.1663 37.445C45.0846 37.3215 45.0313 37.1814 45.0102 37.0349C44.9891 36.8883 45.0008 36.7389 45.0445 36.5974C45.8331 34.731 45.9821 32.6561 45.4683 30.6961C46.5542 31.5649 46.6072 32.582 46.7449 33.562C46.7919 34.1305 47.0535 34.6599 47.4766 35.0426C47.8996 35.4253 48.4524 35.6327 49.0228 35.6227C49.5913 35.5877 50.1266 35.3429 50.5249 34.9357C50.9233 34.5286 51.1563 33.9881 51.1788 33.419C51.3484 30.4206 48.8904 27.364 45.8814 26.9614C43.8843 26.6913 41.8236 27.025 39.8689 26.2569C39.2173 25.9973 38.8889 26.2887 38.9207 27.0886C38.9842 28.503 39.0902 29.9439 38.3909 31.2841C37.6281 32.7886 36.5369 33.8639 34.7675 33.8851C32.9982 33.9063 31.8222 32.8256 31.0594 31.2841C30.9055 30.9417 30.7797 30.5874 30.6833 30.2246C30.376 29.1651 30.519 28.1057 30.5243 27.0462C30.5243 26.4688 30.4555 26.1562 29.7774 26.2516C28.9987 26.3575 28.6438 25.9443 28.5484 25.1921C28.4844 24.5719 28.3584 23.9596 28.1723 23.3645C27.4624 21.2456 26.8532 19.0365 24.9621 17.5374C22.6047 15.6886 19.8342 15.1748 16.9471 15.09C16.8038 15.0622 16.6554 15.0787 16.5215 15.1372C16.3877 15.1956 16.2749 15.2934 16.1979 15.4175C16.1209 15.5416 16.0835 15.6861 16.0905 15.832C16.0975 15.9779 16.1487 16.1181 16.2373 16.2342C17.1325 17.9135 16.6929 19.312 15.5645 20.647C15.4231 20.8378 15.2974 21.0398 15.1884 21.2509C14.468 22.411 13.7051 23.5446 13.0694 24.7365C12.5277 25.6731 12.3647 26.7815 12.6139 27.8344C12.8631 28.8873 13.5056 29.805 14.4097 30.3994C16.2108 31.6814 18.335 31.4165 19.9402 29.7108C20.2664 29.3961 20.5692 29.0579 20.846 28.699C21.2115 28.1692 21.5717 28.3176 21.9479 28.6407C22.3072 28.9549 22.5669 29.3674 22.6948 29.8273C23.0482 30.9097 23.0088 32.082 22.5835 33.1382C20.9943 37.09 19.4369 41.0525 17.8954 45.0202C17.6517 45.6347 17.4928 45.8837 16.7458 45.55C16.4571 45.3918 16.1386 45.2958 15.8106 45.2679C15.4826 45.2401 15.1524 45.2811 14.8411 45.3883C14.5299 45.4956 14.2445 45.6667 14.0033 45.8906C13.7621 46.1146 13.5703 46.3865 13.4403 46.6889C13.295 47.0064 13.2149 47.3499 13.2047 47.6989C13.1945 48.0479 13.2544 48.3954 13.3808 48.7209C13.5073 49.0463 13.6977 49.3432 13.9408 49.5938C14.184 49.8444 14.4749 50.0437 14.7964 50.1799C16.8109 51.18 18.8904 52.0437 21.0208 52.765C31.4143 56.2931 41.4369 55.5408 51.0623 50.1746C51.6465 49.8946 52.1011 49.4013 52.3327 48.7963C52.5643 48.1913 52.5551 47.5205 52.3072 46.922ZM19.4634 23.8784C19.3073 23.8705 19.1545 23.8311 19.0141 23.7624C18.8737 23.6937 18.7487 23.5973 18.6467 23.4789C18.5447 23.3606 18.4677 23.2227 18.4205 23.0738C18.3733 22.9248 18.3569 22.7678 18.3721 22.6123C18.3663 22.4625 18.3912 22.3131 18.4454 22.1733C18.4995 22.0336 18.5818 21.9064 18.687 21.7996C18.7923 21.6929 18.9183 21.6089 19.0573 21.5528C19.1963 21.4966 19.3453 21.4696 19.4952 21.4733C19.6521 21.4732 19.8074 21.5048 19.9517 21.5664C20.096 21.628 20.2264 21.7182 20.3348 21.8316C20.4433 21.9451 20.5276 22.0793 20.5827 22.2262C20.6378 22.3731 20.6625 22.5297 20.6553 22.6864C20.6527 22.9972 20.5299 23.2949 20.3126 23.5171C20.0954 23.7393 19.8005 23.8688 19.4899 23.8784H19.4634ZM44.3611 47.6265C39.9342 49.1679 35.2319 49.7582 30.5614 49.3588C27.758 49.1144 24.9921 48.5473 22.3187 47.6689L21.5188 47.3882C22.7743 45.0626 24.0191 42.7741 25.2269 40.5016C25.2835 40.3842 25.3765 40.2884 25.492 40.2282C25.6075 40.1681 25.7394 40.1469 25.8679 40.1678C30.678 40.1678 35.488 40.1678 40.298 40.1678C40.455 40.1532 40.6125 40.1889 40.7478 40.2699C40.883 40.3509 40.989 40.4728 41.0502 40.6181C42.2263 42.737 43.4111 44.856 44.6048 46.975C44.8432 47.3193 44.8273 47.4782 44.3929 47.6265H44.3611Z" fill="#FEFAE0"/>
<path d="M32.4155 30.8179C32.9187 31.782 33.6233 32.5184 34.8152 32.4919C36.0071 32.4654 36.6216 31.7185 37.109 30.7861C37.2657 30.5021 37.3749 30.1943 37.4321 29.875C37.5795 28.7029 37.6026 27.5186 37.501 26.3416C36.6004 26.1138 35.684 26.294 34.7781 26.2357C34.01 26.2357 33.2366 26.2357 32.4685 26.2357C32.2513 26.2357 31.9387 26.1403 31.9387 26.5323C32.0341 27.952 31.7003 29.4353 32.4155 30.8179Z" fill="#FF9A4E"/>
</svg>
