<svg width="44" height="46" viewBox="0 0 44 46" fill="none" xmlns="http://www.w3.org/2000/svg">
<path d="M43.3506 24.2515C43.2314 23.2997 42.8216 22.4077 42.177 21.6973C41.5324 20.9869 40.6844 20.4925 39.7486 20.2816C38.8854 20.1045 38.0035 20.0355 37.1232 20.0764H5.9299C4.73397 20.0764 4.24568 20.5434 4.25983 21.7323C4.25983 23.4235 4.36599 25.1148 4.45091 26.8061C4.52892 29.3134 5.16905 31.7711 6.32405 33.9978C7.47905 36.2245 9.11943 38.1634 11.1241 39.6712C11.5209 40.0045 12.0212 40.1896 12.5394 40.1949C18.0025 40.1949 23.4679 40.1949 28.9357 40.1949C29.4296 40.2166 29.9123 40.0438 30.2802 39.7137C32.2487 38.1052 33.9494 36.1943 35.3187 34.0525C35.3977 33.8834 35.5209 33.7389 35.6754 33.6342C35.8299 33.5295 36.0099 33.4687 36.1962 33.4581C41.1427 32.9486 44.037 29.1838 43.3506 24.2515ZM36.7623 30.6204C37.2027 28.2267 37.3806 25.7921 37.2931 23.3599C37.2931 23.1476 37.2931 22.9494 37.5266 22.8362C38.5244 22.3762 40.3572 23.1546 40.5624 24.2515C41.1215 26.891 40.3926 29.7075 36.7623 30.6062V30.6204Z" fill="#FF9A4E"/>
<path d="M39.8477 42.9265C33.4788 42.8911 27.1665 42.9265 20.8331 42.9265H17.6628C12.2704 42.9265 6.87815 42.9265 1.49292 42.9265C0.898492 42.9265 0.523424 42.9265 0.55173 43.7333C0.608342 45.2547 0.905561 45.5944 2.54731 45.5944H38.9985C39.315 45.6111 39.6324 45.5993 39.9468 45.559C40.7959 45.4104 41.1356 44.6886 41.0365 43.436C40.9658 42.4453 40.244 42.9265 39.8477 42.9265Z" fill="#FF9A4E"/>
<path d="M16.0706 16.899C15.9007 17.1467 15.6389 17.4722 15.9786 17.734C16.131 17.824 16.3085 17.8623 16.4845 17.8431C16.6605 17.824 16.8256 17.7485 16.9551 17.6279C18.7101 16.4532 20.09 13.1838 19.7433 11.1174C19.4343 9.674 18.8531 8.30265 18.0308 7.07676C16.389 4.33815 16.4527 3.82864 18.6323 1.55C18.7095 1.4797 18.7762 1.39868 18.8304 1.3094C19.0993 0.8565 18.887 0.672511 18.2006 0.601746C18.1228 0.601746 17.8751 0.757424 17.6486 0.906031C16.4386 1.65266 15.5658 2.84008 15.2143 4.21784C14.719 6.03651 15.3275 7.62872 16.1767 9.17141C17.6486 11.7897 17.7902 14.3373 16.0706 16.899Z" fill="#FEFAE0"/>
<path d="M23.968 16.7434C23.7698 17.0193 23.2603 17.3378 23.6495 17.7128C24.0387 18.0879 24.5199 17.8473 24.895 17.5501C25.5026 17.0982 25.9971 16.5115 26.3397 15.8361C26.6823 15.1608 26.8636 14.4152 26.8693 13.658C26.9259 11.9809 26.0272 10.6646 25.2488 9.29178C24.4704 7.91894 24.5412 7.16882 25.7866 6.10026C26.0626 5.85966 26.3811 5.64029 26.1475 5.23693C25.914 4.83356 25.4399 4.98219 25.1285 5.16618C24.5409 5.48881 24.0429 5.95279 23.6797 6.5162C23.3164 7.07961 23.0993 7.72468 23.048 8.39307C23.0308 9.55473 23.3477 10.6969 23.9609 11.6837C24.8101 13.3396 25.1568 15.0238 23.968 16.7434Z" fill="#FEFAE0"/>
</svg>
