<svg width="63" height="54" viewBox="0 0 63 54" fill="none" xmlns="http://www.w3.org/2000/svg">
<rect x="0.85" y="0.35" width="61.3" height="53.3" rx="10.65" stroke="#FEFAE0" stroke-width="0.7"/>
<path d="M44.0431 41.9598C42.1294 41.9598 40.2157 41.9598 38.302 41.9598H37.8088C37.8306 41.9 37.8645 41.8462 37.908 41.8022C37.9515 41.7582 38.0035 41.7251 38.0603 41.7053C41.9074 40.0401 44.339 37.0544 45.2268 32.69C45.6904 30.4309 45.4191 28.1187 45.4389 25.8331C45.4389 25.1702 44.8963 24.7724 44.1516 24.7724H24.1417C23.7965 24.7724 23.3526 24.7725 23.2145 25.0906C22.8889 25.8861 22.228 25.8596 21.6115 26.0399C20.8874 26.2451 20.1982 26.5727 19.5696 27.0104C18.8032 27.5241 18.2026 28.2793 17.8496 29.1732C17.4966 30.0671 17.4083 31.0561 17.5967 32.0059C18.2034 34.9438 21.0493 37.0597 23.9444 36.6938C24.2108 36.662 24.4377 36.5665 24.6152 36.9006C26.0149 39.1927 28.0364 40.9664 30.4056 41.981H24.0332C23.101 41.981 22.5881 42.4424 22.5881 43.2272C22.5881 44.0121 23.1257 44.5 24.0283 44.5H44.0233C44.9062 44.5 45.4487 43.9697 45.429 43.1954C45.4093 42.4212 44.9161 41.9598 44.0431 41.9598ZM19.8458 31.2104C19.7373 29.7467 20.8963 28.596 22.7656 28.3574C22.7311 30.3036 22.7657 32.2445 23.3772 34.1165C21.6954 34.2544 19.9691 32.8066 19.8458 31.2104Z" fill="#292A2C"/>
<path d="M34.7311 20.1482C34.735 20.4647 34.8547 20.7668 35.0642 20.9891C35.2738 21.2114 35.5563 21.3361 35.8507 21.336C36.0018 21.3417 36.1524 21.3151 36.2939 21.2578C36.4354 21.2005 36.5649 21.1136 36.675 21.0022C36.785 20.8907 36.8735 20.7569 36.9352 20.6085C36.9969 20.4601 37.0306 20.3001 37.0344 20.1376C37.0798 19.5266 37.0029 18.9123 36.8089 18.336C36.615 17.7597 36.3084 17.2348 35.9099 16.7966C35.5942 16.4042 35.2638 16.0276 34.953 15.6299C34.6384 15.2797 34.4502 14.8204 34.4222 14.3344C34.3942 13.8484 34.5282 13.3677 34.8001 12.9784C35.1207 12.4481 35.4808 11.9708 35.7866 11.4458C35.9507 11.2026 36.0199 10.9001 35.9794 10.6028C35.9388 10.3055 35.7917 10.0371 35.5696 9.85483C35.4793 9.74595 35.3691 9.65827 35.2459 9.59726C35.1227 9.53625 34.9891 9.50321 34.8535 9.50022C34.7178 9.49724 34.5831 9.52437 34.4576 9.57991C34.3322 9.63545 34.2188 9.7182 34.1244 9.82301C33.0246 11.0586 32.1812 12.4746 32.0578 14.1344C32.1072 15.8049 32.847 16.9981 33.7989 18.0693C34.0852 18.3224 34.3169 18.6394 34.4779 18.9984C34.6389 19.3574 34.7253 19.7497 34.7311 20.1482Z" fill="#FEFAE0"/>
<path d="M30.6818 20.5088C31.114 20.8876 31.4415 21.3864 31.6288 21.9512C31.6633 22.1103 31.7284 22.2598 31.8201 22.3901C31.9117 22.5203 32.0278 22.6284 32.1608 22.7074C32.2937 22.7864 32.4406 22.8345 32.592 22.8486C32.7433 22.8626 32.8958 22.8424 33.0394 22.7891C33.1859 22.7471 33.323 22.6737 33.4426 22.5735C33.5622 22.4732 33.6618 22.3481 33.7354 22.2055C33.8091 22.063 33.8553 21.906 33.8712 21.7439C33.8872 21.5817 33.8727 21.4178 33.8285 21.2618C33.6471 20.3943 33.2197 19.6086 32.6053 19.0133C32.0283 18.414 31.4463 17.8201 30.8889 17.2102C30.575 16.9204 30.3482 16.5368 30.2376 16.1081C30.1269 15.6794 30.1373 15.225 30.2675 14.8026C30.3038 14.6428 30.3104 14.4769 30.287 14.3143C30.2636 14.1517 30.2107 13.9957 30.1312 13.8551C30.0518 13.7145 29.9473 13.5921 29.8239 13.4949C29.7004 13.3977 29.5604 13.3276 29.4117 13.2886C29.2631 13.2496 29.1087 13.2425 28.9575 13.2676C28.8063 13.2927 28.6612 13.3496 28.5304 13.4351C28.3997 13.5205 28.2859 13.6328 28.1955 13.7655C28.1051 13.8983 28.0399 14.0489 28.0036 14.2087C27.792 14.8908 27.7417 15.6187 27.8571 16.327C27.9724 17.0352 28.2499 17.7014 28.6645 18.2656C29.2611 19.0881 29.9373 19.84 30.6818 20.5088Z" fill="#FEFAE0"/>
</svg>
