<svg width="25" height="25" viewBox="0 0 25 25" fill="none" xmlns="http://www.w3.org/2000/svg">
<circle cx="12.5" cy="12.5" r="12.5" fill="#FF9A4E"/>
<path d="M10.8975 19.2308H14.7436C17.9487 19.2308 19.2308 17.9487 19.2308 14.7436V10.8974C19.2308 7.69231 17.9487 6.41026 14.7436 6.41026H10.8975C7.69233 6.41026 6.41028 7.69231 6.41028 10.8974V14.7436C6.41028 17.9487 7.69233 19.2308 10.8975 19.2308Z" stroke="white" stroke-width="1.5" stroke-linecap="round" stroke-linejoin="round"/>
<path d="M12.8205 15.0641C14.0596 15.0641 15.0641 14.0596 15.0641 12.8205C15.0641 11.5814 14.0596 10.5769 12.8205 10.5769C11.5814 10.5769 10.5769 11.5814 10.5769 12.8205C10.5769 14.0596 11.5814 15.0641 12.8205 15.0641Z" stroke="white" stroke-width="1.5" stroke-linecap="round" stroke-linejoin="round"/>
<path d="M16.4334 9.61538H16.4408" stroke="white" stroke-width="2" stroke-linecap="round" stroke-linejoin="round"/>
</svg>
