<svg width="20" height="21" viewBox="0 0 20 21" fill="none" xmlns="http://www.w3.org/2000/svg">
<path d="M19.9356 6.19825C19.9244 5.3165 19.7669 4.44352 19.4702 3.61836C19.213 2.92234 18.82 2.29023 18.3165 1.76242C17.813 1.2346 17.21 0.822689 16.546 0.552999C15.7689 0.247228 14.948 0.081892 14.1182 0.0640316C13.0498 0.0139706 12.711 0 9.99889 0C7.28676 0 6.93914 7.48297e-08 5.8785 0.0640316C5.04904 0.0820233 4.22851 0.247357 3.4518 0.552999C2.78771 0.822501 2.18461 1.23435 1.68107 1.76218C1.17753 2.29002 0.784639 2.92223 0.527543 3.61836C0.235263 4.4323 0.07788 5.29262 0.0621946 6.16216C0.014438 7.28329 0 7.63838 0 10.4814C0 13.3244 -6.77326e-09 13.6876 0.0621946 14.8006C0.0788538 15.6714 0.235451 16.5306 0.527543 17.3467C0.785071 18.0426 1.17825 18.6746 1.68196 19.2022C2.18567 19.7298 2.78883 20.1415 3.45291 20.4109C4.22749 20.729 5.04817 20.9061 5.87961 20.9348C6.94914 20.9849 7.28787 21 10 21C12.7121 21 13.0598 21 14.1204 20.9348C14.9502 20.9177 15.7712 20.7527 16.5482 20.447C17.212 20.177 17.8149 19.765 18.3183 19.2372C18.8218 18.7094 19.2149 18.0775 19.4725 17.3816C19.7646 16.5667 19.9211 15.7075 19.9378 14.8355C19.9856 13.7155 20 13.3605 20 10.5163C19.9978 7.6733 19.9978 7.3124 19.9356 6.19825ZM9.99223 15.8577C7.15571 15.8577 4.85784 13.4489 4.85784 10.4756C4.85784 7.50216 7.15571 5.09341 9.99223 5.09341C11.354 5.09341 12.6599 5.66046 13.6228 6.66981C14.5857 7.67915 15.1266 9.04812 15.1266 10.4756C15.1266 11.903 14.5857 13.272 13.6228 14.2813C12.6599 15.2906 11.354 15.8577 9.99223 15.8577ZM15.331 6.14935C15.1737 6.1495 15.018 6.11715 14.8726 6.05413C14.7273 5.99112 14.5953 5.89868 14.4841 5.78211C14.3729 5.66554 14.2847 5.52713 14.2246 5.37479C14.1644 5.22246 14.1336 5.05919 14.1337 4.89433C14.1337 4.7296 14.1647 4.56648 14.2248 4.41428C14.285 4.26209 14.3731 4.1238 14.4842 4.00732C14.5953 3.89083 14.7273 3.79843 14.8725 3.73539C15.0176 3.67235 15.1733 3.6399 15.3304 3.6399C15.4876 3.6399 15.6432 3.67235 15.7884 3.73539C15.9336 3.79843 16.0655 3.89083 16.1766 4.00732C16.2877 4.1238 16.3759 4.26209 16.436 4.41428C16.4961 4.56648 16.5271 4.7296 16.5271 4.89433C16.5271 5.5882 15.9918 6.14935 15.331 6.14935Z" fill="#C4661F"/>
<path d="M9.99223 13.9717C11.8342 13.9717 13.3274 12.4064 13.3274 10.4756C13.3274 8.5447 11.8342 6.97943 9.99223 6.97943C8.15026 6.97943 6.65704 8.5447 6.65704 10.4756C6.65704 12.4064 8.15026 13.9717 9.99223 13.9717Z" fill="#C4661F"/>
</svg>
