<svg width="33" height="32" viewBox="0 0 33 32" fill="none" xmlns="http://www.w3.org/2000/svg">
<circle cx="16.5557" cy="16" r="16" fill="#581C00"/>
<path d="M25.3875 12.1761C25.3776 11.3923 25.2376 10.6163 24.9739 9.88283C24.7452 9.26414 24.3959 8.70226 23.9483 8.2331C23.5007 7.76393 22.9647 7.39778 22.3745 7.15806C21.6838 6.88626 20.9541 6.7393 20.2165 6.72342C19.2668 6.67892 18.9657 6.6665 16.5549 6.6665C14.1441 6.6665 13.8351 6.6665 12.8923 6.72342C12.155 6.73941 11.4257 6.88638 10.7353 7.15806C10.145 7.39762 9.60887 7.7637 9.16127 8.23289C8.71368 8.70208 8.36445 9.26404 8.13592 9.88283C7.87612 10.6063 7.73622 11.3711 7.72228 12.144C7.67983 13.1405 7.66699 13.4562 7.66699 15.9833C7.66699 18.5104 7.66699 18.8333 7.72228 19.8226C7.73708 20.5967 7.87628 21.3604 8.13592 22.0858C8.36483 22.7044 8.71433 23.2661 9.16207 23.7351C9.60981 24.2041 10.146 24.57 10.7362 24.8095C11.4248 25.0923 12.1543 25.2497 12.8933 25.2752C13.844 25.3197 14.1451 25.3332 16.5559 25.3332C18.9667 25.3332 19.2757 25.3332 20.2185 25.2752C20.9561 25.26 21.6858 25.1134 22.3765 24.8416C22.9666 24.6016 23.5024 24.2354 23.95 23.7662C24.3975 23.2971 24.7469 22.7354 24.9758 22.1168C25.2355 21.3925 25.3747 20.6287 25.3895 19.8536C25.4319 18.8581 25.4448 18.5425 25.4448 16.0143C25.4428 13.4872 25.4428 13.1664 25.3875 12.1761ZM16.549 20.7622C14.0276 20.7622 11.9851 18.6211 11.9851 15.9781C11.9851 13.3351 14.0276 11.194 16.549 11.194C17.7594 11.194 18.9202 11.698 19.7761 12.5952C20.632 13.4924 21.1129 14.7093 21.1129 15.9781C21.1129 17.2469 20.632 18.4638 19.7761 19.361C18.9202 20.2582 17.7594 20.7622 16.549 20.7622ZM21.2945 12.1326C21.1547 12.1327 21.0163 12.104 20.8871 12.048C20.7579 11.9919 20.6406 11.9098 20.5417 11.8062C20.4429 11.7025 20.3645 11.5795 20.311 11.4441C20.2576 11.3087 20.2302 11.1636 20.2303 11.017C20.2303 10.8706 20.2578 10.7256 20.3113 10.5903C20.3647 10.455 20.4431 10.3321 20.5419 10.2286C20.6406 10.125 20.7579 10.0429 20.887 9.98685C21.016 9.93081 21.1543 9.90197 21.294 9.90197C21.4337 9.90197 21.572 9.93081 21.7011 9.98685C21.8302 10.0429 21.9474 10.125 22.0462 10.2286C22.145 10.3321 22.2233 10.455 22.2768 10.5903C22.3302 10.7256 22.3577 10.8706 22.3577 11.017C22.3577 11.6338 21.8819 12.1326 21.2945 12.1326Z" fill="#FEFAE0"/>
<path d="M16.549 19.0858C18.1863 19.0858 19.5136 17.6944 19.5136 15.9781C19.5136 14.2618 18.1863 12.8704 16.549 12.8704C14.9117 12.8704 13.5844 14.2618 13.5844 15.9781C13.5844 17.6944 14.9117 19.0858 16.549 19.0858Z" fill="#FEFAE0"/>
</svg>
