<svg width="36" height="36" viewBox="0 0 36 36" fill="none" xmlns="http://www.w3.org/2000/svg">
<path fill-rule="evenodd" clip-rule="evenodd" d="M18 36C27.9411 36 36 27.9411 36 18C36 8.05887 27.9411 0 18 0C8.05887 0 0 8.05887 0 18C0 27.9411 8.05887 36 18 36ZM27.4702 11.6184C27.7669 12.4435 27.9244 13.3165 27.9356 14.1982C27.9975 15.3073 27.9978 15.67 28 18.4773V18.4775L28 18.5163C28 21.3605 27.9856 21.7155 27.9378 22.8355C27.9211 23.7075 27.7646 24.5667 27.4725 25.3816C27.2149 26.0775 26.8218 26.7094 26.3183 27.2372C25.8149 27.765 25.212 28.177 24.5482 28.447C23.7712 28.7527 22.9502 28.9177 22.1204 28.9348C21.0598 29 20.7121 29 18 29C15.2879 29 14.9491 28.9849 13.8796 28.9348C13.0482 28.9061 12.2275 28.729 11.4529 28.4109C10.7888 28.1415 10.1857 27.7298 9.68196 27.2022C9.17825 26.6746 8.78507 26.0426 8.52754 25.3467C8.23545 24.5306 8.07885 23.6714 8.06219 22.8006C8 21.6876 8 21.3244 8 18.4814C8 15.6384 8.01444 15.2833 8.06219 14.1622C8.07788 13.2926 8.23526 12.4323 8.52754 11.6184C8.78464 10.9222 9.17753 10.29 9.68107 9.76219C10.1846 9.23435 10.7877 8.8225 11.4518 8.553C12.2285 8.24736 13.049 8.08202 13.8785 8.06403C14.9391 8 15.2868 8 17.9989 8C20.711 8 21.0498 8.01397 22.1182 8.06403C22.948 8.08189 23.7689 8.24723 24.546 8.553C25.21 8.82269 25.813 9.2346 26.3165 9.76242C26.82 10.2902 27.213 10.9223 27.4702 11.6184ZM12.8578 18.4756C12.8578 21.4489 15.1557 23.8577 17.9922 23.8577C19.354 23.8577 20.6599 23.2906 21.6228 22.2813C22.5857 21.272 23.1266 19.903 23.1266 18.4756C23.1266 17.0481 22.5857 15.6792 21.6228 14.6698C20.6599 13.6605 19.354 13.0934 17.9922 13.0934C15.1557 13.0934 12.8578 15.5022 12.8578 18.4756ZM22.8726 14.0541C23.018 14.1171 23.1737 14.1495 23.331 14.1494C23.9918 14.1494 24.5271 13.5882 24.5271 12.8943C24.5271 12.7296 24.4961 12.5665 24.436 12.4143C24.3759 12.2621 24.2877 12.1238 24.1766 12.0073C24.0655 11.8908 23.9336 11.7984 23.7884 11.7354C23.6432 11.6723 23.4876 11.6399 23.3304 11.6399C23.1733 11.6399 23.0176 11.6723 22.8725 11.7354C22.7273 11.7984 22.5953 11.8908 22.4842 12.0073C22.3731 12.1238 22.285 12.2621 22.2248 12.4143C22.1647 12.5665 22.1337 12.7296 22.1337 12.8943C22.1336 13.0592 22.1644 13.2225 22.2246 13.3748C22.2847 13.5271 22.3729 13.6655 22.4841 13.7821C22.5953 13.8987 22.7273 13.9911 22.8726 14.0541ZM21.3274 18.4756C21.3274 20.4064 19.8342 21.9717 17.9922 21.9717C16.1503 21.9717 14.657 20.4064 14.657 18.4756C14.657 16.5447 16.1503 14.9794 17.9922 14.9794C19.8342 14.9794 21.3274 16.5447 21.3274 18.4756Z" fill="#FF9A4E"/>
</svg>
