<svg width="17" height="29" viewBox="0 0 17 29" fill="none" xmlns="http://www.w3.org/2000/svg">
<path d="M11.1803 26.6024C10.9434 26.6024 10.7066 26.6024 10.4697 26.6024C9.82077 26.6024 9.82077 26.6024 9.8954 25.9177C9.95907 25.5731 9.95132 25.2191 9.87263 24.8776C9.79395 24.5362 9.64599 24.2145 9.43794 23.9325C9.22988 23.6505 8.96615 23.4142 8.66308 23.2383C8.36001 23.0624 8.02406 22.9506 7.67602 22.9098C6.32947 22.7216 5.08026 23.7242 4.84664 25.1812C4.61302 26.6381 4.61302 26.6024 3.17886 26.6024H2.89333C1.83231 26.6024 1.83555 26.6024 2.0205 25.59C2.2963 24.0552 2.57535 22.5204 2.8479 20.9823C2.89008 20.7487 2.99067 20.4924 2.61104 20.3885C2.55221 20.3739 2.49748 20.3461 2.45101 20.3072C2.40454 20.2682 2.36755 20.2192 2.34284 20.1639C2.31813 20.1085 2.30636 20.0483 2.30842 19.9877C2.31047 19.9271 2.3263 19.8678 2.35471 19.8142C2.40138 19.6935 2.49307 19.5956 2.61049 19.5411C2.7279 19.4866 2.86186 19.4798 2.98418 19.5222C3.82131 19.6747 4.66169 19.8207 5.50207 19.97L13.377 21.362C13.6463 21.4107 13.9415 21.4399 14.0259 21.7708C14.1103 22.1018 13.9448 22.3419 13.656 22.316C13.2342 22.2803 13.2245 22.5334 13.179 22.793C12.9908 23.8475 12.7637 24.8956 12.6372 25.9567C12.569 26.5148 12.3451 26.677 11.8357 26.6056C11.6176 26.5899 11.3986 26.5889 11.1803 26.6024Z" fill="#5F6F52"/>
<path d="M11.534 13.9378C11.5482 13.8792 11.5497 13.8183 11.5382 13.7591C11.5267 13.6999 11.5026 13.6439 11.4674 13.595C11.4323 13.546 11.387 13.5051 11.3347 13.4753C11.2823 13.4454 11.2241 13.4272 11.1641 13.4219C10.8396 13.37 10.6644 13.5647 10.6255 13.8891C10.6255 14.0319 10.5541 14.1714 10.5378 14.3175C10.5086 14.5965 10.3789 14.6841 10.0966 14.6257C9.60013 14.5219 9.0972 14.444 8.59427 14.3629C8.31847 14.3207 8.22762 14.1844 8.299 13.9054C8.34559 13.7108 8.36955 13.5116 8.37039 13.3116C8.37529 13.2568 8.36936 13.2016 8.35294 13.1492C8.33652 13.0967 8.30992 13.048 8.27466 13.0058C8.23941 12.9636 8.19619 12.9288 8.14748 12.9033C8.09877 12.8778 8.04551 12.8622 7.99076 12.8573C7.8823 12.8385 7.77076 12.8615 7.67863 12.9217C7.58649 12.982 7.52063 13.0749 7.49432 13.1818C7.39698 13.4771 7.49432 13.9248 7.16985 14.0352C6.89405 14.126 6.52091 13.9768 6.2159 13.9248C4.72334 13.6847 4.72658 13.6847 5.0251 12.1759C5.08999 11.8514 5.12893 11.4945 5.19058 11.1537C5.25223 10.813 5.44366 10.5048 4.94398 10.3101C4.77201 10.2484 4.77201 10.0051 4.84339 9.82013C4.88108 9.7156 4.95681 9.62914 5.05545 9.57801C5.1541 9.52688 5.2684 9.51485 5.37553 9.54431C6.02447 9.64815 6.67341 9.76172 7.30612 9.8688L14.5483 11.1765C14.8306 11.2251 15.0999 11.2771 15.1226 11.634C15.1453 11.9909 14.9377 12.1175 14.6197 12.1337C14.3017 12.1499 14.4023 12.39 14.3731 12.5425C14.2271 13.3083 14.0876 14.0773 13.974 14.8496C13.9221 15.2098 13.7469 15.3006 13.4191 15.2358C12.9389 15.1384 12.4457 15.0184 11.9753 14.9697C11.5048 14.921 11.3263 14.7458 11.4983 14.272C11.5226 14.1623 11.5346 14.0502 11.534 13.9378Z" fill="#5F6F52"/>
<path d="M4.41184 14.5836C5.51829 14.775 6.59229 14.9535 7.65655 15.1449C9.65529 15.4986 11.6508 15.862 13.6528 16.2125C13.9415 16.2611 14.2044 16.326 14.2336 16.6667C14.2628 17.0074 14.0486 17.1632 13.7339 17.1827C13.4191 17.2021 13.51 17.4228 13.4808 17.5818C13.338 18.3508 13.1855 19.1133 13.072 19.8856C13.0233 20.2101 12.9 20.3334 12.5755 20.2685C12.0044 20.1582 11.4366 20.0479 10.8623 19.9635C10.5378 19.9148 10.5054 19.7331 10.5378 19.4605C10.606 19.0874 10.8623 18.5909 10.2458 18.4871C9.62933 18.3833 9.71044 18.9543 9.64555 19.3145C9.58066 19.6747 9.45411 19.7461 9.1264 19.6682C8.6689 19.5611 8.20166 19.4735 7.73767 19.4119C7.39373 19.3664 7.32234 19.2237 7.38724 18.8992C7.45213 18.5747 7.67602 18.0263 7.08548 17.9257C6.49494 17.8251 6.54686 18.367 6.49494 18.711C6.44303 19.0549 6.30026 19.1945 5.91739 19.1004C5.40435 18.9852 4.88555 18.8975 4.36317 18.8375C3.9803 18.7856 3.84078 18.6364 3.93487 18.221C4.09711 17.4974 4.18147 16.7543 4.32424 16.0243C4.37615 15.7582 4.45403 15.5505 4.10035 15.4207C4.05439 15.3999 4.01313 15.37 3.97906 15.3328C3.945 15.2955 3.91883 15.2518 3.90215 15.2042C3.88547 15.1566 3.87862 15.106 3.88201 15.0557C3.8854 15.0054 3.89897 14.9562 3.92189 14.9113C3.9488 14.8059 4.0137 14.7141 4.10413 14.6536C4.19456 14.5931 4.30414 14.5682 4.41184 14.5836Z" fill="#5F6F52"/>
<path d="M6.30351 4.50183L11.0732 5.33575L15.1453 6.05935C15.3429 6.08685 15.5381 6.12916 15.7294 6.1859C15.8258 6.21726 15.9076 6.28257 15.9596 6.36971C16.0115 6.45685 16.03 6.55988 16.0117 6.65965C15.9954 6.86407 15.8851 7.04903 15.6872 7.03929C15.2719 7.01658 15.2881 7.31186 15.2427 7.56171C15.1172 8.27557 14.9982 8.9916 14.8857 9.70979C14.8241 10.1024 14.6813 10.2841 14.2368 10.1608C13.7241 10.04 13.2053 9.94687 12.6826 9.88176C12.3938 9.83634 12.2608 9.71628 12.3581 9.40477C12.404 9.22767 12.4291 9.04581 12.4328 8.86289C12.4419 8.80392 12.4387 8.7437 12.4233 8.68603C12.408 8.62836 12.3809 8.5745 12.3437 8.52785C12.3065 8.48119 12.26 8.44276 12.2072 8.41497C12.1544 8.38719 12.0964 8.37066 12.0369 8.36643C11.7611 8.33398 11.6054 8.50271 11.5307 8.75905C11.2809 9.61569 11.2809 9.61569 10.3691 9.45669C10.1744 9.42424 9.97976 9.36908 9.78183 9.3561C9.29513 9.32365 9.16534 9.03162 9.23672 8.61304L9.27566 8.39888C9.29514 8.33768 9.30133 8.27303 9.29381 8.20925C9.28629 8.14547 9.26524 8.08403 9.23206 8.02905C9.19889 7.97406 9.15436 7.92679 9.10144 7.8904C9.04852 7.85401 8.98845 7.82935 8.92523 7.81805C8.62022 7.75315 8.4515 7.93811 8.37038 8.21392C8.12703 9.05758 8.12703 9.05758 7.26069 8.91156C6.90604 8.83423 6.54754 8.77574 6.1867 8.73634C5.72271 8.70064 5.67404 8.44755 5.74866 8.08737C5.88819 7.37675 6.01473 6.66289 6.14452 5.94903C6.18994 5.70242 6.25808 5.47204 5.91739 5.33575C5.68377 5.2449 5.6643 4.98531 5.7584 4.76791C5.85249 4.5505 6.06664 4.48236 6.30351 4.50183Z" fill="#FF9A4E"/>
<path d="M14.3926 4.97558C13.5554 4.82632 12.7183 4.67381 11.8779 4.52779C11.8385 4.52673 11.7998 4.51702 11.7645 4.49935C11.7292 4.48168 11.6983 4.45647 11.6738 4.42552C11.6494 4.39457 11.632 4.35863 11.623 4.32023C11.614 4.28183 11.6135 4.24192 11.6216 4.20331C11.6216 4.05729 11.6605 3.91452 11.6897 3.77175C11.7121 3.70635 11.7194 3.63673 11.711 3.56813C11.7026 3.49952 11.6788 3.4337 11.6413 3.37562C11.6038 3.31754 11.5537 3.26871 11.4946 3.23278C11.4356 3.19686 11.3692 3.17478 11.3004 3.16821C10.9986 3.11954 10.8429 3.3337 10.7682 3.60302C10.5768 4.31688 10.5768 4.32012 9.85971 4.19682C9.23348 4.08974 8.6105 3.96968 7.98752 3.87234C7.60464 3.81069 7.39049 3.69387 7.52677 3.22337C7.64776 2.76771 7.73346 2.30341 7.7831 1.83458C7.80581 1.67234 7.9064 1.48414 7.68576 1.34786C7.63289 1.31974 7.58645 1.28092 7.54939 1.23388C7.51234 1.18683 7.48548 1.13259 7.47053 1.0746C7.45557 1.01662 7.45285 0.956152 7.46253 0.897055C7.47222 0.837958 7.49409 0.781521 7.52677 0.731338C7.58864 0.628512 7.68402 0.550123 7.79689 0.509349C7.90975 0.468576 8.03321 0.467904 8.14651 0.507446L11.3555 1.08178L14.8371 1.69505C15.0155 1.7275 15.1908 1.76644 15.3692 1.80213C15.4692 1.81891 15.5602 1.87038 15.626 1.94752C15.6919 2.02466 15.7285 2.12253 15.7294 2.22396C15.7481 2.31447 15.7326 2.40871 15.6859 2.48844C15.6391 2.56817 15.5644 2.62771 15.4763 2.65552C15.1518 2.71393 15.1518 2.90862 15.1064 3.16172C15.035 3.66142 14.915 4.15788 14.8371 4.65759C14.7917 4.92691 14.6651 5.03399 14.3926 4.97558Z" fill="#FF9A4E"/>
<path d="M7.57867 28.4649H0.699897C0.414363 28.4649 0.132074 28.4649 0.0509567 28.1404C0.0257202 28.0804 0.0149784 28.0152 0.0196006 27.9502C0.0242229 27.8852 0.044079 27.8221 0.0775635 27.7662C0.111048 27.7103 0.15722 27.6631 0.212348 27.6283C0.267475 27.5935 0.33001 27.5722 0.394894 27.5661C0.573885 27.5363 0.755402 27.5243 0.936761 27.5304H14.3601C14.4509 27.5304 14.5418 27.5304 14.6327 27.5304C14.9571 27.5304 15.2816 27.6148 15.2459 28.0431C15.2102 28.4714 14.9441 28.4812 14.6229 28.4779L7.57867 28.4649Z" fill="#5F6F52"/>
<path d="M7.25421 26.6024C6.83889 26.6024 6.42033 26.6024 6.00176 26.6024C5.69676 26.6024 5.55074 26.5083 5.60915 26.1871C5.6677 25.7565 5.75112 25.3296 5.85899 24.9086C5.98398 24.5499 6.23087 24.2464 6.55663 24.0511C6.88239 23.8557 7.26637 23.7808 7.64165 23.8395C8.01694 23.8982 8.35974 24.0867 8.61031 24.3722C8.86088 24.6577 9.00333 25.0221 9.01284 25.4018C9.01284 25.457 9.01284 25.5089 9.01284 25.5641C8.9804 26.5602 8.9447 26.5959 7.96805 26.5959L7.25421 26.6024Z" fill="#5F6F52"/>
</svg>
