<svg width="66" height="70" viewBox="0 0 66 70" fill="none" xmlns="http://www.w3.org/2000/svg">
<rect x="1" y="0.5" width="64" height="69" rx="10.5" stroke="#FF9A4E"/>
<path d="M39.3235 59.2483C38.8498 59.2483 38.376 59.2483 37.9023 59.2483C36.6044 59.2483 36.6044 59.2483 36.7537 57.8789C36.881 57.1897 36.8655 56.4817 36.7082 55.7988C36.5508 55.1158 36.2549 54.4724 35.8388 53.9084C35.4227 53.3445 34.8952 52.8719 34.2891 52.5201C33.6829 52.1683 33.011 51.9446 32.3149 51.863C29.6218 51.4866 27.1234 53.4919 26.6562 56.4058C26.1889 59.3196 26.1889 59.2483 23.3206 59.2483H22.7495C20.6275 59.2483 20.634 59.2483 21.0039 57.2235C21.5555 54.1539 22.1136 51.0843 22.6587 48.0081C22.7431 47.5409 22.9442 47.0282 22.185 46.8205C22.0673 46.7913 21.9579 46.7356 21.8649 46.6578C21.772 46.5799 21.698 46.4819 21.6486 46.3712C21.5992 46.2605 21.5756 46.14 21.5797 46.0188C21.5838 45.8976 21.6155 45.779 21.6723 45.6719C21.7656 45.4304 21.949 45.2346 22.1839 45.1257C22.4187 45.0167 22.6866 45.0031 22.9312 45.0878C24.6055 45.3928 26.2863 45.6849 27.967 45.9834L43.7168 48.7674C44.2554 48.8648 44.846 48.9232 45.0147 49.5851C45.1834 50.2471 44.8525 50.7273 44.2749 50.6754C43.4313 50.604 43.4118 51.1102 43.321 51.6294C42.9446 53.7385 42.4903 55.8347 42.2372 57.9568C42.101 59.073 41.6532 59.3975 40.6343 59.2547C40.198 59.2233 39.7601 59.2212 39.3235 59.2483Z" fill="#FEFAE0"/>
<path d="M40.0308 33.9191C40.0593 33.802 40.0622 33.68 40.0392 33.5617C40.0163 33.4433 39.968 33.3313 39.8978 33.2334C39.8275 33.1354 39.7369 33.0537 39.6322 32.994C39.5275 32.9342 39.4111 32.8978 39.291 32.8872C38.6421 32.7834 38.2917 33.1728 38.2138 33.8218C38.2138 34.1073 38.071 34.3863 38.0386 34.6784C37.9802 35.2365 37.7206 35.4117 37.156 35.2949C36.1631 35.0872 35.1573 34.9315 34.1514 34.7692C33.5998 34.6849 33.4181 34.4123 33.5609 33.8542C33.6541 33.4652 33.702 33.0666 33.7037 32.6666C33.7135 32.5571 33.7016 32.4467 33.6688 32.3418C33.6359 32.2368 33.5827 32.1394 33.5122 32.055C33.4417 31.9707 33.3553 31.901 33.2579 31.8501C33.1604 31.7991 33.0539 31.7678 32.9444 31.758C32.7275 31.7204 32.5044 31.7665 32.3201 31.887C32.1359 32.0074 32.0041 32.1932 31.9515 32.407C31.7568 32.9976 31.9515 33.8931 31.3026 34.1138C30.751 34.2955 30.0047 33.997 29.3947 33.8931C26.4096 33.4129 26.4161 33.4129 27.0131 30.3952C27.1429 29.7462 27.2207 29.0324 27.344 28.351C27.4673 27.6695 27.8502 27.053 26.8508 26.6636C26.5069 26.5403 26.5069 26.0536 26.6497 25.6837C26.7251 25.4747 26.8765 25.3017 27.0738 25.1995C27.2711 25.0972 27.4997 25.0732 27.7139 25.1321C29.0118 25.3398 30.3097 25.5669 31.5751 25.7811L46.0595 28.3964C46.6241 28.4937 47.1627 28.5976 47.2081 29.3114C47.2535 30.0253 46.8382 30.2784 46.2023 30.3108C45.5663 30.3433 45.7675 30.8235 45.7091 31.1285C45.417 32.6601 45.138 34.1982 44.9109 35.7427C44.807 36.4631 44.4566 36.6448 43.8012 36.515C42.8407 36.3203 41.8544 36.0802 40.9134 35.9828C39.9724 35.8855 39.6155 35.535 39.9594 34.5875C40.0082 34.3681 40.0321 34.1439 40.0308 33.9191Z" fill="#FEFAE0"/>
<path d="M25.7866 35.2106C27.9995 35.5935 30.1475 35.9504 32.276 36.3333C36.2735 37.0406 40.2645 37.7675 44.2684 38.4684C44.846 38.5657 45.3716 38.6955 45.43 39.3769C45.4884 40.0583 45.0601 40.3698 44.4306 40.4088C43.8012 40.4477 43.9829 40.889 43.9245 41.207C43.6389 42.7451 43.3339 44.2701 43.1068 45.8147C43.0095 46.4636 42.7629 46.7103 42.1139 46.5805C40.9718 46.3598 39.8361 46.1392 38.6875 45.9704C38.0386 45.8731 37.9737 45.5097 38.0386 44.9645C38.1749 44.2182 38.6875 43.2253 37.4545 43.0176C36.2215 42.81 36.3838 43.9521 36.254 44.6725C36.1242 45.3929 35.8711 45.5356 35.2157 45.3799C34.3007 45.1657 33.3662 44.9905 32.4382 44.8672C31.7503 44.7763 31.6076 44.4908 31.7374 43.8418C31.8672 43.1929 32.3149 42.0961 31.1339 41.8949C29.9528 41.6937 30.0566 42.7775 29.9528 43.4654C29.8489 44.1533 29.5634 44.4324 28.7977 44.2442C27.7716 44.0138 26.734 43.8384 25.6892 43.7185C24.9235 43.6147 24.6444 43.3162 24.8326 42.4855C25.1571 41.0383 25.3258 39.5522 25.6114 38.092C25.7152 37.5598 25.8709 37.1445 25.1636 36.8849C25.0717 36.8433 24.9892 36.7834 24.921 36.709C24.8529 36.6345 24.8006 36.5471 24.7672 36.4518C24.7338 36.3566 24.7201 36.2556 24.7269 36.1549C24.7337 36.0542 24.7608 35.9559 24.8067 35.866C24.8605 35.6552 24.9903 35.4717 25.1711 35.3507C25.352 35.2297 25.5712 35.1798 25.7866 35.2106Z" fill="#FEFAE0"/>
<path d="M29.5699 15.0471L39.1093 16.715L47.2535 18.1622C47.6487 18.2172 48.0392 18.3018 48.4216 18.4153C48.6146 18.478 48.7782 18.6086 48.882 18.7829C48.9858 18.9572 49.0229 19.1632 48.9862 19.3627C48.9538 19.7716 48.7331 20.1415 48.3373 20.122C47.5066 20.0766 47.5391 20.6672 47.4482 21.1669C47.1973 22.5946 46.9594 24.0267 46.7344 25.463C46.6111 26.2483 46.3256 26.6117 45.4365 26.3651C44.4111 26.1235 43.3735 25.9372 42.3281 25.807C41.7505 25.7161 41.4845 25.476 41.6791 24.853C41.771 24.4988 41.8211 24.1351 41.8284 23.7692C41.8466 23.6513 41.8402 23.5308 41.8096 23.4155C41.7789 23.3002 41.7247 23.1925 41.6503 23.0991C41.5759 23.0058 41.4829 22.929 41.3773 22.8734C41.2717 22.8178 41.1557 22.7848 41.0367 22.7763C40.4851 22.7114 40.1736 23.0489 40.0243 23.5616C39.5247 25.2748 39.5247 25.2748 37.7011 24.9568C37.3118 24.8919 36.9224 24.7816 36.5266 24.7557C35.5531 24.6908 35.2936 24.1067 35.4363 23.2695L35.5142 22.8412C35.5532 22.7188 35.5655 22.5895 35.5505 22.462C35.5355 22.3344 35.4934 22.2115 35.427 22.1015C35.3607 21.9916 35.2716 21.897 35.1658 21.8243C35.0599 21.7515 34.9398 21.7021 34.8133 21.6796C34.2033 21.5498 33.8659 21.9197 33.7037 22.4713C33.217 24.1586 33.217 24.1586 31.4843 23.8666C30.775 23.7119 30.058 23.5949 29.3363 23.5161C28.4083 23.4447 28.311 22.9386 28.4602 22.2182C28.7393 20.797 28.9923 19.3692 29.2519 17.9415C29.3428 17.4483 29.4791 16.9875 28.7977 16.715C28.3304 16.5333 28.2915 16.0141 28.4797 15.5793C28.6679 15.1445 29.0962 15.0082 29.5699 15.0471Z" fill="#FF9A4E"/>
<path d="M45.748 15.9946C44.0737 15.6961 42.3995 15.3911 40.7187 15.099C40.6399 15.0969 40.5624 15.0775 40.4919 15.0422C40.4214 15.0068 40.3595 14.9564 40.3106 14.8945C40.2617 14.8326 40.227 14.7607 40.2089 14.6839C40.1908 14.6071 40.1899 14.5273 40.2061 14.4501C40.2061 14.158 40.2839 13.8725 40.3423 13.587C40.3871 13.4562 40.4016 13.3169 40.3848 13.1797C40.3681 13.0425 40.3204 12.9109 40.2455 12.7947C40.1705 12.6785 40.0702 12.5809 39.9521 12.509C39.834 12.4372 39.7012 12.393 39.5636 12.3799C38.9601 12.2825 38.6486 12.7109 38.4993 13.2495C38.1165 14.6772 38.1165 14.6837 36.6823 14.4371C35.4299 14.2229 34.1839 13.9828 32.9379 13.7881C32.1722 13.6648 31.7439 13.4312 32.0164 12.4902C32.2584 11.5789 32.4298 10.6503 32.5291 9.71262C32.5745 9.38814 32.7757 9.01174 32.3344 8.73917C32.2287 8.68293 32.1358 8.6053 32.0617 8.51121C31.9876 8.41712 31.9339 8.30864 31.9039 8.19266C31.874 8.07669 31.8686 7.95576 31.888 7.83757C31.9073 7.71937 31.9511 7.6065 32.0164 7.50613C32.1402 7.30048 32.3309 7.1437 32.5567 7.06216C32.7824 6.98061 33.0293 6.97927 33.2559 7.05835L39.6739 8.20702L46.6371 9.43356C46.994 9.49846 47.3444 9.57634 47.7013 9.64772C47.9014 9.68127 48.0832 9.78422 48.215 9.9385C48.3467 10.0928 48.4199 10.2885 48.4216 10.4914C48.4591 10.6724 48.4281 10.8609 48.3346 11.0203C48.2411 11.1798 48.0918 11.2989 47.9155 11.3545C47.2665 11.4713 47.2665 11.8607 47.1757 12.3669C47.0329 13.3663 46.7928 14.3592 46.6371 15.3586C46.5462 15.8973 46.2931 16.1114 45.748 15.9946Z" fill="#FF9A4E"/>
<path d="M32.1202 62.9733H18.3627C17.7916 62.9733 17.227 62.9733 17.0648 62.3244C17.0143 62.2042 16.9928 62.0738 17.0021 61.9438C17.0113 61.8138 17.051 61.6877 17.118 61.5759C17.185 61.4641 17.2773 61.3696 17.3876 61.3C17.4978 61.2305 17.6229 61.1879 17.7527 61.1757C18.1107 61.116 18.4737 61.0921 18.8364 61.1043H45.6831C45.8648 61.1043 46.0465 61.1043 46.2282 61.1043C46.8771 61.1043 47.5261 61.273 47.4547 62.1297C47.3833 62.9863 46.8512 63.0058 46.2087 62.9993L32.1202 62.9733Z" fill="#FEFAE0"/>
<path d="M31.4713 59.2483C30.6407 59.2483 29.8035 59.2483 28.9664 59.2483C28.3564 59.2483 28.0644 59.0601 28.1812 58.4176C28.2983 57.5564 28.4651 56.7026 28.6809 55.8607C28.9308 55.1433 29.4246 54.5363 30.0761 54.1456C30.7277 53.7549 31.4956 53.6051 32.2462 53.7225C32.9968 53.8399 33.6824 54.2169 34.1835 54.7879C34.6846 55.3589 34.9695 56.0876 34.9886 56.8471C34.9886 56.9574 34.9886 57.0613 34.9886 57.1716C34.9237 59.1639 34.8523 59.2353 32.899 59.2353L31.4713 59.2483Z" fill="#FEFAE0"/>
</svg>
