<svg width="10" height="10" viewBox="0 0 10 10" fill="none" xmlns="http://www.w3.org/2000/svg">
<path d="M9 5.65C9.35899 5.65 9.65 5.35899 9.65 5C9.65 4.64101 9.35899 4.35 9 4.35V5.65ZM0.54038 4.54038C0.28654 4.79422 0.28654 5.20578 0.54038 5.45962L4.67695 9.59619C4.9308 9.85003 5.34235 9.85003 5.59619 9.59619C5.85003 9.34235 5.85003 8.9308 5.59619 8.67696L1.91924 5L5.59619 1.32304C5.85003 1.0692 5.85003 0.657647 5.59619 0.403806C5.34235 0.149965 4.9308 0.149965 4.67695 0.403806L0.54038 4.54038ZM9 4.35H1V5.65H9V4.35Z" fill="#FF9A4E"/>
</svg>
