<svg width="25" height="25" viewBox="0 0 25 25" fill="none" xmlns="http://www.w3.org/2000/svg">
<circle cx="12.5" cy="12.5" r="12.5" fill="#FF9A4E"/>
<path d="M10.8975 19.2308H14.7436C17.9487 19.2308 19.2308 17.9487 19.2308 14.7436V10.8974C19.2308 7.69231 17.9487 6.41026 14.7436 6.41026H10.8975C7.69233 6.41026 6.41028 7.69231 6.41028 10.8974V14.7436C6.41028 17.9487 7.69233 19.2308 10.8975 19.2308Z" stroke="white" stroke-width="1.5" stroke-linecap="round" stroke-linejoin="round"/>
<path d="M9.77563 11.8389V15.5449" stroke="white" stroke-width="2" stroke-linecap="round" stroke-linejoin="round"/>
<path d="M9.77563 9.61539V9.6228" stroke="white" stroke-width="2" stroke-linecap="round" stroke-linejoin="round"/>
<path d="M12.7404 15.5449V11.8389" stroke="white" stroke-width="2" stroke-linecap="round" stroke-linejoin="round"/>
<path d="M15.7051 15.5449V13.3213C15.7051 12.9282 15.5489 12.5511 15.2709 12.2731C14.9929 11.9951 14.6159 11.8389 14.2227 11.8389C13.8296 11.8389 13.4525 11.9951 13.1745 12.2731C12.8965 12.5511 12.7404 12.9282 12.7404 13.3213" stroke="white" stroke-width="2" stroke-linecap="round" stroke-linejoin="round"/>
</svg>
