<svg width="33" height="32" viewBox="0 0 33 32" fill="none" xmlns="http://www.w3.org/2000/svg">
<circle cx="15.9997" cy="15.5555" r="12.8889" fill="#FEFAE0"/>
<path d="M16.4445 0.640015C7.96127 0.640015 1.08447 7.51682 1.08447 16C1.08447 24.4832 7.96127 31.36 16.4445 31.36C24.9277 31.36 31.8045 24.4832 31.8045 16C31.8045 7.51682 24.9277 0.640015 16.4445 0.640015ZM12.6845 22.3664H9.57407V12.3568H12.6845V22.3664ZM11.1101 11.128C10.1277 11.128 9.49247 10.432 9.49247 9.57121C9.49247 8.69281 10.1469 8.01762 11.1501 8.01762C12.1533 8.01762 12.7677 8.69281 12.7869 9.57121C12.7869 10.432 12.1533 11.128 11.1101 11.128ZM24.0445 22.3664H20.9341V16.8192C20.9341 15.528 20.4829 14.6512 19.3581 14.6512C18.4989 14.6512 17.9885 15.2448 17.7629 15.816C17.6797 16.0192 17.6589 16.3072 17.6589 16.5936V22.3648H14.5469V15.5488C14.5469 14.2992 14.5069 13.2544 14.4653 12.3552H17.1677L17.3101 13.7456H17.3725C17.7821 13.0928 18.7853 12.1296 20.4637 12.1296C22.5101 12.1296 24.0445 13.5008 24.0445 16.448V22.3664Z" fill="#581C00"/>
</svg>
