<svg width="56" height="55" viewBox="0 0 56 55" fill="none" xmlns="http://www.w3.org/2000/svg">
<path d="M39.9887 26.6306C40.1966 26.6335 40.3979 26.5583 40.553 26.4198C40.7081 26.2814 40.8056 26.0897 40.8261 25.8829C41.3399 23.6786 41.4765 21.4033 41.2299 19.1534C40.9325 16.6725 40.1464 14.275 38.9173 12.0995C37.6881 9.92404 36.0401 8.01362 34.0685 6.47859C32.0969 4.94356 29.8407 3.81434 27.4302 3.15614C25.0197 2.49794 22.5028 2.32381 20.0246 2.64379C10.5959 3.86257 3.48507 11.908 3.50002 22.7798C3.6663 26.3 4.92318 29.6813 7.09655 32.4553C12.0165 38.8035 17.0562 45.0618 22.0509 51.3651C22.3575 51.7539 22.5295 51.7539 22.7986 51.3651C24.3788 49.3313 25.9764 47.3175 27.5915 45.3236C27.7146 45.1779 27.8001 45.0042 27.8405 44.8178C27.881 44.6314 27.875 44.4379 27.8233 44.2543C27.3925 42.2924 27.3701 40.2628 27.7573 38.2918C28.1446 36.3209 28.9333 34.4507 30.0744 32.7976C31.2155 31.1445 32.6846 29.7439 34.3902 28.683C36.0958 27.622 38.0015 26.9234 39.9887 26.6306ZM22.4024 29.6215C20.7182 29.6155 19.0736 29.1099 17.677 28.1686C16.2804 27.2274 15.1945 25.8929 14.5569 24.334C13.9192 22.7752 13.7585 21.0623 14.0951 19.412C14.4316 17.7618 15.2504 16.2486 16.4475 15.064C17.6447 13.8794 19.1665 13.0767 20.8202 12.7576C22.4739 12.4385 24.185 12.6173 25.737 13.2713C27.289 13.9254 28.612 15.0254 29.5385 16.4318C30.4649 17.8383 30.9531 19.4881 30.9413 21.1723C30.9275 23.4244 30.0205 25.5791 28.4196 27.1632C26.8186 28.7473 24.6545 29.6314 22.4024 29.6215Z" fill="#FF9A4E"/>
<path d="M42.1795 29.8384C39.9449 29.8399 37.7608 30.5031 35.9027 31.7445C34.0446 32.9858 32.5957 34.7497 31.7389 36.8135C30.882 38.8773 30.6556 41.1487 31.0881 43.3411C31.5207 45.5334 32.5928 47.5486 34.1693 49.1323C35.7457 50.7161 37.7559 51.7975 39.9463 52.2402C42.1366 52.6828 44.409 52.4668 46.4767 51.6195C48.5445 50.7722 50.315 49.3315 51.5649 47.4792C52.8148 45.6268 53.4882 43.4457 53.5 41.2112C53.4864 38.2081 52.291 35.3312 50.1724 33.2029C48.0538 31.0745 45.1825 29.8658 42.1795 29.8384ZM47.7127 40.4111C45.6041 42.5421 43.4806 44.6507 41.3645 46.7667C41.1851 46.9461 40.9832 47.1032 40.7738 47.2976C40.6168 47.1555 40.4972 47.0583 40.385 46.9462C38.426 44.9946 36.4819 43.0281 34.5079 41.084C34.164 40.7476 34.1715 40.5681 34.5079 40.2616C35.1884 39.6634 35.7791 38.6091 36.4969 38.5194C37.2147 38.4296 37.753 39.5886 38.3886 40.1868C39.0242 40.785 39.7046 41.4429 40.3102 42.1234C40.6692 42.5122 40.8785 42.4748 41.2299 42.1234C42.9871 40.3363 44.7816 38.5867 46.5313 36.7921C46.9649 36.3435 47.279 36.1491 47.7127 36.7473C48.1463 37.3454 49.3203 37.8688 49.3203 38.5867C49.3203 39.3045 48.2959 39.8129 47.7127 40.4111Z" fill="#BDC89C"/>
<path d="M22.4323 16.013C21.4184 16.0071 20.4256 16.3018 19.5792 16.8598C18.7327 17.4179 18.0707 18.2143 17.6766 19.1484C17.2825 20.0825 17.174 21.1124 17.365 22.1081C17.5559 23.1038 18.0376 24.0207 18.7492 24.7427C19.4609 25.4648 20.3706 25.9598 21.3634 26.1652C22.3562 26.3706 23.3876 26.2772 24.3274 25.8967C25.2671 25.5163 26.0731 24.8659 26.6434 24.0276C27.2137 23.1894 27.5228 22.201 27.5317 21.1872C27.5386 20.5121 27.412 19.8422 27.1591 19.2162C26.9062 18.5902 26.532 18.0204 26.0581 17.5395C25.5841 17.0587 25.0198 16.6762 24.3976 16.4142C23.7753 16.1523 23.1074 16.0159 22.4323 16.013Z" fill="#FF9A4E"/>
</svg>
