<svg width="56" height="55" viewBox="0 0 56 55" fill="none" xmlns="http://www.w3.org/2000/svg">
<path d="M53 25.0977C53 23.5871 52.9061 23.4932 51.4296 23.4932H4.71084C3.08925 23.4932 3.00391 23.5444 3.00391 25.2001C3.00391 25.9768 3.00391 26.762 3.00391 27.5387C2.9527 28.5116 3.40504 28.8871 4.34386 28.8359C4.97199 28.8744 5.60191 28.8744 6.23004 28.8359C7.19772 28.5856 8.22344 28.6961 9.11557 29.1469C10.0077 29.5977 10.7052 30.3578 11.0777 31.2854C11.2963 31.6939 11.636 32.0248 12.0501 32.2326C12.4642 32.4404 12.9324 32.515 13.3906 32.4461C22.3861 32.4461 31.3817 32.3095 40.3687 32.4888C43.0742 32.5485 45.0457 31.9937 46.2576 29.5016C46.3689 29.2679 46.553 29.0766 46.7823 28.9565C47.0117 28.8365 47.2738 28.7942 47.5293 28.8359C48.9716 28.8871 50.4225 28.8359 51.8734 28.8359C52.022 28.8604 52.1743 28.8495 52.3179 28.8039C52.4615 28.7584 52.5922 28.6796 52.6995 28.574C52.8069 28.4683 52.8877 28.3388 52.9355 28.1959C52.9832 28.0531 52.9966 27.901 52.9744 27.752C52.9915 26.8815 53 25.9853 53 25.0977Z" fill="#FF9A4E"/>
<path d="M30.8354 21.7266C31.3561 21.7266 31.4329 21.4108 31.5524 21.0694C32.0559 19.6355 32.5424 18.2017 33.0459 16.802C34.6277 12.2502 36.2151 7.67564 37.8083 3.0783C37.6815 3.05094 37.5533 3.03099 37.4242 3.01855C31.2536 3.01855 25.0916 3.01855 18.9211 3.01855C18.3236 3.01855 18.1103 3.24044 17.931 3.77813C17.0776 6.33853 16.1729 8.89893 15.2853 11.4593C14.099 14.8732 12.9041 18.2871 11.6836 21.7948C18.1444 21.7095 24.46 21.701 30.8354 21.7266ZM19.7404 13.3455C19.6632 13.2525 19.6068 13.1441 19.5746 13.0276C19.5425 12.9111 19.5355 12.7891 19.5541 12.6697C19.5726 12.5503 19.6163 12.4362 19.6823 12.335C19.7483 12.2337 19.835 12.1476 19.9367 12.0824C20.4402 11.7154 20.8414 11.9202 21.1827 12.3555L21.3108 12.5347C21.7204 13.0382 21.857 13.9771 22.4715 14.0027C23.086 14.0283 23.4956 13.3626 24.0077 12.987L28.7615 9.49636C28.8897 9.35925 29.0595 9.26822 29.2446 9.23736C29.4298 9.20651 29.6199 9.23753 29.7857 9.32566C29.9414 9.39215 30.0718 9.50671 30.1578 9.65259C30.2438 9.79846 30.2808 9.96801 30.2636 10.1365C30.2636 10.5717 29.982 10.7936 29.6833 10.9899C27.413 12.6969 25.1343 14.327 22.8555 15.9998C22.224 16.4692 21.7034 16.435 21.2681 15.7608C20.7731 14.9756 20.2695 14.1478 19.7489 13.3455H19.7404Z" fill="#BDC89C"/>
<path d="M30.6903 43.1912C30.6903 40.4431 30.6903 37.6949 30.6903 34.9468C30.6903 34.4005 30.5964 34.1615 29.9734 34.1872C28.6761 34.2384 27.3704 34.1872 26.0731 34.1872C25.5183 34.1872 25.3135 34.2896 25.3135 34.9126C25.3135 40.3691 25.3135 45.8284 25.3135 51.2906C25.3135 51.9819 25.5695 52.0673 26.167 52.0502C27.3533 52.0502 28.5481 51.9905 29.7344 52.0502C30.494 52.0929 30.7415 51.9051 30.7245 51.0943C30.6562 48.4913 30.6903 45.8285 30.6903 43.1912Z" fill="#FF9A4E"/>
<path d="M44.3373 21.6837C42.5023 16.3922 40.6844 11.169 38.7726 5.66418C36.8609 11.1776 35.043 16.4008 33.2081 21.6837H44.3373Z" fill="#BDC89C"/>
</svg>
