<svg width="28" height="26" viewBox="0 0 28 26" fill="none" xmlns="http://www.w3.org/2000/svg">
<path d="M12.2222 19.3889L9.66667 18.1111M9.66667 18.1111L2 21.9444V5.33333L9.66667 1.5M9.66667 18.1111V1.5M9.66667 1.5L17.3333 5.33333M17.3333 5.33333L25 1.5V14.2778M17.3333 5.33333V11.7222M21.8056 21.3056L25 24.5M16.0556 18.75C16.0556 19.5972 16.3921 20.4097 16.9912 21.0088C17.5903 21.6079 18.4028 21.9444 19.25 21.9444C20.0972 21.9444 20.9097 21.6079 21.5088 21.0088C22.1079 20.4097 22.4444 19.5972 22.4444 18.75C22.4444 17.9028 22.1079 17.0903 21.5088 16.4912C20.9097 15.8921 20.0972 15.5556 19.25 15.5556C18.4028 15.5556 17.5903 15.8921 16.9912 16.4912C16.3921 17.0903 16.0556 17.9028 16.0556 18.75Z" stroke="#581C00" stroke-width="2" stroke-linecap="round" stroke-linejoin="round"/>
</svg>
