<svg width="28" height="25" viewBox="0 0 28 25" fill="none" xmlns="http://www.w3.org/2000/svg">
<path d="M12.2222 18.8889L9.66667 17.6111M9.66667 17.6111L2 21.4444V4.83333L9.66667 1M9.66667 17.6111V1M9.66667 1L17.3333 4.83333M17.3333 4.83333L25 1V13.7778M17.3333 4.83333V11.2222M21.8056 20.8056L25 24M16.0556 18.25C16.0556 19.0972 16.3921 19.9097 16.9912 20.5088C17.5903 21.1079 18.4028 21.4444 19.25 21.4444C20.0972 21.4444 20.9097 21.1079 21.5088 20.5088C22.1079 19.9097 22.4444 19.0972 22.4444 18.25C22.4444 17.4028 22.1079 16.5903 21.5088 15.9912C20.9097 15.3921 20.0972 15.0556 19.25 15.0556C18.4028 15.0556 17.5903 15.3921 16.9912 15.9912C16.3921 16.5903 16.0556 17.4028 16.0556 18.25Z" stroke="#FF9A4E" stroke-width="2" stroke-linecap="round" stroke-linejoin="round"/>
</svg>
