<svg width="55" height="55" viewBox="0 0 55 55" fill="none" xmlns="http://www.w3.org/2000/svg">
<path d="M48.5 4.70293C48.5 3.48127 48.0307 3 46.8354 3H12.2684C11.0145 3 10.5598 3.46646 10.5598 4.76217C10.5598 6.24298 10.5598 7.72379 10.5598 9.2046C11.5058 9.2046 12.4517 9.2046 13.3977 9.2046C13.5878 9.17993 13.781 9.19646 13.9643 9.25309C14.1476 9.30971 14.3169 9.40512 14.4608 9.53297C14.6047 9.66083 14.72 9.81818 14.799 9.99455C14.878 10.1709 14.9188 10.3623 14.9188 10.5558C14.9188 10.7494 14.878 10.9407 14.799 11.1171C14.72 11.2935 14.6047 11.4508 14.4608 11.5787C14.3169 11.7065 14.1476 11.802 13.9643 11.8586C13.781 11.9152 13.5878 11.9317 13.3977 11.9071C12.4517 11.9071 11.5058 11.9071 10.5598 11.9071V17.6822C11.5058 17.6822 12.4517 17.6822 13.3977 17.6822C13.5895 17.6534 13.7852 17.6667 13.9715 17.7212C14.1578 17.7757 14.3303 17.8702 14.4772 17.998C14.6241 18.1259 14.7419 18.2843 14.8227 18.4623C14.9035 18.6404 14.9453 18.8339 14.9453 19.0298C14.9453 19.2256 14.9035 19.4191 14.8227 19.5972C14.7419 19.7752 14.6241 19.9336 14.4772 20.0615C14.3303 20.1894 14.1578 20.2838 13.9715 20.3383C13.7852 20.3928 13.5895 20.4061 13.3977 20.3773C12.4517 20.3773 11.5058 20.3773 10.5598 20.3773V26.1525C11.5058 26.1525 12.4517 26.1525 13.3977 26.1525C13.5878 26.1278 13.781 26.1443 13.9643 26.201C14.1476 26.2576 14.3169 26.353 14.4608 26.4808C14.6047 26.6087 14.72 26.766 14.799 26.9424C14.878 27.1188 14.9188 27.3101 14.9188 27.5037C14.9188 27.6973 14.878 27.8886 14.799 28.065C14.72 28.2414 14.6047 28.3987 14.4608 28.5266C14.3169 28.6544 14.1476 28.7498 13.9643 28.8065C13.781 28.8631 13.5878 28.8796 13.3977 28.8549C12.4517 28.8549 11.5058 28.8549 10.5598 28.8549V34.6375C11.5058 34.6375 12.4517 34.6375 13.3977 34.6375C13.5878 34.6128 13.781 34.6294 13.9643 34.686C14.1476 34.7426 14.3169 34.838 14.4608 34.9659C14.6047 35.0937 14.72 35.2511 14.799 35.4275C14.878 35.6038 14.9188 35.7952 14.9188 35.9887C14.9188 36.1823 14.878 36.3736 14.799 36.55C14.72 36.7264 14.6047 36.8837 14.4608 37.0116C14.3169 37.1394 14.1476 37.2349 13.9643 37.2915C13.781 37.3481 13.5878 37.3646 13.3977 37.34C12.4517 37.34 11.5058 37.34 10.5598 37.34V43.1225C11.5058 43.1225 12.4517 43.1225 13.3977 43.1225C13.5878 43.0979 13.781 43.1144 13.9643 43.171C14.1476 43.2276 14.3169 43.3231 14.4608 43.4509C14.6047 43.5788 14.72 43.7361 14.799 43.9125C14.878 44.0889 14.9188 44.2802 14.9188 44.4738C14.9188 44.6673 14.878 44.8587 14.799 45.0351C14.72 45.2114 14.6047 45.3688 14.4608 45.4966C14.3169 45.6245 14.1476 45.7199 13.9643 45.7765C13.781 45.8332 13.5878 45.8497 13.3977 45.825C12.4517 45.825 11.5058 45.825 10.5598 45.825C10.5598 47.2688 10.5598 48.7052 10.5598 50.149C10.5598 51.5928 10.9852 52 12.3637 52H46.6448C48.1114 52 48.5 51.5854 48.5 50.1046V4.70293ZM39.8692 43.626H22.2704C21.1778 43.626 20.5398 43.1225 20.5325 42.2859C20.5252 41.4492 21.1631 40.9235 22.2557 40.9235H39.8546C40.9398 40.9235 41.5851 41.4344 41.5924 42.2637C41.5998 43.0929 40.9545 43.626 39.8692 43.626ZM20.5325 36.8661C20.5325 36.0221 21.1631 35.5112 22.2557 35.5038H39.8546C40.9398 35.5038 41.5851 36.0147 41.5924 36.8513C41.5998 37.688 40.9618 38.2137 39.8692 38.2137H22.2704C21.1778 38.2285 20.5398 37.7028 20.5325 36.8661ZM43.103 24.6272C43.0866 24.8042 43.0354 24.9762 42.9525 25.133C42.8696 25.2899 42.7566 25.4285 42.6201 25.5408C42.4836 25.6531 42.3263 25.7369 42.1575 25.7873C41.9886 25.8376 41.8115 25.8535 41.6364 25.8341H30.9965C27.5134 25.8341 24.0303 25.8341 20.5545 25.8341C19.4253 25.8341 18.7286 24.9456 19.0879 24.0275C19.2053 23.7165 19.4033 23.3611 19.7039 23.3315C20.7158 23.2353 20.7085 22.4504 20.9138 21.7471C21.3962 19.8135 22.4206 18.0614 23.8643 16.7008C25.3079 15.3403 27.1096 14.4291 29.0533 14.0765C29.6472 13.9432 29.7353 13.7359 29.7353 13.2102C29.7353 12.1662 30.2412 11.5443 31.0332 11.5295C31.8251 11.5147 32.4044 12.144 32.3897 13.2546C32.3897 13.8321 32.5731 13.9506 33.123 14.0765C37.5227 15.113 40.2799 17.9117 41.3798 22.3394C41.4825 22.7392 41.3798 23.0798 42.0251 23.1834C42.1939 23.1968 42.3579 23.2462 42.5064 23.3284C42.6548 23.4105 42.7843 23.5236 42.8862 23.6601C42.9881 23.7966 43.0602 23.9534 43.0975 24.1202C43.1349 24.2869 43.1368 24.4597 43.103 24.6272Z" fill="#FF9A4E"/>
<path d="M8.77069 9.20455C8.60285 9.20454 8.43667 9.23815 8.28179 9.30345C8.12692 9.36874 7.98642 9.46441 7.86843 9.58493C7.75043 9.70544 7.65731 9.84841 7.59443 10.0055C7.53155 10.1626 7.50016 10.3308 7.5021 10.5003C7.49324 10.6761 7.51919 10.8521 7.57843 11.0177C7.63767 11.1833 7.72901 11.3354 7.84712 11.465C7.96523 11.5946 8.10773 11.6991 8.26631 11.7725C8.42488 11.8458 8.59635 11.8865 8.77069 11.8922C9.35732 11.8922 9.95126 11.8922 10.5452 11.8922V9.20455C9.92926 9.20455 9.35732 9.16012 8.77069 9.20455Z" fill="#FF9A4E"/>
<path d="M8.77068 17.7193C8.60347 17.7193 8.4379 17.7527 8.28351 17.8175C8.12912 17.8824 7.98893 17.9774 7.87103 18.0971C7.75314 18.2168 7.65986 18.3589 7.59655 18.5152C7.53323 18.6714 7.50112 18.8388 7.50209 19.0076C7.49221 19.1837 7.51745 19.3601 7.57632 19.5262C7.63518 19.6923 7.72648 19.8447 7.84479 19.9745C7.96309 20.1044 8.10598 20.2089 8.26502 20.2819C8.42407 20.3549 8.59603 20.3949 8.77068 20.3996C9.35731 20.4366 9.95125 20.3996 10.5452 20.3996V17.7193C9.92925 17.7119 9.35731 17.6749 8.77068 17.7193Z" fill="#FF9A4E"/>
<path d="M8.77068 26.234C8.60319 26.233 8.43718 26.2657 8.28234 26.3302C8.12751 26.3947 7.98693 26.4896 7.86884 26.6096C7.75075 26.7295 7.6575 26.872 7.59453 27.0287C7.53156 27.1854 7.50014 27.3532 7.50209 27.5223C7.49221 27.6984 7.51745 27.8747 7.57632 28.0408C7.63518 28.2069 7.72648 28.3594 7.84479 28.4892C7.96309 28.619 8.10598 28.7235 8.26502 28.7965C8.42407 28.8695 8.59603 28.9096 8.77068 28.9142C9.35731 28.9513 9.95125 28.9142 10.5452 28.9142V26.234C9.92925 26.2266 9.35731 26.1896 8.77068 26.234Z" fill="#FF9A4E"/>
<path d="M8.77068 34.7411C8.60284 34.7411 8.43666 34.7747 8.28178 34.84C8.12691 34.9053 7.98641 35.001 7.86842 35.1215C7.75042 35.242 7.6573 35.385 7.59442 35.5421C7.53154 35.6992 7.50015 35.8674 7.50209 36.0368C7.49221 36.2129 7.51745 36.3893 7.57632 36.5554C7.63518 36.7214 7.72648 36.8739 7.84479 37.0037C7.96309 37.1335 8.10598 37.238 8.26502 37.3111C8.42407 37.3841 8.59603 37.4241 8.77068 37.4288C9.35731 37.4658 9.95125 37.4288 10.5452 37.4288V34.7411C9.92925 34.7411 9.35731 34.6967 8.77068 34.7411Z" fill="#FF9A4E"/>
<path d="M8.77069 43.2559C8.60285 43.2559 8.43667 43.2895 8.28179 43.3548C8.12692 43.4201 7.98642 43.5157 7.86843 43.6362C7.75043 43.7567 7.65731 43.8997 7.59443 44.0568C7.53155 44.214 7.50016 44.3821 7.5021 44.5516C7.49324 44.7275 7.51919 44.9034 7.57843 45.069C7.63767 45.2347 7.72901 45.3867 7.84712 45.5163C7.96523 45.6459 8.10773 45.7505 8.26631 45.8238C8.42488 45.8972 8.59635 45.9379 8.77069 45.9435C9.35732 45.9806 9.95126 45.9435 10.5452 45.9435V43.2632C9.92926 43.2558 9.35732 43.2114 8.77069 43.2559Z" fill="#FF9A4E"/>
<path d="M31.1138 16.542C27.2641 16.542 23.6343 19.6073 23.407 23.0946H38.7106C38.5273 19.6517 34.8609 16.5568 31.1138 16.542Z" fill="#BDC89C"/>
</svg>
