<svg width="66" height="70" viewBox="0 0 66 70" fill="none" xmlns="http://www.w3.org/2000/svg">
<rect x="1" y="0.5" width="64" height="69" rx="10.5" stroke="#FF9A4E"/>
<path d="M13.0874 33.4621C14.3078 34.0939 15.717 34.2579 17.0499 33.9232C18.2834 33.6322 19.3661 32.896 20.0902 31.8558C20.1901 31.6878 20.3352 31.5512 20.509 31.4616C20.6828 31.372 20.8783 31.333 21.0732 31.3491C29.0353 31.3491 36.9958 31.3491 44.9546 31.3491C45.1188 31.3257 45.2862 31.3467 45.4395 31.41C45.5928 31.4732 45.7263 31.5765 45.8262 31.7089C47.6301 34.0246 49.9103 34.6276 52.6111 33.5533L52.981 33.4368C53.1482 36.0261 52.2158 38.0428 50.0826 39.416C49.8431 39.5423 49.6475 39.7382 49.5218 39.978C49.396 40.2177 49.346 40.49 49.3782 40.7588C49.4036 44.0525 49.3782 47.3461 49.4036 50.6499C49.4036 51.263 49.2364 51.3897 48.6536 51.3846C45.4951 51.3508 42.34 51.3508 39.1882 51.3846C38.5751 51.3846 38.4484 51.2225 38.4484 50.6347C38.4484 49.2767 38.6156 47.9086 38.3167 46.581C38.0334 45.2802 37.2837 44.1282 36.209 43.3426C35.1343 42.5569 33.8092 42.192 32.4838 42.3168C31.1584 42.4415 29.9246 43.0473 29.0154 44.0196C28.1062 44.992 27.5846 46.2636 27.549 47.5944C27.549 48.6078 27.5186 49.6212 27.549 50.6651C27.549 51.1718 27.478 51.3947 26.8751 51.3897C23.6625 51.3559 20.4533 51.3559 17.2475 51.3897C16.6901 51.3897 16.609 51.2073 16.6141 50.7157C16.6141 47.3309 16.6141 43.946 16.6141 40.5815C16.6372 40.3653 16.5926 40.1472 16.4864 39.9575C16.3802 39.7678 16.2176 39.6157 16.0212 39.5224C13.8474 38.2202 12.6567 35.7322 13.0874 33.4621Z" fill="#FEFAE0"/>
<path d="M33.0164 29.525C29.3782 29.525 25.7349 29.525 22.0967 29.525C20.6367 29.5261 19.2202 29.0276 18.0826 28.1122C16.9451 27.1969 16.1551 25.9198 15.8439 24.4933C15.6969 23.8751 15.8895 23.8396 16.4114 23.9359C17.9716 24.2422 19.5899 23.9405 20.9351 23.0928C22.2802 22.245 23.2505 20.9152 23.6473 19.3755C23.8094 18.7826 24.0324 18.6053 24.6607 18.6103C30.2616 18.634 35.8625 18.634 41.4634 18.6103C42.0157 18.6103 42.2133 18.7522 42.3552 19.2893C43.2622 22.6438 46.1961 24.4933 49.6975 23.9359C50.2701 23.8447 50.3005 24.022 50.2042 24.5085C49.8893 25.9395 49.0923 27.2188 47.9465 28.1321C46.8008 29.0453 45.3759 29.5371 43.9108 29.525C40.2726 29.5554 36.6293 29.525 33.0164 29.525Z" fill="#FF9A4E"/>
</svg>
