<svg width="66" height="70" viewBox="0 0 66 70" fill="none" xmlns="http://www.w3.org/2000/svg">
<rect x="1" y="0.5" width="64" height="69" rx="10.5" stroke="#FF9A4E"/>
<path d="M44.4509 27.3174H49.4166C52.1782 27.3174 53.6122 29.3189 52.7507 31.9538C52.5481 32.5719 52.3352 33.1851 52.1174 33.7982C51.6096 35.3547 51.21 36.9445 50.9215 38.5562C50.4645 40.8473 49.204 42.8999 47.3672 44.3437C45.5304 45.7875 43.2382 46.5275 40.9039 46.4304C35.2592 46.2987 30.7697 43.8969 27.3444 39.4328C25.6216 37.183 23.9697 34.8724 22.2773 32.6074C22.197 32.5345 22.1319 32.4464 22.0858 32.3482C22.0398 32.25 22.0136 32.1436 22.0089 32.0353C22.0042 31.9269 22.021 31.8187 22.0584 31.7168C22.0957 31.615 22.1529 31.5216 22.2266 31.442C23.1691 30.1245 24.0862 28.7919 24.9122 27.3883C25.3682 26.6232 25.6824 26.7651 26.1941 27.2819C28.074 29.1871 29.7968 31.2292 31.5044 33.2813C32.1054 34.0039 32.8596 34.5838 33.7123 34.9791C34.565 35.3743 35.4949 35.575 36.4347 35.5666C36.9414 35.5666 37.2455 35.5261 36.9769 34.8572C36.5817 33.8894 36.2928 32.881 35.9635 31.8828C35.1781 29.405 36.6729 27.3224 39.2723 27.3224C40.985 27.3022 42.7179 27.3174 44.4509 27.3174Z" fill="#FEFAE0"/>
<path d="M23.8988 25.6554C22.8854 27.1755 21.8719 28.6957 20.8585 30.2158C20.6508 30.5299 20.5241 30.6516 20.1694 30.3475C18.3911 28.9267 16.3111 27.9318 14.0889 27.439C12.9083 27.1401 12.8272 26.7246 13.192 25.5997C13.7443 23.8971 14.8996 23.4816 16.5059 23.5728C19.1087 23.6171 21.6556 24.3345 23.8988 25.6554Z" fill="#FF9A4E"/>
</svg>
