<svg width="28" height="15" viewBox="0 0 28 15" fill="none" xmlns="http://www.w3.org/2000/svg">
<path d="M21.2484 2.46286H24.6003C26.4643 2.46286 27.4322 3.77515 26.8508 5.50273C26.714 5.90805 26.5703 6.31005 26.4233 6.71204C26.0805 7.7326 25.8108 8.77495 25.6161 9.83164C25.3076 11.3339 24.4567 12.6796 23.2169 13.6262C21.977 14.5729 20.4298 15.0581 18.8542 14.9944C15.044 14.9081 12.0136 13.3333 9.70149 10.4064C8.53859 8.93131 7.42358 7.41636 6.2812 5.93131C6.22699 5.8835 6.18306 5.82574 6.15197 5.76135C6.12088 5.69696 6.10323 5.62723 6.10005 5.55617C6.09687 5.48512 6.10822 5.41416 6.13344 5.34739C6.15867 5.28063 6.19726 5.21938 6.247 5.16719C6.88317 4.3034 7.50225 3.42964 8.05975 2.50938C8.36758 2.00771 8.57964 2.10073 8.92509 2.4396C10.194 3.68877 11.3569 5.02766 12.5095 6.37317C12.9152 6.84694 13.4243 7.22716 13.9998 7.48631C14.5754 7.74545 15.2031 7.87702 15.8375 7.87151C16.1795 7.87151 16.3847 7.84493 16.2035 7.40639C15.9367 6.77184 15.7417 6.11071 15.5194 5.45622C14.9893 3.83164 15.9982 2.46619 17.7528 2.46619C18.9089 2.4529 20.0786 2.46286 21.2484 2.46286Z" fill="#5F6F52"/>
<path d="M7.37572 1.37318C6.69166 2.36986 6.00761 3.36654 5.32355 4.36322C5.18332 4.5692 5.0978 4.64894 4.85838 4.4496C3.65803 3.51801 2.25406 2.86569 0.754041 2.54262C-0.0428854 2.34661 -0.0976062 2.07418 0.148654 1.33664C0.521466 0.220359 1.30128 -0.0520665 2.38551 0.00773426C4.14239 0.036733 5.8616 0.507148 7.37572 1.37318Z" fill="#FF9A4E"/>
</svg>
