<svg width="23" height="23" viewBox="0 0 23 23" fill="none" xmlns="http://www.w3.org/2000/svg">
<path d="M13.9449 10.4936C12.0295 8.28982 9.60676 6.82065 6.923 5.71877C6.55537 5.57185 6.09582 5.2119 5.84215 5.32209C5.52966 5.45799 5.55171 6.05668 5.37525 6.42397C5.19878 6.79126 5.24657 6.96389 5.70612 7.10347C6.11739 7.23624 6.49742 7.451 6.82321 7.73475C7.14899 8.01851 7.41377 8.36536 7.60149 8.75431C7.78922 9.14326 7.896 9.56622 7.91537 9.99759C7.93473 10.429 7.86629 10.8598 7.71417 11.264C7.56206 11.6681 7.32944 12.0373 7.0304 12.349C6.73135 12.6608 6.37209 12.9087 5.97437 13.0777C5.57665 13.2467 5.14874 13.3334 4.71653 13.3324C4.28432 13.3314 3.85681 13.2428 3.45986 13.072C3.1584 12.9434 3.09222 13.0242 3.00766 13.2924C2.87899 13.7294 2.7062 14.1518 2.55179 14.5816C1.73319 16.9029 0.909679 19.2291 0.0812691 21.5601C0.0247986 21.6805 0.00616436 21.8151 0.0278227 21.9462C0.049481 22.0774 0.110415 22.1989 0.20259 22.2947C0.289137 22.3912 0.403893 22.4581 0.530587 22.4857C0.657281 22.5134 0.789483 22.5006 0.908453 22.449C2.14739 21.9899 3.39368 21.5418 4.6363 21.0863C3.79809 19.3674 3.83852 18.148 4.80173 17.0461C5.20459 16.5542 5.74829 16.197 6.36001 16.0224C6.97173 15.8477 7.62226 15.8641 8.22444 16.0691C9.51484 16.4364 10.3053 17.5383 10.4523 19.0736L16.4191 17.0167C16.6875 16.9249 17.0698 16.8992 17.1911 16.7082C17.3124 16.5172 17.0441 16.1866 16.9558 15.9148C16.3285 13.9233 15.3043 12.0792 13.9449 10.4936ZM8.5259 14.6109C8.35917 14.6085 8.20023 14.54 8.08406 14.4205C7.96789 14.301 7.90399 14.1403 7.90643 13.9737C7.90887 13.8071 7.97744 13.6483 8.09706 13.5323C8.21668 13.4162 8.37755 13.3524 8.54428 13.3548C8.62583 13.3538 8.70676 13.3691 8.78234 13.3997C8.85793 13.4303 8.92665 13.4757 8.98449 13.5331C9.04233 13.5906 9.08813 13.659 9.11923 13.7343C9.15032 13.8096 9.16608 13.8904 9.16559 13.9719C9.17038 14.057 9.15712 14.1423 9.12667 14.222C9.09622 14.3017 9.04926 14.3741 8.98888 14.4344C8.92849 14.4947 8.85604 14.5416 8.77626 14.5721C8.69648 14.6025 8.61116 14.6157 8.5259 14.6109ZM9.34206 9.23744C9.24253 9.11658 9.19146 8.96311 9.19873 8.80677C9.206 8.65043 9.2711 8.50235 9.38141 8.39123C9.49172 8.28011 9.6394 8.21385 9.79582 8.20529C9.95224 8.19673 10.1063 8.24649 10.2281 8.34492C10.706 8.77833 11.1472 9.24846 11.603 9.70758C11.7011 9.83022 11.7506 9.98466 11.7421 10.1414C11.7335 10.2982 11.6675 10.4463 11.5566 10.5576C11.4457 10.6688 11.2977 10.7354 11.1408 10.7446C10.9839 10.7538 10.8291 10.705 10.706 10.6074C10.2354 10.1667 9.77219 9.72594 9.34206 9.23744ZM12.4082 15.9038C11.8982 15.9038 11.4092 15.7014 11.0486 15.3412C10.688 14.9809 10.4854 14.4923 10.4854 13.9829C10.4854 13.4734 10.688 12.9848 11.0486 12.6246C11.4092 12.2643 11.8982 12.0619 12.4082 12.0619C12.9181 12.0619 13.4072 12.2643 13.7677 12.6246C14.1283 12.9848 14.3309 13.4734 14.3309 13.9829C14.3309 14.4923 14.1283 14.9809 13.7677 15.3412C13.4072 15.7014 12.9181 15.9038 12.4082 15.9038Z" fill="#FF9A4E"/>
<path d="M21.9042 14.4383C20.8694 11.1919 19.0689 8.24152 16.6543 5.83558C14.2397 3.42964 11.2817 1.63863 8.02959 0.613379C7.60818 0.461303 7.14665 0.462239 6.72587 0.616024C6.30508 0.769809 5.95189 1.06663 5.72818 1.45448C5.05173 2.61146 5.61054 3.89698 6.9855 4.3561C11.239 5.72761 14.7961 8.69045 16.9117 12.6239C17.45 13.6303 17.8978 14.6824 18.2499 15.7679C18.3877 16.194 18.6748 16.5561 19.0585 16.7875C19.4421 17.019 19.8965 17.1043 20.3381 17.0277C20.8005 16.9627 21.2243 16.7343 21.5325 16.3839C21.8408 16.0335 22.0131 15.5843 22.0182 15.1178C22.0254 14.886 21.9867 14.6551 21.9042 14.4383Z" fill="#5F6F52"/>
<path d="M7.26122 17.2004C6.88657 17.1977 6.51914 17.3034 6.20328 17.5047C5.88742 17.706 5.63662 17.9943 5.48114 18.3349C5.32567 18.6754 5.27217 19.0537 5.32709 19.4239C5.38201 19.7942 5.54302 20.1407 5.79067 20.4216C5.83788 20.4908 5.90865 20.5405 5.98981 20.5614C6.07097 20.5824 6.15699 20.5731 6.23183 20.5354C7.0774 20.2269 7.92297 19.9294 8.78324 19.6649C8.90656 19.6425 9.01613 19.5726 9.08833 19.4702C9.16054 19.3678 9.1896 19.2412 9.16926 19.1177C9.16546 18.6122 8.96355 18.1284 8.60686 17.77C8.25016 17.4116 7.76708 17.2071 7.26122 17.2004Z" fill="#FF9A4E"/>
<path d="M4.42675 12.0289L4.64733 12.0509C5.10831 12.0559 5.55593 11.8962 5.90947 11.6006C6.26302 11.3051 6.49923 10.893 6.57552 10.4388C6.65182 9.98454 6.56317 9.51802 6.32557 9.12332C6.08797 8.72863 5.71704 8.43172 5.27967 8.28614C4.94879 8.17227 4.75027 8.17228 4.62527 8.59099C4.38263 9.42107 4.07014 10.2328 3.79073 11.0519C3.53339 11.7975 3.61794 11.9297 4.42675 12.0289Z" fill="#FF9A4E"/>
<path d="M12.4412 13.3364C12.2685 13.3325 12.1012 13.3965 11.9753 13.5147C11.8495 13.6328 11.7752 13.7957 11.7685 13.9682C11.7634 14.1331 11.8227 14.2935 11.9338 14.4155C12.0449 14.5375 12.1992 14.6116 12.364 14.622C12.4491 14.6285 12.5345 14.6181 12.6155 14.5915C12.6965 14.5649 12.7715 14.5226 12.836 14.467C12.9006 14.4113 12.9535 14.3435 12.9918 14.2673C13.03 14.1912 13.0528 14.1083 13.0589 14.0233C13.0641 13.8514 13.0028 13.6841 12.8878 13.5562C12.7728 13.4283 12.6129 13.3496 12.4412 13.3364Z" fill="#FF9A4E"/>
</svg>
