<svg width="25" height="24" viewBox="0 0 25 24" fill="none" xmlns="http://www.w3.org/2000/svg">
<path d="M13.1469 10.87C13.0469 10.86 12.9269 10.86 12.8169 10.87C10.4369 10.79 8.54688 8.84 8.54688 6.44C8.54688 3.99 10.5269 2 12.9869 2C15.4369 2 17.4269 3.99 17.4269 6.44C17.4169 8.84 15.5269 10.79 13.1469 10.87Z" stroke="white" stroke-width="1.5" stroke-linecap="round" stroke-linejoin="round"/>
<path d="M8.14703 14.56C5.72703 16.18 5.72703 18.82 8.14703 20.43C10.897 22.27 15.407 22.27 18.157 20.43C20.577 18.81 20.577 16.17 18.157 14.56C15.417 12.73 10.907 12.73 8.14703 14.56Z" stroke="white" stroke-width="1.5" stroke-linecap="round" stroke-linejoin="round"/>
</svg>
