<svg width="10" height="10" viewBox="0 0 10 10" fill="none" xmlns="http://www.w3.org/2000/svg">
<path d="M1 4.35C0.641015 4.35 0.35 4.64101 0.35 5C0.35 5.35899 0.641015 5.65 1 5.65V4.35ZM9.45962 5.45962C9.71346 5.20578 9.71346 4.79422 9.45962 4.54038L5.32305 0.403806C5.0692 0.149965 4.65765 0.149965 4.40381 0.403806C4.14997 0.657647 4.14997 1.0692 4.40381 1.32304L8.08076 5L4.40381 8.67696C4.14997 8.9308 4.14997 9.34235 4.40381 9.59619C4.65765 9.85003 5.0692 9.85003 5.32305 9.59619L9.45962 5.45962ZM1 5.65H9V4.35H1V5.65Z" fill="#FF9A4E"/>
</svg>
