<svg width="25" height="24" viewBox="0 0 25 24" fill="none" xmlns="http://www.w3.org/2000/svg">
<path d="M11.9868 20.75C6.60682 20.75 2.23682 16.38 2.23682 11C2.23682 5.62 6.60682 1.25 11.9868 1.25C17.3668 1.25 21.7368 5.62 21.7368 11C21.7368 16.38 17.3668 20.75 11.9868 20.75ZM11.9868 2.75C7.43682 2.75 3.73682 6.45 3.73682 11C3.73682 15.55 7.43682 19.25 11.9868 19.25C16.5368 19.25 20.2368 15.55 20.2368 11C20.2368 6.45 16.5368 2.75 11.9868 2.75Z" fill="white"/>
<path d="M21.1469 22.79C21.0669 22.79 20.9869 22.78 20.9169 22.77C20.4469 22.71 19.5969 22.39 19.1169 20.96C18.8669 20.21 18.9569 19.46 19.3669 18.89C19.7769 18.32 20.4669 18 21.2569 18C22.2769 18 23.0769 18.39 23.4369 19.08C23.7969 19.77 23.6969 20.65 23.1269 21.5C22.4169 22.57 21.6469 22.79 21.1469 22.79ZM20.5469 20.49C20.7169 21.01 20.9569 21.27 21.1169 21.29C21.2769 21.31 21.5769 21.12 21.8869 20.67C22.1769 20.24 22.1969 19.93 22.1269 19.79C22.0569 19.65 21.7769 19.5 21.2569 19.5C20.9469 19.5 20.7169 19.6 20.5869 19.77C20.4669 19.94 20.4469 20.2 20.5469 20.49Z" fill="white"/>
</svg>
