<svg width="66" height="70" viewBox="0 0 66 70" fill="none" xmlns="http://www.w3.org/2000/svg">
<rect x="1" y="0.5" width="64" height="69" rx="10.5" stroke="#FF9A4E"/>
<path d="M37.0812 34.5119L35.9745 35.6311L37.463 36.9237C37.7342 36.6831 37.9943 36.3921 38.2544 36.1235C38.9715 35.4834 39.5677 35.4539 39.7761 35.5192C40.501 35.8102 40.5563 36.4033 40.5563 37.0636V45.6365C40.5619 49.0275 40.5176 52.4186 40.6117 55.8097C40.6454 56.3968 40.8093 56.9686 41.0914 57.4829C41.3734 57.9971 41.7664 58.4406 42.241 58.7803C42.7157 59.12 43.2599 59.3472 43.8333 59.4452C44.4067 59.5432 44.9945 59.5094 45.5532 59.3463C47.49 58.7923 48.4861 57.3486 48.4861 55.0039V32.9563C48.4643 32.7138 48.4962 32.4695 48.5795 32.2411C48.6628 32.0126 48.7953 31.8058 48.9675 31.6356C49.1497 31.4611 49.2931 31.2492 49.3879 31.0142C49.4828 30.7791 49.527 30.5263 49.5175 30.2727C49.5081 30.019 49.4453 29.7702 49.3333 29.5431C49.2212 29.3159 49.0626 29.1155 48.8679 28.9552C48.4031 28.4908 48.3809 28.183 48.8679 27.7298C49.204 27.4637 49.4292 27.0798 49.4989 26.6539C49.5685 26.228 49.4776 25.7912 49.2442 25.4299C48.9564 24.9486 49.1778 24.8255 49.471 24.5625C50.0494 24.0731 50.4142 23.3733 50.4867 22.6143C50.5592 21.8552 50.3335 21.0978 49.8584 20.5055C49.5849 20.1715 49.4103 19.766 49.3548 19.336C49.128 17.7244 48.8513 16.1184 48.5746 14.5124C48.475 13.9136 48.392 13.3093 47.5343 13.2981C46.6766 13.2869 46.5382 13.9248 46.4275 14.5571C46.2671 15.4972 46.1785 16.4373 45.9904 17.3551C45.7469 18.6197 45.6528 19.9795 44.8837 21.0595C44.1145 22.1395 44.5018 23.628 45.5256 24.5401C45.8576 24.8367 46.0513 24.9822 45.758 25.4858C45.5315 25.8381 45.444 26.2635 45.5127 26.6779C45.5813 27.0924 45.8011 27.4657 46.1287 27.7242C46.6434 28.2054 46.6323 28.5244 46.1287 29.0224C45.9376 29.1867 45.7834 29.3903 45.6762 29.6197C45.569 29.849 45.5114 30.0988 45.5073 30.3525C45.5031 30.6061 45.5524 30.8577 45.6519 31.0906C45.7514 31.3234 45.8989 31.5321 46.0845 31.7028C46.2496 31.8595 46.377 32.0526 46.4566 32.267C46.5362 32.4815 46.5661 32.7115 46.5438 32.9395V54.892C46.5486 55.2681 46.5115 55.6435 46.4331 56.0112C46.3279 56.436 46.0854 56.8131 45.744 57.0826C45.4026 57.3521 44.982 57.4985 44.5489 57.4985C44.1158 57.4985 43.6951 57.3521 43.3537 57.0826C43.0123 56.8131 42.7698 56.436 42.6647 56.0112C42.5835 55.6137 42.5464 55.2083 42.554 54.8024V36.8062C42.554 35.3457 41.973 34.2433 40.6338 33.6669C39.959 33.4114 38.3037 33.2226 37.0812 34.5119Z" fill="#FF9A4E"/>
<path d="M21.8068 14.322C22.0737 15.1383 22.4974 15.8932 23.0537 16.5433C22.1905 16.5433 21.5209 16.5154 20.7849 16.4874C20.049 16.4594 19.5011 16.7168 19.4956 17.489C19.4901 18.2613 20.0766 18.5299 20.7794 18.5299H23.8506C24.2545 18.5299 24.4593 18.5802 24.4593 19.0894V34.0695C24.4593 34.3046 24.5257 34.534 24.1826 34.6627C23.6071 34.8753 23.4909 35.4013 23.4521 35.9609C23.3879 36.9029 23.1185 37.8188 22.6631 38.643C22.2077 39.4673 21.5777 40.1795 20.8181 40.7286C19.3553 41.8472 18.0937 43.212 17.0885 44.7632C13.9675 49.6316 15.5722 55.1547 20.7905 57.4658C21.1225 57.6113 21.46 57.7288 21.615 58.1429C21.7017 58.3458 21.8524 58.5141 22.0436 58.6214C22.2348 58.7287 22.4557 58.769 22.6719 58.736H32.1732C32.5661 58.736 32.9977 58.7024 33.1526 58.3331C33.4127 57.6952 33.9661 57.5385 34.4862 57.2979C36.2116 56.5823 37.6306 55.272 38.4916 53.5993C39.3526 51.9265 39.6 49.9995 39.1898 48.1599C38.6842 45.845 37.4562 43.7557 35.687 42.2003C35.0009 41.568 35.0894 41.2714 35.687 40.7118C36.4783 40.0235 37.1922 39.2345 37.9337 38.4735C38.3487 38.0538 38.5203 37.483 38.1329 37.0577L36.1629 35.004C35.4436 34.3269 34.8902 34.7466 34.3368 35.3062C33.5455 36.1232 32.7376 36.9234 31.9242 37.7516C31.2269 36.6548 31.9131 35.0936 30.4688 34.4892C30.4411 34.4668 30.4411 34.2542 30.4411 34.1255V19.1454C30.4411 18.6698 30.6016 18.5858 31.0332 18.5858H34.1044C34.8072 18.5914 35.3993 18.3284 35.4048 17.5618C35.4104 16.7952 34.8238 16.5433 34.1265 16.5433H31.9795C33.2965 14.4169 33.5123 13.6615 33.4404 11.7141C33.4608 11.5492 33.4433 11.3818 33.3893 11.2249C33.3352 11.0679 33.2461 10.9257 33.1288 10.8093C33.0116 10.6929 32.8693 10.6054 32.7132 10.5537C32.557 10.5019 32.3912 10.4873 32.2285 10.511H22.7272C21.8695 10.5054 21.532 10.9419 21.4988 11.7869C21.4353 12.6442 21.54 13.5057 21.8068 14.322Z" fill="#FEFAE0"/>
</svg>
