<svg width="21" height="29" viewBox="0 0 21 29" fill="none" xmlns="http://www.w3.org/2000/svg">
<path d="M12.3888 14.6994L11.7563 15.3389L12.6069 16.0775C12.7619 15.94 12.9105 15.7738 13.0591 15.6203C13.4689 15.2545 13.8096 15.2376 13.9287 15.2749C14.3429 15.4412 14.3746 15.7802 14.3746 16.1575V21.0563C14.3777 22.994 14.3524 24.9318 14.4062 26.8695C14.4254 27.205 14.5191 27.5318 14.6803 27.8256C14.8415 28.1195 15.066 28.3729 15.3372 28.567C15.6085 28.7611 15.9194 28.891 16.2471 28.947C16.5747 29.003 16.9107 28.9836 17.2299 28.8904C18.3366 28.5739 18.9058 27.7489 18.9058 26.4091V13.8104C18.8934 13.6719 18.9116 13.5323 18.9592 13.4017C19.0068 13.2712 19.0825 13.153 19.1809 13.0558C19.2851 12.956 19.367 12.835 19.4212 12.7006C19.4754 12.5663 19.5006 12.4219 19.4952 12.2769C19.4898 12.132 19.454 11.9898 19.3899 11.86C19.3259 11.7302 19.2353 11.6157 19.124 11.5241C18.8584 11.2587 18.8457 11.0829 19.124 10.8238C19.3161 10.6718 19.4447 10.4524 19.4846 10.2091C19.5244 9.96572 19.4724 9.71611 19.339 9.50962C19.1746 9.23462 19.3011 9.16428 19.4687 9.01399C19.7992 8.73434 20.0076 8.33446 20.049 7.90071C20.0905 7.46695 19.9615 7.03413 19.69 6.69571C19.5337 6.50484 19.434 6.27316 19.4023 6.02741C19.2726 5.10649 19.1145 4.18877 18.9564 3.27105C18.8995 2.9289 18.8521 2.58356 18.3619 2.57717C17.8718 2.57077 17.7928 2.9353 17.7295 3.29663C17.6378 3.83383 17.5872 4.37104 17.4797 4.89545C17.3406 5.61811 17.2868 6.39513 16.8473 7.01227C16.4078 7.62942 16.6291 8.47998 17.2141 9.0012C17.4038 9.17067 17.5145 9.25381 17.3469 9.5416C17.2175 9.74292 17.1675 9.986 17.2067 10.2228C17.246 10.4596 17.3716 10.6729 17.5588 10.8206C17.8528 11.0956 17.8465 11.2779 17.5588 11.5625C17.4496 11.6564 17.3614 11.7728 17.3002 11.9038C17.2389 12.0349 17.206 12.1776 17.2036 12.3225C17.2013 12.4675 17.2294 12.6113 17.2863 12.7443C17.3432 12.8774 17.4274 12.9966 17.5335 13.0942C17.6279 13.1837 17.7006 13.294 17.7461 13.4166C17.7916 13.5391 17.8087 13.6706 17.7959 13.8008V26.3451C17.7987 26.56 17.7775 26.7746 17.7327 26.9846C17.6726 27.2274 17.534 27.4429 17.3389 27.5969C17.1439 27.7509 16.9035 27.8345 16.656 27.8345C16.4085 27.8345 16.1681 27.7509 15.9731 27.5969C15.778 27.4429 15.6394 27.2274 15.5793 26.9846C15.5329 26.7575 15.5117 26.5258 15.5161 26.294V16.0104C15.5161 15.1758 15.184 14.5459 14.4188 14.2165C14.0332 14.0705 13.0873 13.9626 12.3888 14.6994Z" fill="#FF9A4E"/>
<path d="M3.66055 3.16229C3.81303 3.62873 4.05518 4.0601 4.37305 4.43161C3.87977 4.43161 3.49716 4.41562 3.0766 4.39963C2.65604 4.38364 2.343 4.53073 2.33984 4.97201C2.33667 5.41328 2.67185 5.56676 3.07344 5.56676H4.82839C5.05923 5.56676 5.17622 5.59554 5.17622 5.88652V14.4466C5.17622 14.5809 5.21417 14.712 5.01812 14.7855C4.68926 14.907 4.62286 15.2076 4.60072 15.5274C4.56404 16.0656 4.41007 16.589 4.14985 17.06C3.88964 17.531 3.52961 17.938 3.09557 18.2517C2.25969 18.891 1.53876 19.6708 0.964327 20.5572C-0.819088 23.3392 0.0979172 26.4952 3.07976 27.8159C3.26949 27.899 3.46238 27.9661 3.55091 28.2028C3.60047 28.3187 3.68659 28.4149 3.79583 28.4762C3.90508 28.5375 4.03132 28.5605 4.15487 28.5417H9.58416C9.80867 28.5417 10.0553 28.5225 10.1439 28.3115C10.2925 27.9469 10.6087 27.8574 10.9059 27.7199C11.8918 27.311 12.7027 26.5623 13.1947 25.6064C13.6867 24.6506 13.8281 23.5494 13.5937 22.4982C13.3047 21.1754 12.603 19.9816 11.5921 19.0927C11.2 18.7314 11.2506 18.5619 11.5921 18.2422C12.0443 17.8488 12.4522 17.398 12.8759 16.9631C13.113 16.7233 13.2111 16.3971 12.9897 16.1541L11.864 14.9806C11.453 14.5937 11.1367 14.8335 10.8205 15.1532C10.3684 15.6201 9.9067 16.0774 9.44187 16.5506C9.04345 15.9239 9.43555 15.0317 8.61025 14.6864C8.59444 14.6736 8.59443 14.5521 8.59443 14.4785V5.9185C8.59443 5.6467 8.68613 5.59874 8.93278 5.59874H10.6877C11.0893 5.60194 11.4277 5.45165 11.4308 5.01358C11.434 4.5755 11.0988 4.43161 10.7004 4.43161H9.47349C10.2261 3.21651 10.3494 2.78483 10.3083 1.67205C10.3199 1.57783 10.3099 1.48216 10.2791 1.39249C10.2482 1.30281 10.1973 1.22155 10.1303 1.15503C10.0633 1.0885 9.98197 1.03851 9.89274 1.00894C9.80351 0.979378 9.70873 0.97104 9.61579 0.984567H4.18649C3.69637 0.981369 3.50348 1.23078 3.48451 1.71363C3.44824 2.20353 3.50806 2.69584 3.66055 3.16229Z" fill="#5F6F52"/>
</svg>
