<svg width="66" height="70" viewBox="0 0 66 70" fill="none" xmlns="http://www.w3.org/2000/svg">
<rect x="1" y="0.5" width="64" height="69" rx="10.5" stroke="#FF9A4E"/>
<path d="M32.9995 46.2565C29.6357 46.2565 26.279 46.2565 22.9293 46.2565C22.2707 46.3083 21.6143 46.1316 21.0708 45.756C20.5272 45.3805 20.1298 44.8291 19.9453 44.1947C19.1079 41.9793 18.2881 39.7585 17.4861 37.5325C17.4437 37.3209 17.33 37.1303 17.1642 36.9924C16.9983 36.8545 16.7901 36.7776 16.5744 36.7745C15.6851 36.6616 14.8574 36.2596 14.2187 35.6305C13.5801 35.0014 13.1657 34.1799 13.0393 33.2924C12.9165 32.4037 13.0833 31.499 13.5147 30.7125C13.9462 29.9259 14.6195 29.2992 15.4349 28.9251C16.2356 28.5504 17.1392 28.4565 17.9998 28.6585C18.8605 28.8604 19.628 29.3464 20.1785 30.0381C20.7075 30.6779 21.1038 31.4166 21.3445 32.2111C21.8056 33.5892 22.2668 34.9619 22.712 36.3452C22.8339 36.7162 22.9134 36.907 23.4328 36.7798C27.7106 35.7316 32.1335 35.4056 36.5188 35.8152C38.5948 35.9232 40.6528 36.2573 42.6563 36.8116C43.1227 36.96 43.1386 36.7321 43.2393 36.4353C43.7693 34.893 44.257 33.3454 44.7923 31.8083C45.7834 28.9728 48.4759 27.7643 50.8556 29.0788C51.6019 29.49 52.2034 30.1213 52.578 30.8867C52.9526 31.652 53.0822 32.5143 52.9492 33.356C52.8085 34.2272 52.3906 35.0298 51.7576 35.6447C51.1246 36.2596 50.3101 36.654 49.4352 36.7692C49.2193 36.7745 49.0115 36.8528 48.846 36.9915C48.6804 37.1301 48.5667 37.3208 48.5236 37.5325C47.7603 39.679 46.9706 41.815 46.1862 43.9562C45.5608 45.6522 44.6492 46.2565 42.8153 46.2512C39.5399 46.2512 36.2697 46.2512 32.9995 46.2512V46.2565Z" fill="#FEFAE0"/>
<path d="M17.1945 27.07C18.191 24.4889 20.8675 23.2487 23.7826 24.0172C24.4928 24.208 25.1924 24.4571 25.9026 24.6532C26.8742 24.9542 27.9108 24.9767 28.8945 24.7182C29.8783 24.4596 30.7698 23.9303 31.4678 23.1903C31.7526 22.9294 32.0233 22.6534 32.2787 22.3635C35.9146 17.8955 41.6069 17.5934 46.059 20.7311C48.4255 22.3803 50.1778 24.7683 51.0411 27.5205C49.9811 27.2449 48.9847 26.9587 47.9564 27.1972C46.9341 27.4148 45.9859 27.8947 45.2053 28.5898C44.4247 29.2849 43.8385 30.1713 43.5043 31.1617C43.0697 32.3278 42.6775 33.5097 42.3171 34.6969C42.1899 35.1103 42.0256 35.1845 41.6228 35.0997C35.896 33.9476 29.997 33.9476 24.2702 35.0997C23.8833 35.1739 23.7667 35.0997 23.6501 34.7446C23.3374 33.727 22.9611 32.7306 22.6325 31.7183C21.795 28.9728 19.9559 27.4304 17.1945 27.07Z" fill="#FF9A4E"/>
<path d="M38.1512 47.6662C39.6299 47.6662 40.9974 47.6662 42.3648 47.6662C42.7782 47.6662 42.9743 47.767 42.9372 48.1963C42.9107 48.5196 42.9372 48.8482 42.9372 49.1768C42.9372 50.4753 42.5344 51.0901 41.5963 51.2703C40.1599 51.5406 39.4179 51.1484 38.9462 49.8499C38.6759 49.1715 38.4374 48.4719 38.1512 47.6662Z" fill="#FEFAE0"/>
<path d="M27.8425 47.6663C27.4927 48.6309 27.2117 49.5001 26.8566 50.3164C26.5015 51.1326 25.6323 51.4877 24.4133 51.2598C24.0268 51.2001 23.6758 51.0001 23.4274 50.698C23.179 50.3959 23.0508 50.0128 23.0671 49.622C22.9134 47.6451 22.9133 47.6451 24.8691 47.6451L27.8425 47.6663Z" fill="#FEFAE0"/>
</svg>
