<svg width="82" height="80" viewBox="0 0 82 80" fill="none" xmlns="http://www.w3.org/2000/svg">
<path d="M41.0176 79.9912C63.1066 79.9912 81.0132 62.0846 81.0132 39.9956C81.0132 17.9066 63.1066 0 41.0176 0C18.9286 0 1.02199 17.9066 1.02199 39.9956C1.02199 62.0846 18.9286 79.9912 41.0176 79.9912Z" fill="#5F6F52"/>
<path d="M41.0176 79.7714C30.5091 79.7577 20.4318 75.5916 12.9814 68.1807C5.53106 60.7699 1.31138 50.7149 1.2418 40.2066H11.7309C11.6635 44.0959 12.3713 47.9596 13.8131 51.5724C15.2548 55.1852 17.4017 58.4747 20.1283 61.249C22.8549 64.0232 26.1067 66.2267 29.694 67.7309C33.2812 69.235 37.1321 70.0097 41.022 70.0097C44.9118 70.0097 48.7627 69.235 52.35 67.7309C55.9373 66.2267 59.1891 64.0232 61.9157 61.249C64.6423 58.4747 66.7892 55.1852 68.2309 51.5724C69.6727 47.9596 70.3805 44.0959 70.3131 40.2066H80.7934C80.7284 50.7164 76.5102 60.774 69.0588 68.1858C61.6075 75.5977 51.5275 79.7623 41.0176 79.7714Z" fill="#FEFAE0"/>
<path d="M80.5736 40.4352C80.5736 50.9284 76.4052 60.9919 68.9853 68.4118C61.5655 75.8316 51.5021 80 41.0088 80C30.5156 80 20.4521 75.8316 13.0323 68.4118C5.61243 60.9919 1.44401 50.9284 1.44401 40.4352H11.4847C11.6183 48.1738 14.7862 55.5503 20.306 60.9756C25.8258 66.401 33.2559 69.4411 40.9956 69.4411C48.7353 69.4411 56.1654 66.401 61.6852 60.9756C67.2051 55.5503 70.373 48.1738 70.5066 40.4352H80.5472M80.9956 39.9956H0.986816C0.986816 50.6054 5.20156 60.7807 12.7038 68.283C20.2061 75.7853 30.3814 80 40.9912 80C51.601 80 61.7763 75.7853 69.2786 68.283C76.7809 60.7807 80.9956 50.6054 80.9956 39.9956ZM40.9912 69.3087C33.2814 69.3064 25.8881 66.242 20.4373 60.7895C14.9864 55.337 11.9243 47.9428 11.9243 40.233H70.0669C70.0646 47.9437 67.0005 55.3378 61.5483 60.7901C56.096 66.2423 48.7019 69.3064 40.9912 69.3087Z" fill="#5F6F52"/>
<path d="M41.0176 12.6871C35.6172 12.6888 30.3386 14.2917 25.8491 17.2931C21.3596 20.2945 17.8608 24.5595 15.7949 29.5491C13.7291 34.5388 13.1891 40.0289 14.2431 45.3254C15.297 50.6219 17.8977 55.487 21.7164 59.3056C25.535 63.1243 30.4001 65.725 35.6966 66.7789C40.9931 67.8329 46.4832 67.2929 51.4729 65.2271C56.4625 63.1612 60.7276 59.6624 63.7289 55.1729C66.7303 50.6834 68.3332 45.4048 68.3349 40.0044C68.3279 32.7615 65.4476 25.8174 60.3261 20.6959C55.2047 15.5744 48.2605 12.6941 41.0176 12.6871Z" fill="#5F6F52"/>
<path d="M9.83174 41.8332L10.2714 45.9655L9.62074 46.0358L9.4449 44.3829L4.02013 44.9632L3.9322 44.1455L9.35697 43.5652L9.18113 41.9035L9.83174 41.8332Z" fill="#5F6F52"/>
<path d="M11.8364 51.4342L12.1617 52.2695L7.25564 56.393L6.94791 55.5929L8.19641 54.5554L7.31719 52.3574L5.69942 52.4629L5.43566 51.7947L11.8364 51.4342ZM7.95022 52.3134L8.67118 54.1422L11.1506 52.1464L7.95022 52.3134Z" fill="#5F6F52"/>
<path d="M15.1686 57.9492L15.661 58.5911L13.2255 60.4462L16.971 60.3231L17.4897 61.0089L14.5444 61.0529L12.9354 65.1149L12.3639 64.3587L13.7355 61.0529H12.3903L10.7725 62.2838L10.2802 61.6419L15.1686 57.9492Z" fill="#5F6F52"/>
<path d="M20.8484 64.3675L21.5078 64.8599L19.934 66.9788L21.9386 68.4647L23.5124 66.337L24.1806 66.8293L20.5494 71.7442L19.8812 71.2518L21.5429 69.001L19.5647 67.5239L17.903 69.7659L17.2436 69.2823L20.8484 64.3675Z" fill="#5F6F52"/>
<path d="M28.7173 69.1944L31.9704 70.4253L31.7331 71.0408L29.2361 70.1L28.5415 71.9552L30.2999 72.6234L30.0714 73.2564L28.3129 72.5794L27.3194 75.217L26.5545 74.9357L28.7173 69.1944Z" fill="#5F6F52"/>
<path d="M36.3401 71.3397L37.149 71.454L36.3138 77.503L35.5049 77.3887L36.3401 71.3397Z" fill="#5F6F52"/>
<path d="M42.4243 71.6562L45.8885 71.3573L45.9412 72.0079L43.3036 72.2365L43.4794 74.2148L45.3785 74.0477L45.4313 74.7159L43.5322 74.883L43.7784 77.6789L42.9607 77.7492L42.4243 71.6562Z" fill="#5F6F52"/>
<path d="M54.0212 70.9968C53.8731 70.6618 53.6201 70.3841 53.3003 70.2055C53.1543 70.1378 52.9952 70.1028 52.8343 70.1028C52.6733 70.1028 52.5143 70.1378 52.3683 70.2055C52.1469 70.2858 51.9522 70.4262 51.8062 70.6111C51.6602 70.7959 51.5686 71.0178 51.5418 71.2518C51.4667 71.908 51.5668 72.5724 51.832 73.1773C52.0092 73.7603 52.3475 74.2815 52.8079 74.6807C52.9849 74.8222 53.1967 74.9132 53.4211 74.9441C53.6456 74.9751 53.8742 74.9449 54.0828 74.8566C54.2587 74.7991 54.4195 74.7029 54.5534 74.5751C54.6873 74.4473 54.7909 74.2911 54.8565 74.118C54.9741 73.6948 54.9398 73.2438 54.7598 72.8432L55.4895 72.6321C55.6135 72.9074 55.682 73.2044 55.6911 73.5061C55.7002 73.8079 55.6496 74.1084 55.5423 74.3906C55.4227 74.6494 55.2508 74.8807 55.0374 75.0698C54.8241 75.2589 54.5739 75.4019 54.3026 75.4896C53.9943 75.619 53.6595 75.6729 53.3261 75.6469C52.9928 75.6209 52.6704 75.5158 52.3859 75.3402C51.7299 74.8891 51.2464 74.2289 51.0143 73.4674C50.6736 72.699 50.5993 71.8387 50.8033 71.0232C50.8858 70.6911 51.0495 70.3847 51.2797 70.1314C51.5099 69.8782 51.7994 69.6862 52.1221 69.5725C52.401 69.4606 52.7014 69.4125 53.0013 69.4318C53.2752 69.4438 53.5441 69.5096 53.7926 69.6252C53.9967 69.7307 54.1811 69.8705 54.3377 70.0385C54.4303 70.1407 54.5155 70.2494 54.5927 70.3638C54.6651 70.4826 54.7297 70.6059 54.7862 70.7331L54.0212 70.9968Z" fill="#5F6F52"/>
<path d="M59.9296 65.1676C60.1914 64.9481 60.5028 64.7957 60.8368 64.7237C61.1708 64.6517 61.5173 64.6622 61.8463 64.7544C62.6084 65.0494 63.2747 65.5482 63.7725 66.1964C64.2702 66.8446 64.5802 67.6171 64.6685 68.4295C64.6611 68.7688 64.5776 69.1021 64.4242 69.4048C64.2709 69.7075 64.0515 69.972 63.7824 70.1787C63.5133 70.3854 63.2012 70.5291 62.8691 70.5991C62.5371 70.6692 62.1935 70.6639 61.8638 70.5836C61.0826 70.329 60.4083 69.8217 59.9471 69.1417C59.4187 68.5129 59.11 67.7287 59.0679 66.9085C59.0594 66.5701 59.1334 66.2348 59.2835 65.9315C59.4336 65.6282 59.6554 65.366 59.9296 65.1676ZM60.6593 68.5878C61.0215 69.1194 61.5194 69.5444 62.1012 69.8187C62.309 69.9152 62.5393 69.9531 62.7671 69.9284C62.9949 69.9036 63.2115 69.817 63.3937 69.678C63.577 69.5388 63.7188 69.3523 63.804 69.1385C63.8892 68.9247 63.9145 68.6918 63.8772 68.4647C63.7595 67.8297 63.4742 67.2378 63.0508 66.7502C62.6895 66.2144 62.1875 65.7885 61.6001 65.5193C61.3935 65.4217 61.1638 65.3841 60.9369 65.4105C60.71 65.4369 60.495 65.5264 60.3164 65.6688C60.1332 65.8056 59.9917 65.9908 59.9079 66.2036C59.824 66.4163 59.8011 66.6482 59.8416 66.8733C59.9518 67.509 60.2347 68.1021 60.6593 68.5878Z" fill="#5F6F52"/>
<path d="M65.2137 60.2264L67.2886 57.4305L67.8162 57.8261L66.2248 59.9627L67.8162 61.1408L68.9591 59.6109L69.4955 60.0154L68.3525 61.5452L70.6033 63.2157L70.1197 63.8664L65.2137 60.2264Z" fill="#5F6F52"/>
<path d="M69.3812 53.5092L70.6824 50.2913L71.289 50.5286L70.2868 52.9992L72.1243 53.7466L72.8453 51.9881L73.4607 52.2343L72.7486 53.9928L75.3862 55.0478L75.0785 55.8039L69.3812 53.5092Z" fill="#5F6F52"/>
<path d="M71.7199 46.027L72.1507 42.5102L72.8013 42.5981L72.4672 45.2358L74.4455 45.4819L74.6916 43.5037L75.3423 43.5828L75.1049 45.5611L77.2501 45.8248L77.5843 43.0905L78.2261 43.1696L77.7865 46.6865L71.7199 46.027Z" fill="#5F6F52"/>
<path d="M3.61568 35.6083L4.4949 32.0914L5.0576 32.2321L4.70592 33.6476L9.36576 34.7994L9.18992 35.5028L4.53886 34.351L4.18717 35.7754L3.61568 35.6083Z" fill="#FEFAE0"/>
<path d="M7.14134 25.5589L7.51061 24.8555L13.1024 25.7787L12.7508 26.4469L11.344 26.2183L10.3769 28.0558L11.3704 29.0757L11.0802 29.6296L7.14134 25.5589ZM9.95485 27.6426L10.7637 26.1128L8.00298 25.6116L9.95485 27.6426Z" fill="#FEFAE0"/>
<path d="M11.7924 18.4987L12.276 17.9624L14.2894 19.7824L13.5772 16.5557L14.0872 15.993L14.6059 18.5339L18.3777 19.2725L17.8238 19.8879L14.7378 19.2373L14.9752 20.3979L16.2852 21.5848L15.8016 22.1211L11.7924 18.4987Z" fill="#FEFAE0"/>
<path d="M18.8261 11.9398L19.4328 11.5441L20.6989 13.496L22.5452 12.3002L21.2704 10.3484L21.8858 9.95275L24.84 14.5071L24.2245 14.9027L22.8881 12.8366L21.0506 14.0323L22.387 16.0985L21.7803 16.4941L18.8261 11.9398Z" fill="#FEFAE0"/>
<path d="M27.7942 7.18322L30.6868 6.20727L30.8714 6.75238L28.6558 7.49972L29.2097 9.15266L30.8011 8.61632L30.9857 9.17903L29.3943 9.71534L30.1856 12.0541L29.5086 12.2827L27.7942 7.18322Z" fill="#FEFAE0"/>
<path d="M36.2698 5.11705L36.9908 5.02913L37.615 10.3748L36.8941 10.4539L36.2698 5.11705Z" fill="#FEFAE0"/>
<path d="M43.3036 4.8357L46.3456 5.10825L46.3017 5.67974L43.963 5.47754L43.8135 7.23597L45.484 7.38542L45.4313 7.97451L43.7607 7.82503L43.5409 10.2869L42.8288 10.2253L43.3036 4.8357Z" fill="#FEFAE0"/>
<path d="M54.3729 8.96804C54.4768 8.66606 54.4768 8.33805 54.3729 8.03607C54.3147 7.90686 54.2297 7.79145 54.1237 7.69748C54.0176 7.60352 53.8928 7.53312 53.7575 7.49093C53.5616 7.42056 53.35 7.40633 53.1465 7.44983C52.943 7.49333 52.7557 7.59282 52.6057 7.73711C52.1898 8.13818 51.8866 8.64149 51.7265 9.19662C51.5208 9.69103 51.4569 10.2329 51.5418 10.7616C51.5815 10.9572 51.6737 11.1382 51.8084 11.2854C51.9432 11.4325 52.1154 11.5402 52.3068 11.5969C52.456 11.6589 52.6174 11.6863 52.7788 11.6772C52.9402 11.6681 53.0974 11.6226 53.2387 11.5441C53.5622 11.3255 53.7962 10.9978 53.8981 10.6209L54.5136 10.8935C54.364 11.412 54.0166 11.8508 53.5465 12.1156C53.299 12.2167 53.034 12.2674 52.7668 12.265C52.4995 12.2625 52.2355 12.2069 51.99 12.1013C51.7444 11.9957 51.5224 11.8423 51.3368 11.6501C51.1511 11.4578 51.0057 11.2305 50.9088 10.9814C50.7212 10.3068 50.7645 9.58883 51.0319 8.94167C51.2423 8.23601 51.6777 7.6185 52.2716 7.18323C52.5162 7.00658 52.8004 6.89257 53.0993 6.85119C53.3982 6.8098 53.7026 6.84229 53.9861 6.94582C54.2225 7.02907 54.4405 7.15747 54.6279 7.32388C54.8048 7.48815 54.9481 7.68523 55.0499 7.90417C55.1281 8.08863 55.1756 8.28465 55.1906 8.48446C55.2017 8.61023 55.2017 8.73674 55.1906 8.86251C55.1906 8.94164 55.1906 9.05596 55.1203 9.21422L54.3729 8.96804Z" fill="#FEFAE0"/>
<path d="M62.8925 11.5265C63.1504 11.6866 63.3653 11.9072 63.5185 12.1692C63.6718 12.4313 63.7587 12.7268 63.7718 13.03C63.7648 13.7534 63.5208 14.4545 63.0772 15.0258C62.6955 15.6411 62.1249 16.1161 61.4506 16.3798C61.1654 16.4629 60.8652 16.4816 60.5718 16.4345C60.2785 16.3873 59.9993 16.2756 59.7544 16.1073C59.5095 15.939 59.3051 15.7184 59.156 15.4614C59.0069 15.2044 58.9167 14.9175 58.8921 14.6214C58.9387 13.905 59.1793 13.2147 59.5882 12.6246C59.9971 12.0345 60.5588 11.5668 61.2132 11.2716C61.4934 11.1787 61.7916 11.1534 62.0835 11.1977C62.3753 11.242 62.6525 11.3547 62.8925 11.5265ZM60.2549 13.0564C59.9113 13.505 59.6901 14.0352 59.613 14.595C59.586 14.7955 59.6153 14.9995 59.6976 15.1843C59.7799 15.369 59.9119 15.5273 60.079 15.6413C60.2442 15.7574 60.4381 15.8261 60.6395 15.8401C60.841 15.854 61.0424 15.8126 61.222 15.7204C61.7063 15.4305 62.1231 15.0405 62.4445 14.5765C62.766 14.1125 62.9847 13.5853 63.086 13.03C63.1094 12.8302 63.0775 12.6278 62.9937 12.4448C62.91 12.2619 62.7777 12.1054 62.6112 11.9925C62.4485 11.8744 62.256 11.8043 62.0554 11.7903C61.8549 11.7763 61.6545 11.819 61.477 11.9134C60.9606 12.1746 60.5235 12.5693 60.2109 13.0564H60.2549Z" fill="#FEFAE0"/>
<path d="M69.2053 17.1447L71.2099 19.4571L70.7703 19.8263L69.2405 18.0679L67.9217 19.2109L69.0207 20.477L68.5723 20.8638L67.4733 19.5978L65.6093 21.2067L65.1345 20.6704L69.2053 17.1447Z" fill="#FEFAE0"/>
<path d="M74.3839 24.2488L75.7994 26.9568L75.2983 27.2206L74.2081 25.1456L72.6607 25.9545L73.4431 27.4404L72.9156 27.7129L72.1419 26.227L69.9527 27.37L69.6185 26.737L74.3839 24.2488Z" fill="#FEFAE0"/>
<path d="M77.8217 32.4255L78.5602 35.4237L77.9975 35.5644L77.4348 33.2696L75.7291 33.6828L76.1511 35.3885L75.5884 35.5292L75.1664 33.8235L73.3201 34.2807L73.9003 36.637L73.3464 36.7689L72.5991 33.7092L77.8217 32.4255Z" fill="#FEFAE0"/>
<path d="M41.1055 68.1833C56.6732 68.1833 69.2932 55.5633 69.2932 39.9956C69.2932 24.428 56.6732 11.8079 41.1055 11.8079C25.5379 11.8079 12.9178 24.428 12.9178 39.9956C12.9178 55.5633 25.5379 68.1833 41.1055 68.1833Z" fill="#FF9A4E"/>
<path d="M41.1055 68.6229C35.4436 68.6212 29.9093 66.9405 25.2025 63.7935C20.4958 60.6464 16.8279 56.1743 14.6628 50.9427C12.4976 45.7111 11.9325 39.9549 13.0388 34.4021C14.1451 28.8493 16.8731 23.7492 20.878 19.7468C24.8828 15.7444 29.9845 13.0195 35.538 11.9166C41.0915 10.8138 46.8473 11.3824 52.0776 13.5508C57.3079 15.7191 61.7778 19.3897 64.9219 24.0984C68.0661 28.8071 69.7434 34.3425 69.7417 40.0044C69.73 47.594 66.7087 54.8691 61.3404 60.2341C55.9721 65.5991 48.6951 68.616 41.1055 68.6229ZM41.1055 12.2475C35.6182 12.2492 30.2546 13.8779 25.6928 16.9276C21.131 19.9772 17.5758 24.311 15.4767 29.3809C13.3776 34.4509 12.8289 40.0294 13.8998 45.4112C14.9708 50.7929 17.6133 55.7364 21.4934 59.6165C25.3736 63.4966 30.317 66.1392 35.6988 67.2101C41.0806 68.2811 46.659 67.7323 51.729 65.6332C56.7989 63.5341 61.1327 59.9789 64.1824 55.4171C67.232 50.8553 68.8607 45.4917 68.8624 40.0044C68.8555 32.645 65.9288 25.589 60.7249 20.385C55.521 15.1811 48.465 12.2545 41.1055 12.2475Z" fill="#FEFAE0"/>
<path d="M61.3539 34.5005C59.6834 34.5005 58.0041 34.4477 56.3336 34.5005C55.5071 34.5005 55.3664 34.2631 55.4016 33.5246C55.4632 32.1794 55.3313 32.0914 53.9597 32.0914H24.0663C23.1871 32.0914 22.9761 32.3024 22.9761 33.1817C22.9761 35.327 22.9761 37.4635 22.9761 39.6C22.9687 41.9241 23.4675 44.222 24.4377 46.3339C25.4079 48.4459 26.8262 50.3213 28.5942 51.8299C28.7085 51.9266 28.9459 51.9706 28.858 52.2343H24.2245C23.1343 52.2343 22.8442 52.5684 22.9936 53.6498C23.158 54.8875 23.7669 56.0231 24.7068 56.8449C25.6466 57.6667 26.8534 58.1186 28.1019 58.1163C36.1438 58.1163 44.1857 58.1163 52.2276 58.1163C53.4749 58.1106 54.6774 57.6503 55.6097 56.8216C56.5419 55.9929 57.14 54.8527 57.2919 53.6147C57.415 52.5684 57.1424 52.2519 56.0962 52.2431H49.3526C50.2766 51.5961 51.0775 50.7892 51.7177 49.8604C52.5178 48.4273 53.6696 48.1811 55.2346 48.1987C56.2082 48.2046 57.1733 48.0164 58.0733 47.6449C58.9734 47.2734 59.7903 46.7262 60.4764 46.0352C61.1624 45.3443 61.7038 44.5235 62.0688 43.6208C62.4339 42.7181 62.6153 41.7517 62.6024 40.7781C62.6024 39.0724 62.6024 37.3755 62.6024 35.6699C62.5321 34.7291 62.2859 34.5093 61.3539 34.5005ZM55.0323 43.0465C55.3175 42.0588 55.4422 41.0317 55.4016 40.0044C55.3577 39.301 55.5775 39.0285 56.2808 39.1252C56.4067 39.134 56.533 39.134 56.6589 39.1252C57.8986 39.1252 57.8986 39.1252 57.8898 40.3737C57.8898 42.1321 57.0106 43.2927 55.595 43.5564C55.1994 43.6532 54.8389 43.7499 55.0323 43.0465ZM55.4016 53.8257C55.4483 53.8192 55.4956 53.8192 55.5423 53.8257C55.394 54.5984 54.9792 55.2945 54.3703 55.7926C53.7613 56.2907 52.9968 56.5592 52.21 56.5513C50.8648 56.5513 49.5284 56.5513 48.192 56.5513H28.3569C27.6076 56.5989 26.8622 56.412 26.224 56.0165C25.5859 55.621 25.0868 55.0366 24.796 54.3444C24.6378 53.9664 24.5674 53.7554 25.1301 53.7554C35.2177 53.8081 45.3082 53.8316 55.4016 53.8257ZM47.049 51.9881C46.752 52.184 46.4025 52.2852 46.0467 52.2783H32.2782C31.9697 52.2944 31.6635 52.2178 31.399 52.0585C29.6838 50.9952 28.2092 49.5859 27.0692 47.9207C25.9293 46.2554 25.1491 44.3708 24.7784 42.3871C24.2157 39.6263 24.5762 36.8304 24.4707 34.0609C24.4707 33.6037 24.7081 33.6476 24.9982 33.6476H53.2123C53.6783 33.6476 53.8893 33.7004 53.8806 34.2543C53.8366 36.1358 53.8806 38.0174 53.8806 39.8989C53.8387 42.3235 53.1918 44.6992 51.9988 46.8104C50.8058 48.9216 49.1044 50.7013 47.049 51.9881ZM60.8879 41.7628C60.6927 43.1816 59.9774 44.4773 58.8808 45.3985C57.7841 46.3197 56.3844 46.8006 54.9532 46.748H53.8542C54.0564 46.2644 54.2322 45.8688 54.3729 45.4643C54.5136 45.0599 54.7246 45.2182 54.9532 45.2094C57.8898 45.0511 59.4812 43.363 59.4812 40.4001C59.4812 39.811 59.4812 39.2131 59.4812 38.6416C59.4812 38.0701 59.1295 37.6569 58.4789 37.6481C57.5997 37.6481 56.782 37.6481 55.9291 37.6481C55.2961 37.6481 55.428 37.27 55.4631 36.9535C55.4983 36.637 55.1642 36.0743 55.9379 36.0743C57.4766 36.0743 59.024 36.0743 60.5714 36.0743C60.8176 36.0743 61.0374 36.0743 61.0198 36.4172C61.0955 38.2 61.0515 39.9859 60.8879 41.7628Z" fill="#FEFAE0"/>
<path d="M38.4415 27.4052C38.1162 27.8536 37.9403 28.2844 38.4415 28.6889C38.9426 29.0933 39.3207 28.7768 39.6812 28.3636C40.4196 27.5898 40.836 26.5641 40.8458 25.4945C40.8556 24.425 40.4581 23.3918 39.7339 22.6047C39.3723 22.2505 39.1482 21.7795 39.1015 21.2755C39.0548 20.7715 39.1886 20.2673 39.479 19.8527C39.5498 19.7339 39.6059 19.607 39.646 19.4747C39.6871 19.2897 39.6565 19.0959 39.5601 18.9327C39.4638 18.7695 39.3091 18.6489 39.1273 18.5954C38.7228 18.4548 38.4503 18.6746 38.2041 18.9735C37.7397 19.6212 37.5048 20.4054 37.5366 21.2018C37.5685 21.9981 37.8652 22.7611 38.3799 23.3696C39.5669 24.961 39.5933 25.8666 38.4415 27.4052Z" fill="#FEFAE0"/>
<path d="M42.7408 29.1373C42.6276 29.2768 42.533 29.4305 42.4595 29.5945C42.4249 29.7141 42.4189 29.8403 42.4423 29.9627C42.4656 30.0852 42.5175 30.2003 42.5938 30.2989C42.6701 30.3974 42.7685 30.4766 42.8812 30.5299C42.9938 30.5831 43.1174 30.6091 43.242 30.6055C43.4876 30.562 43.7076 30.4269 43.8575 30.2275C44.5978 29.4969 45.0429 28.5192 45.1078 27.4811C45.1726 26.4431 44.8527 25.4176 44.2092 24.6005C43.3827 23.5542 43.0398 22.5783 43.8663 21.4001C43.9167 21.3237 43.9509 21.2377 43.9667 21.1475C43.9825 21.0573 43.9796 20.9648 43.9582 20.8757C43.9367 20.7867 43.8972 20.703 43.8421 20.6299C43.787 20.5567 43.7174 20.4957 43.6377 20.4506C43.5693 20.3897 43.4893 20.3434 43.4025 20.3143C43.3158 20.2852 43.224 20.2741 43.1328 20.2815C43.0416 20.2888 42.9528 20.3147 42.8718 20.3573C42.7908 20.4 42.7194 20.4587 42.6617 20.5297C42.3341 20.8627 42.0979 21.2745 41.9759 21.7254C41.7901 22.3155 41.7596 22.9436 41.8874 23.5489C42.0153 24.1542 42.2971 24.7163 42.7057 25.1808C43.8663 26.7018 43.8662 27.625 42.7408 29.1373Z" fill="#FEFAE0"/>
<path d="M34.2828 28.9966C34.1814 29.1115 34.0902 29.2351 34.0102 29.3659C33.9456 29.4472 33.8986 29.5412 33.8723 29.6417C33.846 29.7423 33.841 29.8472 33.8576 29.9498C33.8741 30.0524 33.9119 30.1504 33.9684 30.2376C34.025 30.3248 34.0991 30.3992 34.1861 30.4561C34.2622 30.5169 34.35 30.5614 34.4441 30.5869C34.5381 30.6124 34.6364 30.6183 34.7328 30.6043C34.8292 30.5903 34.9218 30.5567 35.0047 30.5055C35.0876 30.4543 35.1591 30.3866 35.2147 30.3066C36.04 29.477 36.518 28.3639 36.5512 27.1942C36.5663 26.2082 36.219 25.2508 35.5752 24.5038C35.1593 24.1315 34.8953 23.6189 34.8337 23.0642C34.772 22.5094 34.9171 21.9514 35.2411 21.4969C35.3064 21.4153 35.3529 21.3203 35.3774 21.2187C35.4019 21.1171 35.4037 21.0114 35.3827 20.909C35.3617 20.8067 35.3185 20.7101 35.256 20.6264C35.1936 20.5426 35.1134 20.4736 35.0213 20.4242C34.9364 20.3632 34.8394 20.3212 34.7368 20.301C34.6343 20.2807 34.5285 20.2828 34.4268 20.307C34.3251 20.3311 34.2298 20.3769 34.1473 20.4411C34.0648 20.5053 33.9971 20.5865 33.9487 20.6792C33.6038 21.129 33.3771 21.6579 33.2893 22.2178C33.2137 22.7669 33.257 23.3259 33.4163 23.8568C33.5756 24.3878 33.8471 24.8782 34.2125 25.2951C34.7079 25.7792 34.993 26.4389 35.0061 27.1314C35.0193 27.824 34.7595 28.494 34.2828 28.9966Z" fill="#FEFAE0"/>
<path d="M50.9528 38.8351C50.3901 38.8351 50.1703 39.2131 50.1527 39.7143C50.097 42.493 49.0022 45.1499 47.0842 47.1612C46.7325 47.5393 46.5567 47.9701 46.9875 48.3745C47.4183 48.779 47.8667 48.5944 48.2536 48.1899C50.3132 46.0009 51.5338 43.1549 51.7001 40.1539V39.7582C51.7265 39.2571 51.5243 38.8526 50.9528 38.8351Z" fill="#FEFAE0"/>
<path d="M44.9741 49.0428C44.7842 49.0631 44.6086 49.1529 44.481 49.2949C44.3533 49.4369 44.2827 49.6211 44.2827 49.8121C44.2827 50.003 44.3533 50.1872 44.481 50.3292C44.6086 50.4712 44.7842 50.5611 44.9741 50.5814C45.0791 50.5915 45.185 50.579 45.2848 50.5448C45.3845 50.5106 45.4758 50.4553 45.5525 50.3829C45.6291 50.3104 45.6893 50.2223 45.7291 50.1246C45.7688 50.0269 45.7872 49.9219 45.783 49.8165C45.7951 49.7088 45.7822 49.5998 45.7453 49.4979C45.7084 49.3961 45.6485 49.3041 45.5702 49.2292C45.4919 49.1543 45.3974 49.0985 45.294 49.0662C45.1906 49.0338 45.0811 49.0258 44.9741 49.0428Z" fill="#FEFAE0"/>
</svg>
