<svg width="35" height="36" viewBox="0 0 35 36" fill="none" xmlns="http://www.w3.org/2000/svg">
<g clip-path="url(#clip0_315_3918)">
<path d="M17.5 0C27.1652 0 35 8.0586 35 18C35 27.9414 27.1652 36 17.5 36C7.83475 36 0 27.9414 0 18C0 8.0586 7.83475 0 17.5 0ZM25.2735 10.8C24.6068 10.8126 23.583 11.1726 18.6602 13.2516C15.2048 14.7353 11.759 16.2426 8.323 17.7732C7.483 18.1134 7.0455 18.4446 7.00525 18.7686C6.92825 19.3914 7.81025 19.584 8.91975 19.9512C9.8245 20.25 11.0425 20.5992 11.676 20.6136C12.25 20.6262 12.8905 20.385 13.5975 19.8936C18.4275 16.5816 20.9178 14.9094 21.0753 14.8734C21.1855 14.8482 21.3378 14.8158 21.4428 14.9094C21.546 15.003 21.5355 15.1794 21.5233 15.228C21.4358 15.6078 16.9015 19.7964 16.6407 20.0718L16.5148 20.2014C15.5523 21.1788 14.581 21.8178 16.2575 22.9392C17.773 23.9526 18.655 24.5988 20.2125 25.6392C21.21 26.3016 21.9923 27.0882 23.0212 26.9928C23.4955 26.9478 23.9837 26.496 24.234 25.146C24.8202 21.96 25.9752 15.0516 26.2412 12.204C26.2573 11.9678 26.2474 11.7305 26.2115 11.4966C26.1899 11.3078 26.0999 11.1342 25.9595 11.0106C25.7477 10.8342 25.4188 10.7982 25.2735 10.8Z" fill="#FF9A4E"/>
</g>
<defs>
<clipPath id="clip0_315_3918">
<rect width="35" height="36" fill="white"/>
</clipPath>
</defs>
</svg>
