<svg width="32" height="32" viewBox="0 0 32 32" fill="none" xmlns="http://www.w3.org/2000/svg">
<path d="M15.9999 0C24.5912 0 31.5554 7.1632 31.5554 16C31.5554 24.8368 24.5912 32 15.9999 32C7.40856 32 0.444336 24.8368 0.444336 16C0.444336 7.1632 7.40856 0 15.9999 0ZM22.9097 9.6C22.317 9.6112 21.407 9.9312 17.0312 11.7792C13.9598 13.0981 10.8968 14.4378 7.84256 15.7984C7.09589 16.1008 6.707 16.3952 6.67122 16.6832C6.60278 17.2368 7.38678 17.408 8.373 17.7344C9.17723 18 10.2599 18.3104 10.823 18.3232C11.3332 18.3344 11.9026 18.12 12.531 17.6832C16.8243 14.7392 19.0379 13.2528 19.1779 13.2208C19.2759 13.1984 19.4112 13.1696 19.5046 13.2528C19.5963 13.336 19.587 13.4928 19.5761 13.536C19.4983 13.8736 15.4679 17.5968 15.2361 17.8416L15.1241 17.9568C14.2686 18.8256 13.4052 19.3936 14.8954 20.3904C16.2426 21.2912 17.0266 21.8656 18.411 22.7904C19.2977 23.3792 19.993 24.0784 20.9077 23.9936C21.3292 23.9536 21.7632 23.552 21.9857 22.352C22.5068 19.52 23.5334 13.3792 23.7699 10.848C23.7842 10.638 23.7753 10.4271 23.7434 10.2192C23.7243 10.0514 23.6443 9.8971 23.5194 9.7872C23.3312 9.6304 23.0388 9.5984 22.9097 9.6Z" fill="#581C00"/>
</svg>
