<svg width="66" height="70" viewBox="0 0 66 70" fill="none" xmlns="http://www.w3.org/2000/svg">
<rect x="1" y="0.5" width="64" height="69" rx="10.5" stroke="#FF9A4E"/>
<path d="M17 63.1272C17.142 63.0339 17.2548 62.9019 17.3252 62.7464C17.3539 62.6501 17.4591 62.6019 17.5164 62.5199C17.679 62.2934 17.8703 62.0813 17.9946 61.8403C18.119 61.5993 18.272 61.421 18.4154 61.2138C18.5165 61.0212 18.6401 60.8416 18.7836 60.6788C18.8402 60.6365 18.8793 60.5747 18.8936 60.5053C18.8901 60.4894 18.8901 60.4729 18.8936 60.4571C19.0562 60.298 19.104 60.0618 19.2618 59.9028C19.2618 59.9028 19.3096 59.8594 19.3144 59.8353C19.3909 59.6329 19.5583 59.4883 19.6396 59.2907C19.6709 59.2218 19.7128 59.1583 19.7639 59.1027C19.8248 59.0391 19.8692 58.9613 19.893 58.8762C19.8881 58.8589 19.8881 58.8405 19.893 58.8232C20.0291 58.6343 20.1522 58.4363 20.2612 58.2303C20.3066 58.168 20.3466 58.1019 20.3808 58.0327C20.4097 57.9439 20.4588 57.863 20.5242 57.7966C20.5611 57.7669 20.5906 57.729 20.6103 57.6857C20.6485 57.4158 20.9115 57.2519 20.9498 56.982C20.9584 56.9473 20.9786 56.9166 21.0072 56.8953C21.0721 56.8341 21.1213 56.7581 21.1506 56.6736C21.1894 56.5382 21.2599 56.4142 21.3563 56.3121C21.3746 56.2896 21.3877 56.2633 21.3945 56.235C21.4369 56.0939 21.5068 55.9629 21.6001 55.8494C21.6387 55.7984 21.665 55.739 21.6766 55.6759C21.7103 55.5502 21.7706 55.4334 21.8536 55.3337C21.8942 55.2908 21.9223 55.2374 21.9349 55.1794C21.9715 55.0477 22.0369 54.9259 22.1261 54.8228C22.1261 54.8228 22.1261 54.8228 22.15 54.7987C22.2385 54.5569 22.344 54.3217 22.4656 54.095C22.5022 53.9642 22.5657 53.8426 22.6521 53.7383C22.7105 53.6513 22.7496 53.5527 22.7669 53.4492C22.7824 53.3918 22.8084 53.3379 22.8434 53.2901C22.9225 53.1892 22.9796 53.0726 23.0108 52.9479C23.0285 52.8367 23.0804 52.7339 23.159 52.6539C23.1779 52.631 23.1924 52.6049 23.202 52.5768C23.2723 52.334 23.3753 52.1021 23.5081 51.8876C23.5227 51.8572 23.5323 51.8246 23.5368 51.7912C23.5464 51.7017 23.5892 51.6192 23.6565 51.5602C23.7239 51.5012 23.811 51.4701 23.9002 51.4731H42.0281C42.1197 51.4677 42.2097 51.4983 42.2793 51.5586C42.3489 51.6188 42.3926 51.7039 42.4011 51.796C42.4224 51.9055 42.47 52.0081 42.5398 52.0948C42.6075 52.1761 42.6521 52.2744 42.6689 52.3792C42.6924 52.5028 42.7485 52.6176 42.8314 52.7117C42.8916 52.8053 42.9323 52.9103 42.951 53.0202C42.9635 53.083 42.9896 53.1423 43.0275 53.1937C43.1046 53.2905 43.1616 53.4019 43.1949 53.5215C43.2407 53.6339 43.2934 53.7433 43.3527 53.8492C43.4674 54.095 43.6013 54.3312 43.7113 54.5866C43.7415 54.6981 43.7954 54.8017 43.8691 54.8903C43.8691 54.8903 43.8691 54.8903 43.8691 54.9192C43.9552 55.2084 44.1704 55.4349 44.2517 55.7241C44.2598 55.7658 44.2798 55.8043 44.309 55.8349C44.3982 55.9362 44.4636 56.0565 44.5003 56.1868C44.5003 56.2253 44.5003 56.2783 44.5577 56.3121C44.682 56.4181 44.7059 56.5868 44.792 56.7169C44.8781 56.8471 44.9641 57.0881 45.0885 57.2471C45.2128 57.4062 45.2415 57.5941 45.361 57.7291C45.4806 57.864 45.4949 57.9701 45.5714 58.0713C45.6827 58.2831 45.8073 58.4876 45.9444 58.6834C46.0039 58.7348 46.0415 58.8073 46.0496 58.8858C46.0519 58.9152 46.0618 58.9434 46.0783 58.9678C46.2147 59.1374 46.3348 59.3198 46.4369 59.5124C46.566 59.7389 46.7382 59.9414 46.853 60.1775C46.853 60.1775 46.853 60.2113 46.8817 60.2209C47.0299 60.3751 47.0825 60.592 47.2355 60.7414C47.3012 60.801 47.3492 60.8777 47.3742 60.9631C47.3981 61.0499 47.4937 61.0885 47.5224 61.1607C47.6181 61.3921 47.8428 61.5367 47.9193 61.7777C47.9193 61.8162 47.9719 61.8403 48.0006 61.8693C48.0293 61.8982 48.0532 61.9174 48.0723 61.9464C48.2242 62.2036 48.4021 62.4442 48.6031 62.6645C48.6748 62.7561 48.6892 62.891 48.7944 62.9537C48.8526 62.9927 48.9003 63.0457 48.9331 63.1079V63.32C48.9044 63.3586 48.9331 63.4164 48.8661 63.4405C48.7992 63.4646 48.7848 63.4405 48.7561 63.4646H41.4495C41.4208 63.4357 41.3778 63.4646 41.3443 63.4357C41.2939 63.4096 41.2531 63.3679 41.2282 63.3167C41.2032 63.2654 41.1953 63.2074 41.2056 63.1513C41.2653 62.4912 41.2845 61.828 41.263 61.1656C41.2733 60.9284 41.2475 60.6911 41.1865 60.4619C41.0956 60.1149 41.043 59.7486 40.9283 59.4112C40.8434 59.0757 40.7181 58.752 40.5553 58.4472C40.4453 58.2737 40.3879 58.0713 40.2923 57.8881C39.9879 57.3362 39.6273 56.8177 39.2164 56.341C38.7478 55.8127 38.2161 55.3449 37.6336 54.9481C37.3073 54.7082 36.9562 54.5046 36.5864 54.3408C36.2708 54.2107 35.9552 54.0613 35.63 53.9552C35.1586 53.8177 34.6796 53.7083 34.1955 53.6275C33.9383 53.5655 33.6755 53.53 33.4112 53.5215C32.9478 53.4926 32.4826 53.5168 32.0245 53.5937C31.7233 53.666 31.4124 53.7046 31.1064 53.748C30.9897 53.7659 30.8757 53.7983 30.7669 53.8444C30.6091 53.9223 30.4393 53.9729 30.2648 53.9938C30.2229 53.9953 30.1819 54.0068 30.1453 54.0275C29.6784 54.2311 29.2234 54.4612 28.7824 54.7167C28.4955 54.9095 28.1943 55.083 27.9265 55.2999C27.533 55.5994 27.1723 55.9403 26.8506 56.3169C26.6497 56.5627 26.4441 56.7989 26.2528 57.064C26.0616 57.329 25.9755 57.5459 25.832 57.7532C25.5588 58.2493 25.3254 58.7667 25.1339 59.3003C25.1311 59.3227 25.1311 59.3454 25.1339 59.3678C25.0622 59.8498 24.9044 60.2739 24.8183 60.7318C24.8112 60.8087 24.8112 60.8862 24.8183 60.9631V62.4524C24.81 62.6657 24.8261 62.8791 24.8661 63.0886C24.8779 63.1269 24.8821 63.1672 24.8783 63.2071C24.8746 63.247 24.8631 63.2858 24.8444 63.3212C24.8257 63.3566 24.8003 63.3879 24.7695 63.4134C24.7388 63.4388 24.7034 63.4578 24.6653 63.4694H17.1769C17.1769 63.4453 17.1243 63.4694 17.0956 63.4405C17.067 63.4116 17.0335 63.3634 17 63.3248V63.1272Z" fill="#FF9A4E"/>
<path d="M33.2295 6.53374C33.2826 6.56523 33.3253 6.61167 33.3525 6.66733C33.3797 6.72299 33.3901 6.78546 33.3825 6.84703V8.92434C33.3825 9.15086 33.3825 9.17497 33.6168 9.17497H34.095C34.1336 9.17041 34.1727 9.17406 34.2097 9.18568C34.2468 9.1973 34.281 9.21664 34.3102 9.24244C34.4736 9.38591 34.5791 9.58485 34.6067 9.80153C34.6067 10.0714 34.6354 10.3413 34.6641 10.6112C34.6881 10.7563 34.7025 10.9028 34.7071 11.0498C34.7148 11.138 34.6968 11.2266 34.6551 11.3045C34.6135 11.3825 34.5501 11.4464 34.4728 11.4884C34.4728 11.4884 34.4345 11.5222 34.4154 11.527C34.1189 11.6282 34.1476 11.7391 34.1811 12.0716C34.205 12.2789 34.1811 12.4861 34.1811 12.6934C34.1811 12.7609 34.1381 12.785 34.0807 12.7898C34.0072 12.8014 33.9321 12.7906 33.8647 12.7588C33.7974 12.727 33.7411 12.6757 33.7029 12.6114C33.6595 12.5356 33.5989 12.4712 33.526 12.4235C33.4432 12.3662 33.3837 12.2806 33.3586 12.1825C33.3156 12.0042 33.3299 11.9222 33.483 11.821C33.5547 11.7776 33.636 11.7391 33.5929 11.633C33.5499 11.527 33.459 11.5511 33.3634 11.5897C33.3147 11.6106 33.2683 11.6364 33.2247 11.6668C33.1533 11.7127 33.0703 11.7371 32.9856 11.7371C32.9009 11.7371 32.818 11.7127 32.7465 11.6668C32.6716 11.6119 32.581 11.5831 32.4883 11.5848C32.4357 11.5848 32.3927 11.5848 32.3736 11.6475C32.3646 11.6701 32.364 11.6952 32.3719 11.7182C32.3798 11.7413 32.3957 11.7606 32.4166 11.7728L32.474 11.8162C32.5505 11.874 32.6414 11.9222 32.6366 12.0475C32.6401 12.1153 32.6277 12.183 32.6003 12.245C32.5728 12.307 32.5312 12.3616 32.4788 12.4042C32.3864 12.4659 32.3095 12.5484 32.254 12.6452C32.2281 12.6843 32.1942 12.7174 32.1547 12.7423C32.1151 12.7672 32.0707 12.7834 32.0245 12.7898C31.8237 12.8283 31.7902 12.7898 31.7902 12.5922C31.7846 12.3507 31.7958 12.1091 31.8237 11.8692C31.836 11.8074 31.8252 11.7432 31.7935 11.689C31.7617 11.6347 31.7111 11.5942 31.6515 11.5752C31.5849 11.538 31.521 11.4961 31.4602 11.4499C31.4112 11.4185 31.3701 11.376 31.3402 11.3258C31.3103 11.2756 31.2925 11.2191 31.2881 11.1607C31.2666 11.025 31.2666 10.8867 31.2881 10.751C31.3209 10.5924 31.3385 10.431 31.3407 10.269C31.3407 10.0859 31.3407 9.90275 31.3742 9.7196C31.4215 9.52846 31.5309 9.35879 31.685 9.23762C31.7119 9.2148 31.7432 9.19787 31.777 9.18791C31.8107 9.17795 31.8462 9.17518 31.881 9.17978H32.3592C32.5935 9.17978 32.6174 9.15569 32.6174 8.92916C32.6174 8.24475 32.6174 7.55553 32.6174 6.87112C32.6065 6.80659 32.6153 6.74023 32.6426 6.68084C32.6699 6.62144 32.7145 6.57183 32.7705 6.53856C32.7992 6.50482 32.8518 6.53856 32.8805 6.50482H33.0908C33.153 6.53374 33.2008 6.5 33.2295 6.53374Z" fill="#FEFAE0"/>
<path d="M17 63.3393L17.11 63.4453C17.11 63.4453 17.11 63.4453 17.11 63.4694C17 63.4839 17 63.4839 17 63.3393Z" fill="#FF9A4E"/>
<path d="M48.9235 63.4598L49 63.3537C48.9976 63.3842 48.9976 63.4148 49 63.4453C49 63.5176 48.9617 63.4935 48.9283 63.4983C48.8948 63.5031 48.9283 63.4983 48.9283 63.4742C48.9283 63.4501 48.9187 63.4598 48.9235 63.4598Z" fill="#FF9A4E"/>
<path d="M32.9139 6.5C32.9139 6.5482 32.8422 6.52892 32.8039 6.53374C32.8065 6.52848 32.8078 6.52272 32.8078 6.51687C32.8078 6.51103 32.8065 6.50526 32.8039 6.5H32.9139Z" fill="#FEFAE0"/>
<path d="M33.2295 6.53374C33.1913 6.53374 33.1482 6.53374 33.1243 6.5H33.2295C33.227 6.50526 33.2257 6.51103 33.2257 6.51687C33.2257 6.52272 33.227 6.52849 33.2295 6.53374Z" fill="#FEFAE0"/>
<path d="M48.9235 63.4598L48.9235 63.4984H48.8326C48.8326 63.4598 48.8852 63.4598 48.9235 63.4598Z" fill="#FF9A4E"/>
<path d="M17.1052 63.4839V63.4598C17.1339 63.4598 17.1626 63.4598 17.1721 63.4984L17.1052 63.4839Z" fill="#FF9A4E"/>
<path d="M41.3778 63.4839V63.4598C41.3917 63.455 41.407 63.4559 41.4203 63.4622C41.4337 63.4685 41.4441 63.4797 41.4495 63.4935L41.3778 63.4839Z" fill="#FF9A4E"/>
<path d="M24.2205 51.0345C24.1098 51.0329 24.0007 51.0071 23.9008 50.9588C23.8009 50.9105 23.7126 50.841 23.6419 50.7549C23.6062 50.7082 23.5805 50.6545 23.5665 50.5973C23.5525 50.54 23.5505 50.4804 23.5606 50.4224C23.5606 49.8633 23.5606 49.2994 23.5606 48.7355C23.566 48.6414 23.5788 48.5479 23.5989 48.4559C23.606 48.4215 23.6226 48.3897 23.6467 48.3643C23.7758 48.2319 23.9432 48.1441 24.1249 48.1137C24.2189 48.1089 24.3131 48.1089 24.407 48.1137H41.8511C42.0516 48.1271 42.2396 48.2167 42.3772 48.3643C42.4824 48.4559 42.468 48.6053 42.4728 48.7306C42.4728 49.2994 42.4728 49.8681 42.4728 50.4368C42.473 50.5191 42.4564 50.6005 42.4239 50.676C42.3915 50.7515 42.3439 50.8194 42.2842 50.8755C42.2245 50.9316 42.1539 50.9747 42.077 51.0021C42 51.0294 41.9182 51.0404 41.8368 51.0345H24.2205Z" fill="#FF9A4E"/>
<path d="M32.9904 32.2664C32.9411 32.3721 32.9058 32.4839 32.8852 32.5989C32.8374 32.946 32.8231 33.293 32.8087 33.64C32.7935 33.9092 32.7568 34.1768 32.6987 34.4401C32.6112 34.8132 32.5616 35.1943 32.5505 35.5775C32.5415 35.8464 32.5014 36.1133 32.431 36.3728C32.431 36.4403 32.3927 36.5077 32.3783 36.58C32.3699 36.6657 32.3287 36.7447 32.2636 36.8004C32.1985 36.8562 32.1145 36.8843 32.0293 36.8789C30.9629 36.8789 29.9014 36.8789 28.8398 36.8789C28.6246 36.8789 28.5625 36.7969 28.5577 36.5849C28.559 36.4594 28.5884 36.3358 28.6437 36.2234C28.7312 36.0188 28.7814 35.8 28.792 35.5775C28.8004 35.4307 28.8311 35.2861 28.8828 35.1486C28.9934 34.8894 29.0535 34.6113 29.0598 34.3292C29.0788 34.1479 29.1256 33.9707 29.1984 33.8039C29.2595 33.6318 29.295 33.4515 29.3036 33.2689C29.3364 32.9246 29.4236 32.5878 29.5619 32.2712C29.5804 32.214 29.6153 32.1637 29.6623 32.1266L30.48 31.3747C30.6999 31.1675 30.9103 30.9506 31.1351 30.7385C31.4459 30.4493 31.7711 30.1698 32.0914 29.871C32.331 29.6632 32.5548 29.4377 32.7609 29.1962C32.8342 29.1235 32.933 29.0827 33.0359 29.0827C33.1387 29.0827 33.2375 29.1235 33.3108 29.1962C33.4729 29.3813 33.6488 29.5537 33.8368 29.7119C33.9277 29.7987 34.0185 29.8951 34.1142 29.9818L34.6545 30.4638L35.2235 31.0036C35.6204 31.3699 35.9886 31.7555 36.3951 32.1073C36.4393 32.1451 36.4737 32.193 36.4955 32.2471C36.6391 32.5767 36.7248 32.929 36.7489 33.2882C36.7695 33.522 36.826 33.7513 36.9163 33.9677C36.9687 34.123 36.9962 34.2857 36.9976 34.4497C37.0054 34.6679 37.0558 34.8825 37.1458 35.0811C37.211 35.256 37.2513 35.4394 37.2654 35.6257C37.2803 35.8248 37.3271 36.0201 37.4041 36.2041C37.4701 36.3352 37.5014 36.4813 37.4949 36.6282C37.4949 36.7777 37.428 36.85 37.2893 36.8692C37.2368 36.874 37.184 36.874 37.1315 36.8692H34.0472C33.9588 36.8775 33.8707 36.851 33.8012 36.7954C33.7316 36.7397 33.6862 36.6591 33.6742 36.5704C33.5999 36.2752 33.5424 35.9758 33.5021 35.6739C33.4948 35.5503 33.4948 35.4264 33.5021 35.3028C33.4828 35.0153 33.4397 34.7299 33.373 34.4497C33.3044 34.1327 33.2644 33.8101 33.2534 33.4858C33.2471 33.1728 33.2216 32.8605 33.1769 32.5507C33.1685 32.4924 33.1475 32.4367 33.1152 32.3875C33.083 32.3384 33.0404 32.297 32.9904 32.2664Z" fill="#FEFAE0"/>
<path d="M33.0095 40.2479C31.3311 40.2479 29.6623 40.2479 27.9838 40.2479C27.8453 40.2534 27.7081 40.218 27.5892 40.1461C27.4703 40.0742 27.3748 39.9688 27.3144 39.843C27.2618 39.7253 27.2435 39.5949 27.2618 39.4671C27.2736 39.2777 27.2736 39.0877 27.2618 38.8983C27.2618 38.6429 27.2618 38.3826 27.2618 38.1224C27.2473 37.9775 27.2742 37.8316 27.3395 37.7017C27.4048 37.5719 27.5056 37.4636 27.63 37.3898C27.7202 37.3343 27.8262 37.3106 27.9312 37.3223H37.734C37.9096 37.3086 38.0863 37.3167 38.26 37.3464C38.3279 37.3561 38.3912 37.3864 38.4417 37.4331L38.6186 37.6115C38.6575 37.6516 38.688 37.6991 38.7086 37.7512C38.7291 37.8033 38.7391 37.859 38.7382 37.9151C38.7382 38.3537 38.7382 38.7971 38.7382 39.2405C38.7502 39.3736 38.7502 39.5075 38.7382 39.6406C38.7279 39.7631 38.6831 39.8802 38.6091 39.978C38.5455 40.0662 38.4621 40.138 38.3657 40.1874C38.2692 40.2369 38.1625 40.2625 38.0544 40.2623C36.3998 40.243 34.6975 40.2479 33.0095 40.2479Z" fill="#FEFAE0"/>
<path d="M38.26 47.6559H36.0747C35.9265 47.6559 35.826 47.5739 35.8165 47.4341C35.7691 47.1331 35.6971 46.8364 35.6013 46.5473C35.5728 46.3977 35.5536 46.2463 35.5439 46.0943C35.5053 45.8675 35.4461 45.6449 35.367 45.4291C35.3296 45.299 35.3088 45.1645 35.3048 45.0291C35.2912 44.8059 35.2428 44.5864 35.1614 44.3784C35.0855 44.1695 35.0419 43.95 35.0323 43.7278C35.0154 43.5041 34.9638 43.2846 34.8792 43.0771C34.8274 42.9211 34.7953 42.7592 34.7836 42.5951C34.7741 42.3898 34.7355 42.1869 34.6688 41.9927C34.5766 41.771 34.5264 41.534 34.5206 41.2938C34.5137 41.2123 34.4993 41.1316 34.4776 41.0528C34.4393 40.8745 34.4776 40.7925 34.6641 40.7395C34.7576 40.7012 34.8622 40.7012 34.9558 40.7395C35.0017 40.7469 35.0485 40.7469 35.0944 40.7395H37.9635C38.0262 40.7362 38.0885 40.7282 38.15 40.7154C38.3413 40.6865 38.5182 40.7154 38.5756 40.9757C38.5958 41.0777 38.633 41.1754 38.6856 41.2649C38.7672 41.4268 38.8144 41.6041 38.8242 41.7854C38.8422 41.9384 38.891 42.086 38.9677 42.2192C39.0291 42.3389 39.065 42.4702 39.0729 42.6048C39.0872 42.7637 39.138 42.9172 39.2211 43.053C39.2686 43.1269 39.2981 43.2112 39.3072 43.2988C39.3282 43.5149 39.3916 43.7246 39.4937 43.9157C39.5582 44.0607 39.5986 44.2154 39.6132 44.3736C39.617 44.4201 39.6284 44.4657 39.6467 44.5086C39.779 44.7432 39.8636 45.0021 39.8954 45.2701C39.9065 45.3029 39.9226 45.3338 39.9432 45.3617C40.0277 45.502 40.0845 45.6575 40.1106 45.8195C40.1259 45.961 40.1751 46.0967 40.254 46.2147C40.3331 46.3388 40.3776 46.4819 40.3831 46.6292C40.3949 46.7282 40.4311 46.8227 40.4883 46.904C40.5884 47.0565 40.6478 47.2325 40.6605 47.4149C40.666 47.4473 40.6645 47.4805 40.656 47.5123C40.6476 47.544 40.6323 47.5735 40.6114 47.5988C40.5905 47.624 40.5643 47.6443 40.5348 47.6583C40.5053 47.6724 40.4731 47.6797 40.4405 47.6799H38.2552L38.26 47.6559Z" fill="#FEFAE0"/>
<path d="M27.7591 47.6558H25.6264C25.4208 47.6558 25.3156 47.5209 25.373 47.3281C25.3954 47.1553 25.4577 46.9903 25.5547 46.8461C25.6052 46.7737 25.635 46.6886 25.6407 46.6003C25.6635 46.4187 25.7256 46.2443 25.8224 46.0894C25.88 45.993 25.9128 45.8837 25.9181 45.7713C25.9335 45.6313 25.9792 45.4964 26.052 45.3761C26.1198 45.2535 26.1652 45.1196 26.1859 44.9809C26.2018 44.8589 26.2407 44.7411 26.3006 44.6338C26.3877 44.4674 26.4428 44.2859 26.4632 44.0988C26.4758 43.9941 26.5118 43.8936 26.5684 43.8048C26.6466 43.6674 26.6939 43.5144 26.7071 43.3566C26.7225 43.2166 26.7682 43.0817 26.841 42.9614C26.9055 42.8493 26.9446 42.7242 26.9557 42.5951C26.9651 42.4265 27.0108 42.262 27.0896 42.1131C27.1727 41.9515 27.2215 41.7742 27.2331 41.5926C27.2445 41.4935 27.2686 41.3963 27.3048 41.3034C27.3688 41.1726 27.4232 41.0373 27.4674 40.8985C27.4772 40.8553 27.4958 40.8147 27.522 40.7792C27.5483 40.7437 27.5816 40.7141 27.6199 40.6923C27.6582 40.6705 27.7005 40.657 27.7442 40.6527C27.788 40.6484 27.8321 40.6533 27.8739 40.6672C27.9536 40.6871 28.0357 40.6952 28.1177 40.6913H30.8816C30.9684 40.6951 31.0552 40.687 31.1398 40.6672C31.2132 40.6479 31.2907 40.6518 31.3617 40.6786C31.4328 40.7053 31.4939 40.7535 31.5367 40.8166C31.5493 40.8337 31.5583 40.8532 31.5632 40.8739C31.5681 40.8946 31.5689 40.9161 31.5654 40.9371C31.5277 41.0787 31.5068 41.2243 31.5033 41.3709C31.496 41.5188 31.462 41.6642 31.4028 41.7998C31.2975 42.1349 31.2301 42.4809 31.202 42.8312C31.1819 42.9337 31.1514 43.0338 31.1111 43.1301C31.0346 43.3839 30.9881 43.646 30.9725 43.9109C30.9554 44.051 30.9217 44.1885 30.8721 44.3205C30.7944 44.5227 30.7477 44.7356 30.7334 44.9519C30.7249 45.1748 30.6796 45.3947 30.5995 45.6026C30.5137 45.846 30.4653 46.1012 30.456 46.3593C30.4385 46.5243 30.3999 46.6863 30.3413 46.8413C30.2855 46.9972 30.247 47.1588 30.2265 47.3232C30.1978 47.545 30.1165 47.6221 29.8918 47.6221L27.7591 47.6558Z" fill="#FEFAE0"/>
<path d="M35.1662 26.3815C35.1728 26.4157 35.1695 26.4512 35.1568 26.4836C35.1441 26.516 35.1225 26.5442 35.0944 26.5646C34.7788 26.8008 34.5158 27.0996 34.2242 27.3647C33.9325 27.6298 33.746 27.8467 33.4925 28.0539C33.4112 28.1214 33.3634 28.2178 33.2821 28.2853C33.2479 28.3275 33.2044 28.3611 33.1549 28.3832C33.1055 28.4053 33.0515 28.4154 32.9975 28.4125C32.9435 28.4097 32.8909 28.3941 32.8439 28.367C32.797 28.3399 32.7571 28.302 32.7274 28.2564C32.2493 27.7744 31.7711 27.3262 31.2929 26.8635C31.1932 26.7543 31.0826 26.6558 30.9629 26.5695C30.8577 26.5068 30.8434 26.3959 30.896 26.2514C30.9426 26.1437 31.0169 26.0505 31.1112 25.9814C31.2786 25.8291 31.4382 25.6682 31.5894 25.4995C31.6802 25.4031 31.7759 25.3163 31.8715 25.2296C31.9671 25.1428 32.1345 24.9789 32.2588 24.8536C32.4163 24.7222 32.5605 24.5752 32.6892 24.415C32.72 24.3636 32.763 24.3207 32.8142 24.29C32.8654 24.2592 32.9233 24.2417 32.9828 24.2388C33.0423 24.236 33.1016 24.2479 33.1555 24.2736C33.2094 24.2993 33.2561 24.3379 33.2917 24.3861C33.5834 24.7283 33.9277 25.0127 34.2481 25.3501C34.4705 25.5857 34.7052 25.8093 34.951 26.02C35.0135 26.0578 35.0658 26.1106 35.1034 26.1737C35.1409 26.2367 35.1625 26.3081 35.1662 26.3815Z" fill="#FEFAE0"/>
<path d="M32.6605 28.7576C32.6844 28.8636 32.6079 28.9214 32.5362 28.9745C32.3556 29.1205 32.1876 29.2818 32.0341 29.4564L31.6993 29.7697C31.2642 30.1698 30.8482 30.5891 30.4178 30.9987C30.3273 31.0828 30.2426 31.173 30.1644 31.2687C30.0696 31.3662 29.9411 31.4232 29.8057 31.4277C29.7388 31.4277 29.7005 31.3843 29.7053 31.3168C29.7038 31.2517 29.7119 31.1868 29.7292 31.1241C29.7968 30.8938 29.8337 30.6556 29.8392 30.4156C29.8606 30.1454 29.9185 29.8795 30.0114 29.6251C30.0537 29.4859 30.0779 29.3417 30.0831 29.1962C30.0995 28.8372 30.1573 28.4814 30.2552 28.1358C30.3129 27.9321 30.3419 27.7211 30.3413 27.5093C30.3413 27.3454 30.3652 27.1815 30.3796 27.0273C30.4082 26.7526 30.6234 26.7381 30.8338 26.873C30.9003 26.9225 30.9627 26.9773 31.0203 27.0369C31.4602 27.4707 31.9002 27.9045 32.3449 28.3334C32.3814 28.3696 32.4214 28.4019 32.4644 28.4298C32.5691 28.5097 32.6393 28.627 32.6605 28.7576Z" fill="#FEFAE0"/>
<path d="M36.3329 31.2591C36.3329 31.4085 36.3042 31.4278 36.1751 31.4037C36.0273 31.3711 35.8954 31.2875 35.8022 31.1675C35.6252 30.9651 35.4148 30.7916 35.2236 30.5988C35.0323 30.406 34.7071 30.1168 34.4489 29.8517C34.3198 29.7264 34.1907 29.6011 34.0472 29.4854C33.9038 29.3697 33.8607 29.2926 33.7603 29.2059C33.68 29.1202 33.5902 29.0442 33.4925 28.9793C33.3586 28.8926 33.3443 28.7962 33.4064 28.6419C33.4397 28.5545 33.494 28.4767 33.5643 28.4154C33.8559 28.1744 34.1046 27.8901 34.3819 27.6394C34.6593 27.3888 34.8984 27.1575 35.1518 26.8876C35.1933 26.8455 35.2441 26.8141 35.3001 26.796C35.4913 26.7237 35.6539 26.796 35.6539 27.0177C35.6539 27.2394 35.6969 27.4033 35.6969 27.5961C35.7061 27.8372 35.7496 28.0758 35.8261 28.3046C35.8976 28.5653 35.9362 28.8341 35.9408 29.1046C35.9547 29.339 35.9981 29.5706 36.0699 29.7939C36.1412 29.9991 36.1847 30.2131 36.199 30.4301C36.2108 30.6777 36.2493 30.9234 36.3138 31.1627C36.3183 31.1952 36.3247 31.2273 36.3329 31.2591Z" fill="#FEFAE0"/>
<path d="M33.0526 23.5668C32.9897 23.5721 32.9266 23.5607 32.8695 23.5336C32.8124 23.5066 32.7634 23.4648 32.7274 23.4125C32.6029 23.2516 32.4601 23.1061 32.3019 22.9787C32.1967 22.8823 32.1058 22.7763 32.0054 22.6799C31.8362 22.5295 31.6765 22.3685 31.5272 22.1979C31.4991 22.1743 31.477 22.1442 31.4627 22.1102C31.4485 22.0762 31.4425 22.0393 31.4453 22.0025C31.4481 21.9657 31.4597 21.9301 31.4789 21.8987C31.4981 21.8673 31.5245 21.841 31.5559 21.822C31.7239 21.6703 31.8835 21.5094 32.0341 21.34C32.254 21.128 32.4692 20.9062 32.6844 20.6942C32.722 20.6563 32.7571 20.6161 32.7896 20.5737C32.8219 20.5351 32.8622 20.5041 32.9076 20.4829C32.953 20.4616 33.0025 20.4506 33.0526 20.4506C33.1027 20.4506 33.1522 20.4616 33.1976 20.4829C33.243 20.5041 33.2833 20.5351 33.3156 20.5737C33.5403 20.834 33.7938 21.0557 34.0329 21.3015L34.3963 21.663L34.5541 21.8027C34.5832 21.8217 34.6076 21.8471 34.6255 21.877C34.6435 21.9069 34.6545 21.9405 34.6577 21.9753C34.6609 22.0101 34.6563 22.0451 34.6441 22.0779C34.632 22.1106 34.6126 22.1401 34.5876 22.1642C34.4389 22.3353 34.2792 22.4963 34.1094 22.6462C33.899 22.8582 33.679 23.0607 33.4638 23.2679C33.4256 23.3113 33.3921 23.3643 33.3539 23.4077C33.3244 23.4608 33.2802 23.5042 33.2267 23.5324C33.1732 23.5607 33.1127 23.5726 33.0526 23.5668Z" fill="#FEFAE0"/>
<path d="M30.6234 25.4994C30.6395 25.2636 30.6763 25.0298 30.7334 24.8006C30.7717 24.6174 30.8147 24.4391 30.8386 24.2511C30.8721 23.9764 30.8625 23.7017 30.8912 23.4269C30.9187 23.164 30.9635 22.9031 31.0251 22.6461C31.0538 22.5353 31.1159 22.4774 31.2259 22.4919C31.2784 22.4884 31.3309 22.4991 31.378 22.5228C31.425 22.5465 31.465 22.5824 31.4937 22.6269C31.5933 22.7801 31.7177 22.9154 31.8619 23.0269C31.986 23.1607 32.1186 23.2863 32.2588 23.4028C32.364 23.4848 32.4501 23.586 32.5553 23.6679C32.5917 23.7017 32.6202 23.7431 32.6388 23.7893C32.6575 23.8355 32.6657 23.8852 32.663 23.935C32.6602 23.9848 32.6466 24.0333 32.623 24.0772C32.5994 24.121 32.5665 24.159 32.5266 24.1885C32.2014 24.4728 31.905 24.7813 31.5941 25.0801C31.3646 25.297 31.1494 25.5283 30.9247 25.7501C30.8816 25.7934 30.8338 25.8513 30.7573 25.8223C30.7208 25.8109 30.6886 25.7887 30.6647 25.7587C30.6409 25.7286 30.6265 25.692 30.6234 25.6537C30.6137 25.6027 30.6137 25.5504 30.6234 25.4994Z" fill="#FEFAE0"/>
<path d="M35.41 25.5332C35.4125 25.5749 35.4125 25.6167 35.41 25.6585C35.4064 25.6967 35.3918 25.7329 35.368 25.7629C35.3442 25.7929 35.3123 25.8152 35.2762 25.8272C35.2044 25.8272 35.1614 25.7983 35.1231 25.7597C34.9414 25.5862 34.7645 25.403 34.5876 25.2295L33.6695 24.3234L33.5499 24.2222C33.4998 24.1816 33.4582 24.1312 33.4278 24.0741C33.3974 24.0169 33.3788 23.9542 33.373 23.8896C33.3663 23.8451 33.3733 23.7995 33.3929 23.7591C33.4126 23.7186 33.444 23.6851 33.483 23.6631C33.6337 23.5538 33.773 23.4295 33.899 23.292C34.0807 23.1378 34.2481 22.9594 34.4202 22.81C34.4673 22.7587 34.5104 22.704 34.5493 22.6461C34.5941 22.5918 34.6543 22.5526 34.7218 22.5336C34.7893 22.5147 34.8609 22.5169 34.9271 22.5401C34.9495 22.5535 34.9688 22.5717 34.9837 22.5933C34.9985 22.6149 35.0086 22.6395 35.0132 22.6654C35.0132 22.8678 35.0992 23.0655 35.1184 23.2727C35.1423 23.5523 35.1518 23.8366 35.1709 24.1162C35.2018 24.4074 35.2546 24.6958 35.3288 24.9789C35.3802 25.1592 35.4075 25.3456 35.41 25.5332Z" fill="#FEFAE0"/>
<path d="M33.0143 19.7929C32.9712 19.7967 32.9278 19.7899 32.8878 19.7732C32.8478 19.7564 32.8125 19.7301 32.7848 19.6965C32.5122 19.4218 32.2349 19.147 31.9671 18.8675C31.9061 18.8033 31.8486 18.7357 31.795 18.665C31.7791 18.6524 31.7662 18.6363 31.7573 18.6179C31.7485 18.5996 31.7439 18.5794 31.7439 18.559C31.7439 18.5386 31.7485 18.5185 31.7573 18.5001C31.7662 18.4817 31.7791 18.4656 31.795 18.453C31.8888 18.3468 31.9894 18.247 32.0962 18.1542C32.2397 18.0433 32.3544 17.8987 32.4979 17.7879C32.554 17.7449 32.6025 17.6928 32.6414 17.6336C32.7125 17.5308 32.8205 17.4599 32.9426 17.436C32.9983 17.4271 33.0554 17.432 33.1088 17.4505C33.1621 17.469 33.2102 17.5005 33.2486 17.5421C33.5403 17.8553 33.8846 18.1156 34.1811 18.4289C34.3006 18.559 34.3054 18.5831 34.1811 18.7229C33.8798 19.0844 33.5212 19.3928 33.2008 19.7399C33.175 19.7611 33.1451 19.7767 33.113 19.7858C33.081 19.795 33.0474 19.7973 33.0143 19.7929Z" fill="#FEFAE0"/>
<path d="M33.0526 14.8671C33.1034 14.8652 33.1538 14.8772 33.1984 14.9018C33.243 14.9264 33.2802 14.9627 33.306 15.0069C33.4558 15.1868 33.6259 15.3486 33.8129 15.4888C33.9199 15.5736 33.9915 15.6957 34.0137 15.831C34.0192 15.8786 34.0109 15.9267 33.9896 15.9695C33.9684 16.0123 33.9352 16.048 33.8942 16.072C33.6736 16.2373 33.4687 16.4229 33.2821 16.6263C33.2444 16.6694 33.1981 16.7039 33.1461 16.7275C33.0942 16.7511 33.0378 16.7634 32.9809 16.7634C32.9239 16.7634 32.8675 16.7511 32.8156 16.7275C32.7636 16.7039 32.7173 16.6694 32.6796 16.6263C32.5254 16.4436 32.3486 16.2817 32.1536 16.1443C32.1027 16.1138 32.0574 16.0747 32.0197 16.0286C32.0022 16.0014 31.9929 15.9696 31.9929 15.9371C31.9929 15.9046 32.0022 15.8728 32.0197 15.8455C32.0767 15.7039 32.169 15.5794 32.2875 15.484C32.4442 15.3518 32.5897 15.2067 32.7226 15.0502C32.7595 14.9957 32.8085 14.9507 32.8659 14.9189C32.9232 14.887 32.9872 14.8693 33.0526 14.8671Z" fill="#FEFAE0"/>
<path d="M31.1398 21.1617C31.1781 20.8918 31.2116 20.617 31.2594 20.3471C31.3247 19.9888 31.3662 19.6265 31.3837 19.2627C31.3891 19.205 31.4019 19.1483 31.422 19.094C31.465 18.9494 31.5798 18.9157 31.685 19.0217C31.7902 19.1277 31.948 19.2771 32.0723 19.4073C32.1966 19.5374 32.4501 19.7447 32.6031 19.9471C32.7561 20.1495 32.78 20.1302 32.6031 20.323C32.2492 20.6845 31.9002 21.0508 31.5272 21.393L31.4698 21.4364C31.4124 21.4798 31.3455 21.5424 31.2642 21.499C31.2313 21.4788 31.2039 21.4505 31.1847 21.4168C31.1655 21.3831 31.155 21.3451 31.1542 21.3063V21.1665L31.1398 21.1617Z" fill="#FEFAE0"/>
<path d="M34.884 21.2002C34.8918 21.2795 34.8733 21.3591 34.8314 21.4267C34.7741 21.5183 34.7215 21.5328 34.6354 21.4749C34.5032 21.388 34.3827 21.2844 34.2768 21.1665C34.0185 20.8869 33.7364 20.6411 33.4782 20.3664L33.3921 20.2748C33.306 20.164 33.3013 20.1061 33.3921 19.9953C33.4832 19.8882 33.5806 19.7868 33.6838 19.6916C33.899 19.4844 34.1094 19.2675 34.3198 19.0554C34.5302 18.8433 34.5637 18.9349 34.6306 19.1325C34.6559 19.2545 34.6672 19.3791 34.6641 19.5037C34.6976 19.8796 34.7741 20.2555 34.8171 20.6315C34.858 20.8183 34.8805 21.0089 34.884 21.2002Z" fill="#FEFAE0"/>
<path d="M33.899 13.3055C33.904 13.3429 33.9006 13.3809 33.889 13.4168C33.8774 13.4527 33.858 13.4855 33.832 13.5127C33.7292 13.626 33.619 13.7323 33.5021 13.8308C33.4314 13.8916 33.3687 13.9612 33.3156 14.0381C33.2794 14.0853 33.2324 14.123 33.1787 14.148C33.1249 14.1729 33.066 14.1845 33.0069 14.1817C32.9478 14.1788 32.8902 14.1617 32.839 14.1317C32.7879 14.1016 32.7447 14.0596 32.7131 14.0092C32.5792 13.8357 32.3975 13.7152 32.2349 13.5561C32.1969 13.5274 32.1666 13.4897 32.1466 13.4463C32.1266 13.4028 32.1177 13.3551 32.1205 13.3073C32.1234 13.2596 32.1379 13.2133 32.1629 13.1726C32.1879 13.1319 32.2225 13.098 32.2636 13.0741C32.4182 12.9512 32.5564 12.8086 32.6748 12.65C32.7084 12.5962 32.755 12.5519 32.8102 12.5212C32.8654 12.4905 32.9274 12.4744 32.9904 12.4744C33.0535 12.4744 33.1155 12.4905 33.1707 12.5212C33.2259 12.5519 33.2724 12.5962 33.306 12.65C33.4503 12.8252 33.6104 12.9866 33.7842 13.132C33.8165 13.1485 33.8441 13.1731 33.8642 13.2035C33.8843 13.2339 33.8963 13.269 33.899 13.3055Z" fill="#FEFAE0"/>
<path d="M34.5732 17.8457C34.5732 17.8939 34.5732 17.9421 34.5397 17.9855C34.5372 18.001 34.531 18.0157 34.5216 18.0283C34.5122 18.0408 34.4999 18.0509 34.4857 18.0575C34.4716 18.0642 34.456 18.0673 34.4404 18.0665C34.4248 18.0657 34.4097 18.061 34.3963 18.053C34.2464 18.0066 34.1101 17.9239 33.9994 17.812C33.8584 17.648 33.6977 17.5023 33.5212 17.3782C33.464 17.334 33.4205 17.2742 33.3959 17.2058C33.3714 17.1375 33.3667 17.0635 33.3825 16.9926C33.3879 16.9583 33.401 16.9256 33.4209 16.8972C33.4408 16.8688 33.4669 16.8453 33.4973 16.8287C33.6785 16.703 33.8397 16.5502 33.9755 16.3757C34.0185 16.3275 34.0472 16.2697 34.1141 16.2504C34.1811 16.2311 34.3054 16.2504 34.3628 16.3853C34.4032 16.5079 34.4178 16.6375 34.4058 16.7661C34.4297 17.1083 34.4823 17.4457 34.5302 17.7831C34.5417 17.8057 34.5562 17.8268 34.5732 17.8457Z" fill="#FEFAE0"/>
<path d="M32.627 17.0553C32.6325 17.1248 32.6195 17.1946 32.5892 17.2573C32.5589 17.32 32.5125 17.3734 32.4549 17.4119C32.2934 17.528 32.1486 17.6658 32.0245 17.8216C31.916 17.9352 31.7787 18.0169 31.6276 18.0578C31.615 18.0623 31.6017 18.0643 31.5884 18.0636C31.5751 18.0629 31.562 18.0596 31.55 18.0538C31.538 18.0479 31.5272 18.0397 31.5184 18.0297C31.5096 18.0196 31.5028 18.0079 31.4985 17.9951C31.4648 17.9128 31.4564 17.8221 31.4746 17.7349C31.5512 17.3486 31.5992 16.9571 31.618 16.5637C31.6111 16.5303 31.6111 16.4958 31.618 16.4624C31.6515 16.366 31.6802 16.2697 31.7997 16.2456C31.9193 16.2215 31.9767 16.313 32.0341 16.395C32.1625 16.555 32.314 16.6947 32.4835 16.8095C32.5744 16.8769 32.6509 16.9396 32.627 17.0553Z" fill="#FEFAE0"/>
<path d="M31.6611 15.0165C31.6998 14.6644 31.7189 14.3104 31.7185 13.9562C31.7185 13.8116 31.8045 13.7489 31.9384 13.7971C32.0821 13.8272 32.2097 13.9096 32.2971 14.0284C32.3406 14.0991 32.4016 14.1572 32.474 14.1971C32.5263 14.2358 32.5702 14.2849 32.6031 14.3412C32.6359 14.3975 32.6571 14.46 32.6653 14.5249C32.6795 14.5716 32.6784 14.6218 32.662 14.6678C32.6456 14.7139 32.6149 14.7533 32.5744 14.7803C32.4685 14.8512 32.3735 14.9372 32.2923 15.0358C32.1928 15.1353 32.0874 15.2287 31.9767 15.3153C31.9534 15.3368 31.9247 15.3514 31.8938 15.3575C31.8629 15.3636 31.8309 15.3611 31.8013 15.3502C31.7717 15.3392 31.7456 15.3203 31.7259 15.2955C31.7063 15.2706 31.6938 15.2408 31.6898 15.2093C31.6747 15.146 31.6651 15.0815 31.6611 15.0165Z" fill="#FEFAE0"/>
<path d="M34.3676 14.9924C34.375 15.0516 34.375 15.1115 34.3676 15.1707C34.3246 15.3491 34.1763 15.3828 34.0807 15.2816C33.985 15.1804 33.789 15.084 33.7029 14.9249C33.6577 14.8637 33.5987 14.8141 33.5308 14.7803C33.4925 14.7478 33.4618 14.7072 33.4407 14.6614C33.4196 14.6156 33.4087 14.5657 33.4087 14.5152C33.4087 14.4648 33.4196 14.4149 33.4407 14.3691C33.4618 14.3233 33.4925 14.2827 33.5308 14.2502C33.6355 14.1567 33.7345 14.0569 33.8272 13.9513C33.9265 13.8575 34.0549 13.8013 34.1907 13.7923C34.2815 13.7923 34.3246 13.8308 34.3341 13.9465C34.3437 14.0622 34.3341 14.1971 34.3341 14.3225C34.3437 14.4395 34.3437 14.5572 34.3341 14.6743C34.3293 14.7803 34.3915 14.896 34.3676 14.9924Z" fill="#FEFAE0"/>
</svg>
