<svg width="15" height="26" viewBox="0 0 15 26" fill="none" xmlns="http://www.w3.org/2000/svg">
<path d="M0.019043 25.3365C0.0811687 25.2956 0.130504 25.2377 0.161301 25.1695C0.173853 25.1272 0.219883 25.1061 0.244988 25.0701C0.316118 24.9708 0.3998 24.8778 0.454193 24.7721C0.508586 24.6664 0.575533 24.5882 0.638294 24.4973C0.68251 24.4128 0.73659 24.334 0.79938 24.2626C0.824116 24.2441 0.841244 24.217 0.847499 24.1865C0.845965 24.1796 0.845965 24.1723 0.847499 24.1654C0.918629 24.0956 0.939547 23.992 1.00859 23.9223C1.00859 23.9223 1.0295 23.9033 1.03159 23.8927C1.06507 23.8039 1.13829 23.7405 1.17386 23.6538C1.18754 23.6236 1.2059 23.5958 1.22825 23.5714C1.25491 23.5435 1.27432 23.5093 1.28474 23.472C1.28259 23.4644 1.28259 23.4564 1.28474 23.4488C1.34429 23.3659 1.39811 23.2791 1.44582 23.1887C1.46568 23.1614 1.48318 23.1324 1.49812 23.1021C1.5108 23.0631 1.53229 23.0276 1.56088 22.9985C1.57703 22.9855 1.58993 22.9688 1.59854 22.9499C1.61528 22.8315 1.73034 22.7596 1.74708 22.6412C1.75082 22.626 1.7597 22.6125 1.77218 22.6032C1.80057 22.5764 1.8221 22.543 1.83494 22.5059C1.85189 22.4466 1.88275 22.3922 1.9249 22.3474C1.93294 22.3376 1.93866 22.326 1.94164 22.3136C1.9602 22.2517 1.99078 22.1942 2.03159 22.1445C2.0485 22.1221 2.05996 22.096 2.06507 22.0684C2.07978 22.0133 2.10619 21.962 2.14247 21.9183C2.16025 21.8995 2.17256 21.8761 2.17804 21.8506C2.19408 21.7929 2.22267 21.7394 2.26172 21.6942C2.26172 21.6942 2.26172 21.6942 2.27219 21.6836C2.31089 21.5776 2.35703 21.4744 2.41025 21.375C2.42624 21.3176 2.45404 21.2643 2.49185 21.2186C2.51739 21.1804 2.53451 21.1372 2.54206 21.0917C2.54886 21.0666 2.56021 21.0429 2.57553 21.022C2.61015 20.9777 2.6351 20.9266 2.64875 20.8719C2.65653 20.8231 2.6792 20.778 2.7136 20.7429C2.72185 20.7329 2.72823 20.7214 2.73243 20.7091C2.76318 20.6026 2.80823 20.5009 2.86633 20.4068C2.8727 20.3935 2.87694 20.3792 2.87888 20.3645C2.88308 20.3253 2.9018 20.2891 2.93128 20.2633C2.96077 20.2374 2.99884 20.2237 3.03787 20.225H10.9688C11.0089 20.2227 11.0483 20.2361 11.0787 20.2625C11.1092 20.2889 11.1283 20.3263 11.132 20.3667C11.1414 20.4147 11.1622 20.4597 11.1927 20.4977C11.2223 20.5334 11.2418 20.5765 11.2492 20.6224C11.2594 20.6766 11.284 20.727 11.3203 20.7683C11.3466 20.8094 11.3644 20.8554 11.3726 20.9036C11.3781 20.9311 11.3895 20.9571 11.4061 20.9797C11.4398 21.0221 11.4647 21.071 11.4793 21.1234C11.4993 21.1728 11.5224 21.2208 11.5483 21.2672C11.5985 21.375 11.6571 21.4786 11.7052 21.5906C11.7185 21.6395 11.742 21.685 11.7743 21.7238C11.7743 21.7238 11.7743 21.7238 11.7743 21.7365C11.8119 21.8633 11.9061 21.9627 11.9416 22.0895C11.9452 22.1078 11.9539 22.1247 11.9667 22.1381C12.0058 22.1826 12.0344 22.2353 12.0504 22.2924C12.0504 22.3094 12.0504 22.3326 12.0755 22.3474C12.1299 22.3939 12.1404 22.4679 12.178 22.525C12.2157 22.582 12.2534 22.6877 12.3078 22.7575C12.3621 22.8273 12.3747 22.9097 12.427 22.9689C12.4793 23.0281 12.4856 23.0746 12.519 23.119C12.5677 23.2119 12.6222 23.3016 12.6822 23.3875C12.7082 23.41 12.7247 23.4418 12.7282 23.4762C12.7293 23.4891 12.7336 23.5015 12.7408 23.5122C12.8005 23.5866 12.853 23.6666 12.8977 23.751C12.9542 23.8504 13.0295 23.9392 13.0797 24.0428C13.0797 24.0428 13.0797 24.0576 13.0923 24.0618C13.1571 24.1294 13.1801 24.2246 13.2471 24.2901C13.2758 24.3162 13.2968 24.3499 13.3078 24.3873C13.3182 24.4254 13.3601 24.4423 13.3726 24.474C13.4144 24.5755 13.5128 24.6389 13.5462 24.7446C13.5462 24.7615 13.5693 24.7721 13.5818 24.7848C13.5944 24.7974 13.6048 24.8059 13.6132 24.8186C13.6796 24.9314 13.7575 25.0369 13.8454 25.1336C13.8768 25.1737 13.8831 25.2329 13.9291 25.2604C13.9546 25.2775 13.9754 25.3007 13.9898 25.328V25.4211C13.9772 25.438 13.9898 25.4633 13.9605 25.4739C13.9312 25.4845 13.9249 25.4739 13.9123 25.4845H10.7157C10.7031 25.4718 10.6843 25.4845 10.6697 25.4718C10.6476 25.4604 10.6298 25.4421 10.6189 25.4196C10.6079 25.3971 10.6045 25.3717 10.609 25.3471C10.6351 25.0576 10.6435 24.7667 10.6341 24.4761C10.6386 24.3721 10.6273 24.268 10.6006 24.1675C10.5609 24.0153 10.5379 23.8546 10.4877 23.7067C10.4505 23.5595 10.3957 23.4176 10.3245 23.2839C10.2764 23.2078 10.2513 23.119 10.2094 23.0387C10.0762 22.7966 9.91849 22.5692 9.73871 22.3601C9.53369 22.1284 9.30109 21.9232 9.04624 21.7492C8.90347 21.6439 8.74987 21.5546 8.58809 21.4828C8.45001 21.4257 8.31194 21.3602 8.16968 21.3137C7.96344 21.2534 7.75387 21.2054 7.54206 21.17C7.42954 21.1428 7.31459 21.1272 7.19896 21.1234C6.99619 21.1108 6.79266 21.1214 6.59227 21.1552C6.46047 21.1869 6.32448 21.2038 6.19059 21.2228C6.13955 21.2307 6.08966 21.2449 6.04206 21.2651C5.97302 21.2993 5.89875 21.3214 5.82239 21.3306C5.80404 21.3313 5.78611 21.3363 5.77009 21.3454C5.56584 21.4347 5.36678 21.5356 5.17386 21.6477C5.04834 21.7323 4.91653 21.8084 4.79938 21.9035C4.62723 22.0348 4.46943 22.1843 4.32867 22.3495C4.2408 22.4573 4.15084 22.5609 4.06716 22.6772C3.98348 22.7934 3.94582 22.8886 3.88306 22.9795C3.76352 23.1971 3.66139 23.424 3.57762 23.658C3.57642 23.6679 3.57642 23.6778 3.57762 23.6876C3.54624 23.899 3.4772 24.0851 3.43955 24.2859C3.43643 24.3196 3.43643 24.3536 3.43955 24.3873V25.0405C3.43594 25.1341 3.44296 25.2277 3.46047 25.3196C3.46563 25.3364 3.46744 25.354 3.46581 25.3715C3.46418 25.389 3.45914 25.4061 3.45097 25.4216C3.4428 25.4371 3.43167 25.4508 3.41822 25.462C3.40477 25.4732 3.38926 25.4815 3.3726 25.4866H0.0964478C0.0964478 25.476 0.0734388 25.4866 0.0608865 25.4739C0.0483342 25.4612 0.0336873 25.4401 0.019043 25.4232V25.3365Z" fill="#FF9A4E"/>
<path d="M7.11946 0.514799C7.14266 0.52861 7.16136 0.548976 7.17326 0.57339C7.18515 0.597804 7.18972 0.6252 7.1864 0.652204V1.56331C7.1864 1.66266 7.1864 1.67323 7.28891 1.67323H7.49812C7.51498 1.67123 7.53208 1.67283 7.5483 1.67793C7.56452 1.68303 7.57949 1.69151 7.59226 1.70283C7.66376 1.76575 7.70992 1.85301 7.72197 1.94804C7.72197 2.06642 7.73452 2.1848 7.74707 2.30318C7.75759 2.36681 7.76388 2.43107 7.7659 2.49555C7.76928 2.53422 7.76138 2.57306 7.74316 2.60724C7.72494 2.64143 7.69721 2.66948 7.66339 2.68791C7.66339 2.68791 7.64665 2.70271 7.63829 2.70482C7.50858 2.74922 7.52113 2.79784 7.53577 2.9437C7.54623 3.0346 7.53577 3.1255 7.53577 3.21639C7.53577 3.24599 7.51695 3.25656 7.49184 3.25867C7.45972 3.26376 7.42682 3.25903 7.39737 3.24509C7.36792 3.23116 7.34327 3.20865 7.32657 3.18046C7.30757 3.14718 7.28105 3.11893 7.24916 3.09802C7.21292 3.07287 7.18692 3.03533 7.17595 2.99232C7.15712 2.9141 7.16339 2.87817 7.23033 2.83377C7.26171 2.81475 7.29728 2.79784 7.27845 2.75133C7.25963 2.70483 7.21987 2.71539 7.17803 2.73231C7.15673 2.74148 7.1364 2.75281 7.11736 2.76613C7.08611 2.78626 7.04982 2.79696 7.01276 2.79696C6.9757 2.79696 6.93941 2.78626 6.90816 2.76613C6.87537 2.74204 6.83571 2.72943 6.79519 2.73019C6.77218 2.73019 6.75335 2.73019 6.74498 2.75767C6.74104 2.76759 6.74078 2.77861 6.74424 2.7887C6.7477 2.7988 6.75465 2.8073 6.76381 2.81264L6.78891 2.83166C6.82239 2.85703 6.86214 2.87817 6.86004 2.93313C6.86161 2.96286 6.85617 2.99255 6.84417 3.01974C6.83216 3.04694 6.81394 3.07087 6.791 3.08956C6.75058 3.11664 6.71693 3.15282 6.69268 3.19526C6.68133 3.2124 6.66651 3.22692 6.6492 3.23785C6.63189 3.24878 6.61248 3.25588 6.59226 3.25867C6.5044 3.27559 6.48975 3.25867 6.48975 3.172C6.48731 3.06609 6.49221 2.96014 6.50439 2.85491C6.50979 2.82782 6.50508 2.79966 6.49118 2.77586C6.47728 2.75206 6.45517 2.73429 6.42908 2.72596C6.39996 2.70963 6.37199 2.69127 6.3454 2.671C6.32394 2.65725 6.30595 2.63862 6.29288 2.6166C6.2798 2.59458 6.272 2.56977 6.27008 2.54417C6.26069 2.48465 6.26069 2.424 6.27008 2.36448C6.28445 2.29493 6.29216 2.22414 6.2931 2.15309C6.2931 2.07276 6.29309 1.99243 6.30774 1.9121C6.32843 1.82827 6.37631 1.75385 6.44373 1.70071C6.4555 1.6907 6.4692 1.68327 6.48397 1.67891C6.49874 1.67454 6.51424 1.67333 6.5295 1.67534H6.7387C6.84121 1.67534 6.85167 1.66477 6.85167 1.56542C6.85167 1.26524 6.85167 0.96295 6.85167 0.662773C6.84688 0.634469 6.85072 0.605364 6.86268 0.579314C6.87464 0.553265 6.89414 0.531503 6.91862 0.516913C6.93117 0.502116 6.95419 0.516913 6.96674 0.502116H7.05878C7.08598 0.5148 7.1069 0.500002 7.11946 0.514799Z" fill="#5F6F52"/>
<path d="M0.019043 25.4295L0.0671624 25.476C0.0671624 25.476 0.0671624 25.476 0.0671624 25.4866C0.0190453 25.4929 0.019043 25.4929 0.019043 25.4295Z" fill="#FF9A4E"/>
<path d="M13.9856 25.4824L14.019 25.4358C14.018 25.4492 14.018 25.4626 14.019 25.476C14.019 25.5077 14.0023 25.4971 13.9877 25.4993C13.973 25.5014 13.9877 25.4993 13.9877 25.4887C13.9877 25.4781 13.9835 25.4824 13.9856 25.4824Z" fill="#FF9A4E"/>
<path d="M6.98138 0.5C6.98138 0.521139 6.95 0.512683 6.93327 0.514797C6.93438 0.512492 6.93495 0.509963 6.93495 0.5074C6.93495 0.504836 6.93438 0.502305 6.93327 0.5H6.98138Z" fill="#5F6F52"/>
<path d="M7.11946 0.514799C7.10272 0.514799 7.08389 0.514797 7.07343 0.5H7.11946C7.11835 0.502305 7.11777 0.504836 7.11777 0.5074C7.11777 0.509963 7.11835 0.512494 7.11946 0.514799Z" fill="#5F6F52"/>
<path d="M13.9856 25.4824L13.9856 25.4993H13.9458C13.9458 25.4824 13.9688 25.4824 13.9856 25.4824Z" fill="#FF9A4E"/>
<path d="M0.0650619 25.4929V25.4824C0.0776142 25.4824 0.0901696 25.4824 0.0943537 25.4993L0.0650619 25.4929Z" fill="#FF9A4E"/>
<path d="M10.6843 25.4929V25.4824C10.6904 25.4803 10.6971 25.4807 10.7029 25.4834C10.7088 25.4862 10.7133 25.4911 10.7157 25.4972L10.6843 25.4929Z" fill="#FF9A4E"/>
<path d="M3.17803 20.0327C3.12957 20.032 3.08184 20.0206 3.03813 19.9995C2.99442 19.9783 2.95579 19.9478 2.92489 19.9101C2.90926 19.8896 2.89802 19.866 2.89189 19.8409C2.88577 19.8158 2.88489 19.7897 2.88933 19.7642C2.88933 19.519 2.88933 19.2717 2.88933 19.0243C2.89167 18.9831 2.89727 18.9421 2.90607 18.9017C2.90918 18.8866 2.91643 18.8727 2.92698 18.8615C2.98345 18.8035 3.0567 18.765 3.13619 18.7516C3.1773 18.7495 3.21851 18.7495 3.25962 18.7516H10.8914C10.9791 18.7575 11.0614 18.7968 11.1215 18.8615C11.1676 18.9017 11.1613 18.9672 11.1634 19.0222C11.1634 19.2717 11.1634 19.5211 11.1634 19.7705C11.1635 19.8066 11.1562 19.8423 11.142 19.8754C11.1278 19.9086 11.107 19.9383 11.0809 19.963C11.0548 19.9876 11.0239 20.0065 10.9902 20.0184C10.9565 20.0304 10.9208 20.0353 10.8851 20.0327H3.17803Z" fill="#FF9A4E"/>
<path d="M7.01485 11.801C6.99328 11.8474 6.97781 11.8965 6.96883 11.9469C6.94791 12.0991 6.94163 12.2513 6.93535 12.4035C6.92872 12.5216 6.91263 12.639 6.88724 12.7544C6.84895 12.9181 6.82722 13.0852 6.82239 13.2533C6.81847 13.3712 6.80092 13.4883 6.77009 13.6021C6.77009 13.6317 6.75335 13.6613 6.74707 13.693C6.74335 13.7306 6.72537 13.7652 6.69688 13.7897C6.6684 13.8141 6.63164 13.8264 6.59435 13.8241C6.12782 13.8241 5.66339 13.8241 5.19896 13.8241C5.10481 13.8241 5.07762 13.7881 5.07552 13.6951C5.07611 13.6401 5.08898 13.5859 5.11318 13.5366C5.15145 13.4469 5.17342 13.3509 5.17803 13.2533C5.18174 13.1889 5.19514 13.1255 5.21778 13.0652C5.26617 12.9515 5.29245 12.8295 5.29519 12.7058C5.30351 12.6263 5.32397 12.5486 5.35586 12.4754C5.38258 12.3999 5.39809 12.3208 5.40188 12.2407C5.41621 12.0897 5.45435 11.942 5.51486 11.8032C5.52296 11.7781 5.53825 11.756 5.55879 11.7397L5.91653 11.41C6.01276 11.3191 6.10481 11.2239 6.20314 11.1309C6.33912 11.0041 6.48138 10.8815 6.62155 10.7504C6.72636 10.6593 6.82427 10.5604 6.91444 10.4545C6.94653 10.4226 6.98972 10.4047 7.03473 10.4047C7.07973 10.4047 7.12294 10.4226 7.15502 10.4545C7.22596 10.5356 7.30289 10.6113 7.38515 10.6807C7.4249 10.7187 7.46465 10.761 7.50649 10.799L7.74289 11.0104L7.99184 11.2472C8.16548 11.4079 8.32657 11.577 8.50439 11.7313C8.52372 11.7478 8.5388 11.7689 8.54833 11.7926C8.61114 11.9372 8.64865 12.0917 8.65921 12.2492C8.66821 12.3518 8.69291 12.4523 8.73242 12.5473C8.75536 12.6154 8.76737 12.6867 8.76799 12.7586C8.77141 12.8544 8.79344 12.9485 8.83285 13.0356C8.86137 13.1123 8.87898 13.1927 8.88515 13.2744C8.89166 13.3618 8.91215 13.4474 8.94582 13.5281C8.97471 13.5856 8.98841 13.6497 8.98557 13.7141C8.98557 13.7797 8.95627 13.8114 8.8956 13.8198C8.87264 13.822 8.84953 13.822 8.82657 13.8198H7.47719C7.43852 13.8235 7.39995 13.8119 7.36955 13.7874C7.33914 13.763 7.31924 13.7277 7.31401 13.6888C7.28148 13.5593 7.25634 13.428 7.2387 13.2956C7.23553 13.2414 7.23553 13.187 7.2387 13.1328C7.23028 13.0067 7.21139 12.8815 7.18222 12.7586C7.15221 12.6196 7.13471 12.4781 7.12992 12.3359C7.12717 12.1986 7.11599 12.0616 7.09645 11.9258C7.09278 11.9002 7.08356 11.8757 7.06945 11.8542C7.05535 11.8326 7.0367 11.8145 7.01485 11.801Z" fill="#5F6F52"/>
<path d="M7.02322 15.3017C6.28891 15.3017 5.55878 15.3017 4.82447 15.3017C4.76384 15.3041 4.70384 15.2886 4.65181 15.2571C4.59979 15.2255 4.558 15.1793 4.53158 15.1241C4.50856 15.0725 4.50059 15.0153 4.50857 14.9592C4.51376 14.8762 4.51376 14.7929 4.50857 14.7098C4.50857 14.5978 4.50857 14.4836 4.50857 14.3695C4.50223 14.3059 4.51403 14.2419 4.54258 14.185C4.57113 14.128 4.61523 14.0805 4.66966 14.0481C4.70915 14.0238 4.7555 14.0134 4.80146 14.0185H9.09016C9.16701 14.0126 9.2443 14.0161 9.32029 14.0291C9.34998 14.0334 9.37769 14.0467 9.39978 14.0672L9.47719 14.1454C9.49419 14.163 9.50756 14.1838 9.51654 14.2067C9.52552 14.2295 9.52992 14.254 9.52949 14.2786C9.52949 14.4709 9.52949 14.6654 9.52949 14.8599C9.53477 14.9183 9.53477 14.977 9.52949 15.0353C9.52499 15.0891 9.50539 15.1404 9.473 15.1833C9.4452 15.222 9.40871 15.2535 9.36652 15.2752C9.32433 15.2969 9.27766 15.3081 9.23033 15.308C8.50648 15.2996 7.76171 15.3017 7.02322 15.3017Z" fill="#5F6F52"/>
<path d="M9.32029 18.5508H8.36422C8.29937 18.5508 8.25543 18.5149 8.25125 18.4536C8.23052 18.3215 8.19903 18.1914 8.15711 18.0646C8.14463 17.999 8.13624 17.9326 8.132 17.8659C8.11511 17.7665 8.0892 17.6688 8.0546 17.5742C8.03826 17.5171 8.02912 17.4581 8.0274 17.3987C8.02146 17.3009 8.00028 17.2045 7.96464 17.1133C7.93144 17.0217 7.91239 16.9255 7.90816 16.828C7.90078 16.7299 7.87819 16.6336 7.84121 16.5426C7.81855 16.4742 7.80449 16.4032 7.79937 16.3312C7.79522 16.2411 7.77831 16.1522 7.74916 16.067C7.70883 15.9698 7.68683 15.8658 7.68431 15.7604C7.68127 15.7247 7.67497 15.6893 7.66548 15.6547C7.64874 15.5765 7.66548 15.5406 7.74707 15.5173C7.78798 15.5005 7.83377 15.5005 7.87468 15.5173C7.89478 15.5206 7.91525 15.5206 7.93535 15.5173H9.19058C9.218 15.5159 9.24528 15.5124 9.27217 15.5068C9.35585 15.4941 9.43326 15.5068 9.45836 15.6209C9.4672 15.6656 9.48347 15.7085 9.50648 15.7477C9.54219 15.8188 9.56286 15.8965 9.56715 15.9761C9.575 16.0431 9.59635 16.1079 9.62991 16.1663C9.65678 16.2188 9.67246 16.2764 9.67594 16.3354C9.68221 16.4051 9.70441 16.4724 9.74079 16.532C9.76157 16.5645 9.77448 16.6014 9.77845 16.6398C9.78764 16.7346 9.81537 16.8266 9.86004 16.9104C9.88827 16.974 9.90594 17.0418 9.91234 17.1112C9.914 17.1316 9.91895 17.1516 9.92699 17.1704C9.98487 17.2733 10.0219 17.3869 10.0358 17.5044C10.0406 17.5188 10.0477 17.5324 10.0567 17.5446C10.0936 17.6061 10.1185 17.6743 10.1299 17.7454C10.1366 17.8075 10.1581 17.867 10.1927 17.9187C10.2273 17.9732 10.2468 18.0359 10.2492 18.1005C10.2543 18.144 10.2701 18.1854 10.2952 18.221C10.339 18.2879 10.3649 18.3651 10.3705 18.4451C10.3729 18.4593 10.3723 18.4739 10.3686 18.4878C10.3649 18.5018 10.3582 18.5147 10.349 18.5258C10.3399 18.5368 10.3284 18.5458 10.3155 18.5519C10.3026 18.5581 10.2885 18.5613 10.2743 18.5614H9.3182L9.32029 18.5508Z" fill="#5F6F52"/>
<path d="M4.72614 18.5508H3.79309C3.70313 18.5508 3.6571 18.4916 3.68221 18.407C3.69205 18.3313 3.71927 18.2589 3.76171 18.1957C3.78382 18.1639 3.79685 18.1266 3.79936 18.0878C3.80935 18.0082 3.83648 17.9317 3.87886 17.8638C3.90402 17.8215 3.9184 17.7735 3.9207 17.7242C3.92746 17.6628 3.94745 17.6037 3.97928 17.5509C4.00896 17.4972 4.02881 17.4384 4.03786 17.3776C4.04483 17.3241 4.06187 17.2724 4.08807 17.2254C4.12614 17.1524 4.15027 17.0728 4.1592 16.9907C4.16471 16.9448 4.18044 16.9007 4.20522 16.8618C4.23941 16.8015 4.26012 16.7344 4.26589 16.6652C4.27265 16.6038 4.29264 16.5446 4.32447 16.4918C4.35268 16.4427 4.36983 16.3878 4.37468 16.3312C4.37877 16.2572 4.39876 16.1851 4.43325 16.1198C4.46958 16.0489 4.49095 15.9711 4.49601 15.8915C4.50102 15.848 4.51157 15.8054 4.5274 15.7646C4.5554 15.7073 4.57917 15.6479 4.59853 15.5871C4.60281 15.5681 4.61095 15.5503 4.62244 15.5347C4.63393 15.5192 4.64851 15.5062 4.66525 15.4966C4.68199 15.4871 4.70052 15.4812 4.71965 15.4793C4.73878 15.4774 4.7581 15.4795 4.77635 15.4856C4.81122 15.4943 4.84716 15.4979 4.88304 15.4962H6.09225C6.13021 15.4978 6.16821 15.4943 6.20522 15.4856C6.23732 15.4771 6.27122 15.4789 6.3023 15.4906C6.33338 15.5023 6.36012 15.5235 6.37886 15.5511C6.38434 15.5586 6.38828 15.5672 6.39044 15.5763C6.3926 15.5854 6.39293 15.5948 6.39142 15.604C6.37491 15.6661 6.36578 15.73 6.36422 15.7942C6.36105 15.8591 6.34616 15.9229 6.32028 15.9824C6.27419 16.1293 6.24471 16.2811 6.23242 16.4348C6.22361 16.4797 6.21029 16.5236 6.19267 16.5658C6.15919 16.6772 6.13882 16.7921 6.132 16.9083C6.12454 16.9697 6.10979 17.0301 6.08807 17.088C6.05411 17.1766 6.03365 17.27 6.0274 17.3649C6.02368 17.4626 6.00388 17.5591 5.96882 17.6503C5.93129 17.757 5.91013 17.8689 5.90606 17.9821C5.8984 18.0545 5.88152 18.1256 5.85585 18.1935C5.83144 18.2619 5.81461 18.3328 5.80564 18.4049C5.79309 18.5022 5.75753 18.536 5.6592 18.536L4.72614 18.5508Z" fill="#5F6F52"/>
<path d="M7.96674 9.21995C7.96963 9.23497 7.9682 9.25051 7.96265 9.26474C7.95709 9.27897 7.94762 9.2913 7.93536 9.30028C7.79728 9.40386 7.68223 9.53492 7.55461 9.65119C7.427 9.76746 7.34541 9.86258 7.23453 9.95348C7.19896 9.98308 7.17804 10.0254 7.14248 10.0549C7.12752 10.0735 7.10845 10.0882 7.08682 10.0979C7.06518 10.1076 7.04159 10.112 7.01795 10.1108C6.99432 10.1095 6.9713 10.1027 6.95077 10.0908C6.93024 10.0789 6.91278 10.0623 6.8998 10.0423C6.69059 9.83087 6.48139 9.63428 6.27218 9.43134C6.22857 9.38347 6.18019 9.34026 6.12783 9.30239C6.08181 9.27491 6.07553 9.22629 6.09854 9.16287C6.11894 9.11565 6.15144 9.07479 6.19268 9.04449C6.26594 8.97768 6.33577 8.90712 6.40189 8.8331C6.44164 8.79082 6.48348 8.75277 6.52532 8.71472C6.56716 8.67667 6.64038 8.6048 6.69477 8.54983C6.76369 8.49218 6.82676 8.42774 6.88306 8.35747C6.89656 8.33493 6.91534 8.3161 6.93774 8.30262C6.96014 8.28914 6.98548 8.28144 7.01152 8.28018C7.03756 8.27893 7.06351 8.28417 7.08707 8.29543C7.11064 8.3067 7.1311 8.32365 7.14666 8.34478C7.27427 8.49487 7.4249 8.61959 7.56507 8.76757C7.6624 8.8709 7.76505 8.96898 7.8726 9.0614C7.89996 9.078 7.92285 9.10115 7.93927 9.12879C7.95568 9.15644 7.96512 9.18775 7.96674 9.21995Z" fill="#5F6F52"/>
<path d="M6.8705 10.2621C6.88096 10.3086 6.8475 10.334 6.81612 10.3572C6.73712 10.4213 6.66363 10.492 6.59645 10.5686L6.45001 10.706C6.25963 10.8815 6.07762 11.0654 5.88933 11.2451C5.84974 11.2819 5.8127 11.3215 5.77845 11.3634C5.737 11.4062 5.68079 11.4312 5.62155 11.4332C5.59226 11.4332 5.57553 11.4142 5.57762 11.3846C5.57696 11.356 5.58048 11.3275 5.58808 11.3C5.61763 11.199 5.63381 11.0946 5.6362 10.9893C5.64555 10.8708 5.67089 10.7542 5.71151 10.6426C5.73006 10.5815 5.74061 10.5183 5.74289 10.4545C5.7501 10.297 5.77537 10.1409 5.8182 9.98939C5.84344 9.90003 5.85612 9.80752 5.85586 9.71458C5.85586 9.64271 5.86632 9.57084 5.8726 9.50319C5.88515 9.3827 5.97929 9.37635 6.07134 9.43554C6.10043 9.45722 6.12772 9.48125 6.15293 9.50742C6.3454 9.69767 6.53787 9.88793 6.73243 10.0761C6.74839 10.0919 6.76592 10.1061 6.78473 10.1183C6.83051 10.1534 6.86122 10.2048 6.8705 10.2621Z" fill="#5F6F52"/>
<path d="M8.4772 11.3592C8.4772 11.4248 8.46465 11.4332 8.40816 11.4227C8.3435 11.4084 8.2858 11.3717 8.24498 11.3191C8.16758 11.2303 8.07553 11.1542 7.99185 11.0696C7.90817 10.9851 7.76591 10.8582 7.65294 10.742C7.59645 10.687 7.53996 10.6321 7.4772 10.5813C7.41444 10.5306 7.39561 10.4968 7.35168 10.4587C7.31655 10.4211 7.27724 10.3878 7.23453 10.3594C7.17595 10.3213 7.16967 10.279 7.19686 10.2114C7.21143 10.173 7.23515 10.1389 7.26591 10.112C7.39352 10.0063 7.50231 9.88161 7.62364 9.77168C7.74498 9.66176 7.84959 9.56029 7.96047 9.44191C7.9786 9.42348 8.00084 9.40971 8.02532 9.40175C8.109 9.37004 8.18013 9.40175 8.18013 9.49899C8.18013 9.59623 8.19896 9.6681 8.19896 9.75266C8.20297 9.85844 8.22199 9.96309 8.25544 10.0634C8.28675 10.1778 8.30362 10.2957 8.30566 10.4143C8.31172 10.5171 8.33069 10.6187 8.36214 10.7166C8.39334 10.8066 8.41234 10.9005 8.41862 10.9956C8.42375 11.1043 8.44059 11.212 8.46883 11.317C8.4708 11.3312 8.47359 11.3453 8.4772 11.3592Z" fill="#5F6F52"/>
<path d="M7.04206 7.98542C7.01455 7.98778 6.98692 7.98278 6.96194 7.9709C6.93696 7.95902 6.91553 7.9407 6.8998 7.91777C6.84532 7.84721 6.78282 7.78336 6.71361 7.72752C6.66758 7.68524 6.62783 7.63873 6.5839 7.59646C6.50988 7.53046 6.44 7.45986 6.37469 7.38506C6.36239 7.3747 6.35273 7.36151 6.34649 7.3466C6.34026 7.33169 6.33765 7.31549 6.33888 7.29935C6.34011 7.28321 6.34514 7.2676 6.35356 7.25383C6.36197 7.24006 6.37352 7.22852 6.38725 7.22018C6.46075 7.15363 6.53059 7.08306 6.59645 7.00878C6.69269 6.91577 6.78683 6.81853 6.88097 6.72552C6.89741 6.70891 6.91278 6.69125 6.927 6.67267C6.94114 6.65576 6.95876 6.64217 6.97863 6.63285C6.9985 6.62352 7.02015 6.61869 7.04206 6.61869C7.06397 6.61869 7.08562 6.62352 7.10549 6.63285C7.12536 6.64217 7.14298 6.65576 7.15712 6.67267C7.25545 6.78682 7.36632 6.88406 7.47093 6.99187L7.62992 7.15042L7.69897 7.21172C7.71169 7.22006 7.72237 7.2312 7.73022 7.24431C7.73807 7.25742 7.74287 7.27216 7.74428 7.28741C7.74569 7.30266 7.74366 7.31804 7.73835 7.33239C7.73304 7.34674 7.72458 7.35969 7.71361 7.37027C7.64856 7.44531 7.57867 7.51593 7.5044 7.58166C7.41235 7.67467 7.31611 7.76346 7.22197 7.85435C7.20524 7.87338 7.1906 7.89663 7.17386 7.91566C7.16097 7.93897 7.14164 7.95798 7.11824 7.97037C7.09483 7.98276 7.06836 7.98799 7.04206 7.98542Z" fill="#5F6F52"/>
<path d="M5.97929 8.83308C5.98633 8.72967 6.00243 8.6271 6.0274 8.52656C6.04414 8.44623 6.06297 8.36802 6.07343 8.28557C6.08807 8.16508 6.08389 8.04459 6.09645 7.92409C6.10849 7.80876 6.12806 7.69436 6.15502 7.58164C6.16758 7.53302 6.19477 7.50765 6.24289 7.51399C6.26585 7.51247 6.28881 7.51714 6.3094 7.52755C6.32999 7.53795 6.34747 7.5537 6.36004 7.57318C6.40359 7.6404 6.45806 7.69972 6.52113 7.74864C6.57542 7.80733 6.63342 7.86241 6.69477 7.91352C6.74079 7.94946 6.77845 7.99385 6.82448 8.02979C6.84041 8.04459 6.85289 8.06277 6.86104 8.08302C6.86918 8.10328 6.87279 8.12511 6.87159 8.14694C6.87039 8.16877 6.86442 8.19006 6.8541 8.20928C6.84378 8.2285 6.82938 8.24517 6.81192 8.25809C6.66966 8.38281 6.53996 8.51811 6.40398 8.64917C6.30356 8.7443 6.20941 8.84577 6.11109 8.94301C6.09226 8.96203 6.07134 8.9874 6.03787 8.97471C6.02191 8.9697 6.0078 8.95998 5.99736 8.94679C5.98692 8.9336 5.98063 8.91756 5.97929 8.90073C5.97505 8.87838 5.97505 8.85543 5.97929 8.83308Z" fill="#5F6F52"/>
<path d="M8.07344 8.84788C8.07453 8.86618 8.07453 8.88454 8.07344 8.90284C8.07183 8.91959 8.06544 8.9355 8.05504 8.94864C8.04464 8.96178 8.03068 8.97157 8.01486 8.97683C7.98348 8.97683 7.96465 8.96415 7.94791 8.94724C7.86841 8.87113 7.79101 8.7908 7.7136 8.7147L7.31193 8.31729L7.25963 8.27289C7.23768 8.25509 7.21951 8.233 7.20621 8.20794C7.19291 8.18287 7.18476 8.15536 7.18223 8.12703C7.17931 8.10749 7.18235 8.08752 7.19094 8.06977C7.19954 8.05202 7.21328 8.03734 7.23034 8.02768C7.29627 7.97973 7.35724 7.9252 7.41235 7.86491C7.49185 7.79726 7.56507 7.71905 7.64038 7.65351C7.66097 7.63103 7.67986 7.607 7.69687 7.58164C7.71646 7.55782 7.74278 7.5406 7.77232 7.53229C7.80185 7.52398 7.83319 7.52497 7.86214 7.53513C7.87196 7.54103 7.8804 7.54898 7.8869 7.55847C7.89339 7.56795 7.8978 7.57874 7.8998 7.5901C7.8998 7.67888 7.93746 7.76555 7.94582 7.85645C7.95628 7.97906 7.96047 8.10378 7.96883 8.22639C7.98233 8.3541 8.00542 8.4806 8.03788 8.60478C8.06037 8.68386 8.07232 8.76561 8.07344 8.84788Z" fill="#5F6F52"/>
<path d="M7.02532 6.33021C7.00644 6.33189 6.98744 6.32892 6.96995 6.32156C6.95246 6.3142 6.937 6.30265 6.9249 6.28793C6.80565 6.16743 6.68431 6.04694 6.56716 5.92433C6.54045 5.89617 6.5153 5.86652 6.49184 5.83555C6.48488 5.83001 6.47925 5.82295 6.47538 5.81489C6.47151 5.80683 6.4695 5.798 6.4695 5.78904C6.4695 5.78009 6.47151 5.77125 6.47538 5.7632C6.47925 5.75514 6.48488 5.74808 6.49184 5.74254C6.53289 5.69599 6.57692 5.6522 6.62364 5.61147C6.6864 5.56285 6.73661 5.49943 6.79937 5.45081C6.82391 5.43199 6.84513 5.40912 6.86214 5.38317C6.89324 5.33806 6.94052 5.30697 6.99393 5.2965C7.01831 5.29257 7.04328 5.29475 7.06662 5.30286C7.08997 5.31097 7.11099 5.32476 7.12783 5.34301C7.25544 5.48041 7.40606 5.59456 7.53577 5.73197C7.58807 5.78904 7.59017 5.79961 7.53577 5.86092C7.40397 6.01946 7.24707 6.15475 7.1069 6.30695C7.0956 6.31626 7.08253 6.32312 7.0685 6.32712C7.05446 6.33112 7.03977 6.33217 7.02532 6.33021Z" fill="#5F6F52"/>
<path d="M7.04204 4.16978C7.06428 4.16895 7.08632 4.17421 7.10584 4.185C7.12536 4.19579 7.14162 4.21171 7.15292 4.23108C7.21847 4.31 7.29289 4.38094 7.37468 4.44247C7.42148 4.47967 7.45283 4.5332 7.46255 4.59256C7.46496 4.61341 7.46129 4.63452 7.452 4.6533C7.44271 4.67207 7.4282 4.6877 7.41025 4.69826C7.31375 4.77077 7.22411 4.85215 7.14247 4.94136C7.12597 4.96025 7.10569 4.97539 7.08297 4.98575C7.06024 4.99612 7.0356 5.00148 7.01066 5.00148C6.98573 5.00148 6.96109 4.99612 6.93836 4.98575C6.91564 4.97539 6.89536 4.96025 6.87886 4.94136C6.81141 4.86125 6.73407 4.7902 6.64874 4.72997C6.62648 4.71657 6.60666 4.69941 6.59016 4.67923C6.58251 4.66726 6.57843 4.65332 6.57843 4.63907C6.57843 4.62482 6.58251 4.61087 6.59016 4.5989C6.61512 4.53678 6.65546 4.48219 6.70732 4.44036C6.77586 4.38236 6.83954 4.31873 6.89769 4.25011C6.9138 4.22619 6.93527 4.20645 6.96036 4.19249C6.98544 4.17853 7.01343 4.17075 7.04204 4.16978Z" fill="#5F6F52"/>
<path d="M6.20522 6.93055C6.22196 6.81217 6.23661 6.69168 6.25753 6.5733C6.2861 6.41615 6.30427 6.25726 6.31192 6.09767C6.31426 6.07237 6.31989 6.04749 6.32865 6.02368C6.34748 5.96026 6.3977 5.94546 6.44372 5.99197C6.48975 6.03848 6.55878 6.10401 6.61318 6.16108C6.66757 6.21816 6.77845 6.30906 6.84539 6.39784C6.91234 6.48663 6.9228 6.47817 6.84539 6.56273C6.69058 6.72127 6.53786 6.88193 6.37468 7.03202L6.34958 7.05105C6.32447 7.07007 6.29518 7.09755 6.25962 7.07853C6.24522 7.06965 6.23325 7.05725 6.22484 7.04247C6.21643 7.0277 6.21185 7.01101 6.2115 6.99397V6.93267L6.20522 6.93055Z" fill="#5F6F52"/>
<path d="M7.84331 6.94746C7.84669 6.98223 7.8386 7.01716 7.8203 7.04681C7.7952 7.08698 7.77218 7.09332 7.73453 7.06795C7.6767 7.02983 7.62397 6.98436 7.57762 6.93266C7.46465 6.81005 7.34123 6.70224 7.22826 6.58175L7.19059 6.54158C7.15294 6.49296 7.15084 6.4676 7.19059 6.41898C7.23044 6.37203 7.27306 6.32756 7.31821 6.2858C7.41235 6.1949 7.5044 6.09977 7.59645 6.00676C7.6885 5.91375 7.70315 5.95391 7.73243 6.04058C7.74352 6.09409 7.74843 6.14871 7.74708 6.20336C7.76172 6.36824 7.7952 6.53313 7.81403 6.69801C7.83193 6.77998 7.84174 6.86353 7.84331 6.94746Z" fill="#5F6F52"/>
<path d="M7.41234 3.48486C7.41455 3.50126 7.41306 3.51796 7.40799 3.5337C7.40292 3.54944 7.3944 3.56382 7.38306 3.57576C7.33806 3.62546 7.28984 3.67207 7.23871 3.71528C7.20777 3.74193 7.18035 3.77247 7.15711 3.80618C7.14127 3.82687 7.12072 3.8434 7.09721 3.85436C7.0737 3.86533 7.04792 3.8704 7.02205 3.86916C6.99618 3.86791 6.971 3.86039 6.94862 3.84722C6.92625 3.83404 6.90735 3.81562 6.89352 3.79349C6.83494 3.71739 6.75544 3.66454 6.68431 3.59479C6.66769 3.5822 6.65442 3.56565 6.64568 3.5466C6.63695 3.52756 6.63302 3.50663 6.63427 3.48567C6.63551 3.46472 6.64188 3.44441 6.65281 3.42656C6.66373 3.40871 6.67887 3.39388 6.69687 3.38339C6.76452 3.32948 6.82499 3.26695 6.87678 3.19737C6.89148 3.17379 6.91185 3.15435 6.936 3.14089C6.96015 3.12742 6.98727 3.12036 7.01485 3.12036C7.04244 3.12036 7.06957 3.12742 7.09372 3.14089C7.11786 3.15435 7.13823 3.17379 7.15293 3.19737C7.21605 3.27422 7.28608 3.34498 7.36214 3.40876C7.37628 3.416 7.38834 3.42681 7.39714 3.44014C7.40593 3.45348 7.41117 3.46888 7.41234 3.48486Z" fill="#5F6F52"/>
<path d="M7.70731 5.47619C7.70731 5.49733 7.70731 5.51847 7.69267 5.53749C7.69158 5.54431 7.68887 5.55075 7.68475 5.55626C7.68063 5.56177 7.67524 5.56618 7.66905 5.5691C7.66286 5.57202 7.65606 5.57336 7.64923 5.57301C7.64241 5.57266 7.63577 5.57063 7.62991 5.56709C7.56433 5.54677 7.5047 5.51047 7.45627 5.46139C7.39458 5.38949 7.32431 5.32558 7.24706 5.27114C7.22203 5.25174 7.20302 5.22551 7.19227 5.19554C7.18152 5.16557 7.17948 5.13312 7.18639 5.10202C7.18874 5.08695 7.19449 5.07263 7.2032 5.06017C7.2119 5.0477 7.22333 5.03743 7.2366 5.03015C7.31588 4.97498 7.38642 4.90799 7.44581 4.83144C7.46463 4.8103 7.47719 4.78494 7.50648 4.77648C7.53577 4.76803 7.59016 4.77648 7.61526 4.83567C7.63294 4.88941 7.63935 4.94629 7.63409 5.00267C7.64455 5.15276 7.66756 5.30073 7.68848 5.44871C7.69355 5.45866 7.69988 5.46789 7.70731 5.47619Z" fill="#5F6F52"/>
<path d="M6.85585 5.12951C6.85827 5.16 6.85257 5.19059 6.83932 5.2181C6.82608 5.24561 6.80578 5.26904 6.78054 5.28593C6.70992 5.33682 6.64657 5.39728 6.59226 5.46562C6.54477 5.51545 6.48474 5.55127 6.41862 5.5692C6.41313 5.5712 6.4073 5.57207 6.40147 5.57177C6.39564 5.57147 6.38993 5.56999 6.38467 5.56743C6.37941 5.56488 6.37471 5.56128 6.37084 5.55687C6.36697 5.55245 6.36401 5.5473 6.36213 5.54172C6.34737 5.5056 6.34373 5.46582 6.35168 5.42757C6.3852 5.25815 6.40618 5.08645 6.41443 4.91388C6.41139 4.89925 6.41139 4.88413 6.41443 4.86949C6.42908 4.82721 6.44163 4.78494 6.49393 4.77437C6.54623 4.7638 6.57134 4.80396 6.59644 4.8399C6.65265 4.91007 6.71894 4.97135 6.7931 5.02169C6.83284 5.05129 6.86631 5.07877 6.85585 5.12951Z" fill="#5F6F52"/>
<path d="M6.43326 4.23531C6.4502 4.08088 6.45858 3.92561 6.45837 3.77024C6.45837 3.70682 6.49603 3.67934 6.55461 3.70048C6.61746 3.7137 6.67331 3.74981 6.71151 3.80195C6.73056 3.83295 6.75723 3.85844 6.78891 3.87594C6.81178 3.89291 6.83099 3.91441 6.84538 3.93912C6.85976 3.96383 6.86902 3.99124 6.8726 4.01969C6.87883 4.04019 6.87832 4.06219 6.87116 4.08238C6.86399 4.10258 6.85055 4.11989 6.83285 4.13172C6.78652 4.1628 6.74494 4.20054 6.70942 4.24376C6.6659 4.28743 6.61979 4.32837 6.57134 4.36637C6.56116 4.37577 6.54862 4.38217 6.53508 4.38487C6.52155 4.38756 6.50754 4.38645 6.49459 4.38165C6.48164 4.37685 6.47024 4.36855 6.46164 4.35766C6.45304 4.34676 6.44757 4.33369 6.44582 4.31986C6.43921 4.2921 6.43501 4.2638 6.43326 4.23531Z" fill="#5F6F52"/>
<path d="M7.61736 4.22474C7.62063 4.2507 7.62063 4.27698 7.61736 4.30295C7.59854 4.38117 7.53368 4.39596 7.49184 4.35157C7.45 4.30718 7.36422 4.2649 7.32657 4.19514C7.30679 4.16827 7.28098 4.14654 7.25126 4.13172C7.23452 4.11744 7.22107 4.09963 7.21184 4.07955C7.20262 4.05947 7.19784 4.0376 7.19784 4.01546C7.19784 3.99332 7.20262 3.97145 7.21184 3.95136C7.22107 3.93128 7.23452 3.91348 7.25126 3.89919C7.29707 3.85819 7.34038 3.81442 7.38096 3.76813C7.42438 3.727 7.48057 3.70234 7.53996 3.69837C7.57971 3.69837 7.59854 3.71528 7.60272 3.76601C7.6069 3.81675 7.60272 3.87594 7.60272 3.9309C7.6069 3.98225 7.6069 4.03387 7.60272 4.08522C7.60063 4.13172 7.62783 4.18246 7.61736 4.22474Z" fill="#5F6F52"/>
</svg>
