<svg width="66" height="70" viewBox="0 0 66 70" fill="none" xmlns="http://www.w3.org/2000/svg">
<rect x="1" y="0.5" width="64" height="69" rx="10.5" stroke="#FF9A4E"/>
<path d="M32.9884 40.4936C26.5929 40.4936 20.1974 40.4936 13.7972 40.4936C13.153 40.4936 12.9955 40.3499 13.0001 39.6965C13.0279 33.5358 13.0279 27.3735 13.0001 21.2097C13.0001 20.5377 13.1948 20.4265 13.8204 20.4265C26.6114 20.4451 39.4056 20.4451 52.2028 20.4265C52.8516 20.4265 53.0045 20.5748 52.9999 21.2283C52.9721 27.3859 52.9721 33.5466 52.9999 39.7104C52.9999 40.3917 52.8006 40.4936 52.1842 40.4936C45.7841 40.4843 39.3886 40.4936 32.9884 40.4936Z" fill="#FEFAE0"/>
<path d="M32.9977 42.8294C34.0914 42.8294 35.1851 42.8294 36.2789 42.8294C36.6728 42.8294 36.8767 42.8897 36.9369 43.3485C37.1455 45.0215 38.077 45.8464 39.8056 46.0411C42.3824 46.3238 44.9313 46.8243 47.4988 47.1904C47.9623 47.2599 48.0225 47.4407 47.9854 47.8392C47.8186 49.693 47.8325 49.6559 45.8953 49.3547C42.6512 48.8542 39.4534 48.2517 36.1908 47.9644C32.9255 47.6842 29.6377 47.8228 26.4075 48.3768C23.9234 48.78 21.4348 49.1554 18.9461 49.5493C18.4826 49.6235 18.2463 49.5493 18.1721 49.0117C17.9311 47.2877 17.9126 47.3063 19.6551 47.0514C22.0419 46.6992 24.4286 46.3284 26.8107 45.953C28.0203 45.763 28.6645 45.1235 28.9333 43.8026C29.0677 43.0982 29.304 42.7506 30.115 42.8294C31.0697 42.8989 32.0383 42.8294 32.9977 42.8294Z" fill="#FF9A4E"/>
</svg>
