<svg width="32" height="32" viewBox="0 0 32 32" fill="none" xmlns="http://www.w3.org/2000/svg">
<path d="M32 16C32 24.8366 24.8366 32 16 32C7.16344 32 0 24.8366 0 16C0 7.16344 7.16344 0 16 0C24.8366 0 32 7.16344 32 16Z" fill="#581C00"/>
<path d="M16.0358 7.11126C11.1824 7.11126 7.22687 11.0668 7.22687 15.9201C7.22687 17.4757 7.63576 18.9868 8.40021 20.3201L7.15576 24.889L11.8224 23.6624C13.1113 24.3646 14.5602 24.7379 16.0358 24.7379C20.8891 24.7379 24.8447 20.7824 24.8447 15.929C24.8447 13.5735 23.9291 11.3601 22.2669 9.69793C21.4519 8.87475 20.4813 8.22207 19.4114 7.77797C18.3416 7.33387 17.1941 7.10722 16.0358 7.11126Z" fill="#FEFAE0"/>
<path d="M12.329 12.1247C12.5334 11.9025 12.7734 11.8491 12.9157 11.8491C13.0668 11.8491 13.209 11.858 13.3334 11.858C13.4757 11.8669 13.6534 11.8136 13.8312 12.2402C14.0179 12.6758 14.4623 13.778 14.5157 13.8758C14.569 13.9825 14.6046 14.1069 14.5334 14.258C14.4623 14.4002 14.4268 14.498 14.3112 14.6225C14.2223 14.7558 14.0801 14.9158 13.9823 15.0136C13.8757 15.1113 13.7779 15.2447 13.8846 15.458C14.0179 15.6802 14.4534 16.4002 15.1112 16.9869C15.9468 17.7336 16.6579 17.9647 16.889 18.0802C17.1023 18.1869 17.2268 18.1691 17.3601 18.018C17.4846 17.8758 17.9112 17.378 18.0534 17.1558C18.2223 16.9425 18.3468 16.978 18.5512 17.0491C18.7468 17.1202 19.8312 17.6536 20.0534 17.778C20.2757 17.8758 20.4179 17.9291 20.4801 18.018C20.5334 18.1158 20.5334 18.5513 20.3468 19.0669C20.1601 19.5825 19.289 20.0536 18.8623 20.1158C18.4801 20.1691 18.0001 20.1958 17.4757 20.0269C17.1557 19.9291 16.7468 19.7958 16.2223 19.5558C14.009 18.6136 12.569 16.3913 12.4446 16.2402C12.3468 16.0891 11.5557 15.0491 11.5557 13.9647C11.5557 12.8891 12.1334 12.3469 12.329 12.1247Z" fill="#581C00"/>
</svg>
