<svg width="36" height="36" viewBox="0 0 36 36" fill="none" xmlns="http://www.w3.org/2000/svg">
<path d="M36 18C36 27.9411 27.9411 36 18 36C8.05887 36 0 27.9411 0 18C0 8.05887 8.05887 0 18 0C27.9411 0 36 8.05887 36 18Z" fill="#FF9A4E"/>
<path d="M18.04 8.00006C12.58 8.00006 8.13005 12.4501 8.13005 17.9101C8.13005 19.6601 8.59005 21.3601 9.45005 22.8601L8.05005 28.0001L13.3 26.6201C14.75 27.4101 16.38 27.8301 18.04 27.8301C23.5 27.8301 27.9501 23.3801 27.9501 17.9201C27.9501 15.2701 26.92 12.7801 25.05 10.9101C24.1332 9.98399 23.0412 9.24973 21.8377 8.75011C20.6341 8.25049 19.3432 7.99552 18.04 8.00006ZM18.05 9.67006C20.25 9.67006 22.31 10.5301 23.87 12.0901C24.6357 12.8554 25.2426 13.7644 25.6562 14.7648C26.0698 15.7653 26.2818 16.8375 26.2801 17.9201C26.2801 22.4601 22.58 26.1501 18.04 26.1501C16.56 26.1501 15.11 25.7601 13.85 25.0001L13.55 24.8301L10.43 25.6501L11.26 22.6101L11.06 22.2901C10.234 20.9787 9.79706 19.4599 9.80005 17.9101C9.81005 13.3701 13.5 9.67006 18.05 9.67006ZM14.53 13.3301C14.37 13.3301 14.1 13.3901 13.87 13.6401C13.65 13.8901 13 14.5001 13 15.7101C13 16.9301 13.89 18.1001 14 18.2701C14.14 18.4401 15.76 20.9401 18.25 22.0001C18.84 22.2701 19.3 22.4201 19.66 22.5301C20.25 22.7201 20.79 22.6901 21.22 22.6301C21.7 22.5601 22.68 22.0301 22.89 21.4501C23.1 20.8701 23.1 20.3801 23.04 20.2701C22.97 20.1701 22.81 20.1101 22.56 20.0001C22.31 19.8601 21.09 19.2601 20.87 19.1801C20.64 19.1001 20.5 19.0601 20.31 19.3001C20.15 19.5501 19.67 20.1101 19.53 20.2701C19.38 20.4401 19.24 20.4601 19 20.3401C18.74 20.2101 17.94 19.9501 17 19.1101C16.26 18.4501 15.77 17.6401 15.62 17.3901C15.5 17.1501 15.61 17.0001 15.73 16.8901C15.84 16.7801 16 16.6001 16.1 16.4501C16.23 16.3101 16.27 16.2001 16.35 16.0401C16.43 15.8701 16.39 15.7301 16.33 15.6101C16.27 15.5001 15.77 14.2601 15.56 13.7701C15.36 13.2901 15.16 13.3501 15 13.3401C14.86 13.3401 14.7 13.3301 14.53 13.3301Z" fill="#1D1D1B"/>
</svg>
