<svg width="36" height="36" viewBox="0 0 36 36" fill="none" xmlns="http://www.w3.org/2000/svg">
<path d="M36 18C36 27.9411 27.9411 36 18 36C8.05887 36 0 27.9411 0 18C0 8.05887 8.05887 0 18 0C27.9411 0 36 8.05887 36 18Z" fill="#FF9A4E"/>
<path d="M19.4558 16.794L25.1517 10.125H23.8017L18.8573 15.9154L14.9063 10.125H10.3501L16.3238 18.882L10.3501 25.875H11.7001L16.9223 19.7595L21.095 25.875H25.6512L19.4558 16.794ZM17.6075 18.9585L17.0022 18.0866L12.1861 11.1487H14.2595L18.1452 16.7479L18.7505 17.6198L23.8028 24.8985H21.7295L17.6075 18.9585Z" fill="#1D1D1B"/>
</svg>
