<svg width="32" height="32" viewBox="0 0 32 32" fill="none" xmlns="http://www.w3.org/2000/svg">
<path d="M32 16C32 24.8366 24.8366 32 16 32C7.16344 32 0 24.8366 0 16C0 7.16344 7.16344 0 16 0C24.8366 0 32 7.16344 32 16Z" fill="#581C00"/>
<path d="M7.11133 16.6295V15.3709C7.11133 12.7975 7.11133 11.5104 7.91577 10.6829C8.72111 9.85442 9.98866 9.81886 12.5229 9.74686C13.7229 9.71309 14.9495 9.68909 16.0002 9.68909C17.05 9.68909 18.2767 9.71309 19.4775 9.74686C22.0118 9.81886 23.2793 9.85442 24.0838 10.6829C24.8891 11.5104 24.8891 12.7984 24.8891 15.3709V16.6286C24.8891 19.2029 24.8891 20.4891 24.0847 21.3175C23.2793 22.1451 22.0127 22.1815 19.4775 22.2526C18.2775 22.2873 17.0509 22.3113 16.0002 22.3113C14.8409 22.3078 13.6817 22.2883 12.5229 22.2526C9.98866 22.1815 8.72111 22.146 7.91577 21.3175C7.11133 20.4891 7.11133 19.202 7.11133 16.6295Z" fill="#FEFAE0"/>
<path d="M17.7781 16.0003L14.667 17.7781V14.2225L17.7781 16.0003Z" fill="#581C00" stroke="#581C00" stroke-width="1.5" stroke-linecap="round" stroke-linejoin="round"/>
</svg>
